<mxfile host="app.diagrams.net" modified="2022-09-01T08:41:18.977Z" agent="5.0 (Macintosh; Intel Mac OS X 10_15_7) AppleWebKit/537.36 (KHTML, like Gecko) Chrome/103.0.0.0 Safari/537.36" etag="zeqZZ8wXGIGWNFQidV0f" version="20.2.2" type="github" pages="14">
  <diagram id="4bMxUKOzauhlsI0KuNIR" name="第 1 页">
    <mxGraphModel dx="786" dy="464" grid="1" gridSize="10" guides="1" tooltips="1" connect="1" arrows="1" fold="1" page="1" pageScale="1" pageWidth="827" pageHeight="1169" math="0" shadow="0">
      <root>
        <mxCell id="0" />
        <mxCell id="1" parent="0" />
        <mxCell id="qkogVQtwvpjYQ5pcU_D_-11" value="" style="rounded=0;whiteSpace=wrap;html=1;fontColor=#FF3333;" parent="1" vertex="1">
          <mxGeometry x="581" y="174" width="120" height="96" as="geometry" />
        </mxCell>
        <mxCell id="qkogVQtwvpjYQ5pcU_D_-1" value="" style="editableCssRules=.*;shape=image;verticalLabelPosition=bottom;labelBackgroundColor=#ffffff;verticalAlign=top;aspect=fixed;imageAspect=0;image=data:image/svg+xml,PHN2ZyB4bWxucz0iaHR0cDovL3d3dy53My5vcmcvMjAwMC9zdmciIHhtbG5zOnY9Imh0dHBzOi8vdmVjdGEuaW8vbmFubyIgd2lkdGg9IjE3IiBoZWlnaHQ9IjE1IiB2aWV3Qm94PSIwIDAgMTcgMTUiPiYjeGE7CTxzdHlsZSB0eXBlPSJ0ZXh0L2NzcyI+JiN4YTsJLnN0MHtmaWxsOiM0Mjg1ZjQ7fSYjeGE7CTwvc3R5bGU+JiN4YTsJPHBhdGggY2xhc3M9InN0MCIgZD0iTTIgN2gxNEw5IDB6bTcuNSAySDZ2NmgxLjV2LTJoMmExLjU0IDEuNTQgMCAwIDAgMS41LTEuNXYtMUExLjU0IDEuNTQgMCAwIDAgOS41IDl6bTAgMi41aC0ydi0xaDJ6bS00LjUtMVY5SDEuNUExLjU0IDEuNTQgMCAwIDAgMCAxMC41djNBMS41NCAxLjU0IDAgMCAwIDEuNSAxNUg1di0xLjVIMS41di0zek0xNS41IDl2NC41aC0yVjlIMTJ2NC41YTEuNTQgMS41NCAwIDAgMCAxLjUgMS41aDJhMS41NCAxLjU0IDAgMCAwIDEuNS0xLjVWOXoiLz4mI3hhOzwvc3ZnPg==;" parent="1" vertex="1">
          <mxGeometry x="126" y="190" width="50" height="44.12" as="geometry" />
        </mxCell>
        <mxCell id="qkogVQtwvpjYQ5pcU_D_-2" value="总线" style="rounded=0;whiteSpace=wrap;html=1;" parent="1" vertex="1">
          <mxGeometry x="126" y="320" width="400" height="20" as="geometry" />
        </mxCell>
        <mxCell id="qkogVQtwvpjYQ5pcU_D_-4" value="" style="shape=flexArrow;endArrow=classic;startArrow=classic;html=1;rounded=0;" parent="1" edge="1">
          <mxGeometry width="100" height="100" relative="1" as="geometry">
            <mxPoint x="150.5" y="310" as="sourcePoint" />
            <mxPoint x="150.5" y="250" as="targetPoint" />
          </mxGeometry>
        </mxCell>
        <mxCell id="qkogVQtwvpjYQ5pcU_D_-5" value="" style="pointerEvents=1;shadow=0;dashed=0;html=1;strokeColor=none;fillColor=#4495D1;labelPosition=center;verticalLabelPosition=bottom;verticalAlign=top;align=center;outlineConnect=0;shape=mxgraph.veeam.ram;" parent="1" vertex="1">
          <mxGeometry x="446" y="200" width="70" height="40" as="geometry" />
        </mxCell>
        <mxCell id="qkogVQtwvpjYQ5pcU_D_-6" value="" style="shape=flexArrow;endArrow=classic;startArrow=classic;html=1;rounded=0;" parent="1" edge="1">
          <mxGeometry width="100" height="100" relative="1" as="geometry">
            <mxPoint x="486" y="310" as="sourcePoint" />
            <mxPoint x="486" y="250" as="targetPoint" />
          </mxGeometry>
        </mxCell>
        <mxCell id="qkogVQtwvpjYQ5pcU_D_-10" value="" style="edgeStyle=orthogonalEdgeStyle;rounded=0;orthogonalLoop=1;jettySize=auto;html=1;fontColor=#FF3333;" parent="1" target="qkogVQtwvpjYQ5pcU_D_-5" edge="1">
          <mxGeometry relative="1" as="geometry">
            <mxPoint x="586" y="220" as="sourcePoint" />
          </mxGeometry>
        </mxCell>
        <mxCell id="qkogVQtwvpjYQ5pcU_D_-8" value="&lt;font color=&quot;#ff3333&quot;&gt;&lt;b&gt;300：&lt;/b&gt;&lt;/font&gt;mov ax [500]&lt;br&gt;&lt;font color=&quot;#ff3333&quot;&gt;&lt;b&gt;301：&lt;/b&gt;&lt;/font&gt;mov bx [501]&lt;br&gt;&lt;font color=&quot;#ff3333&quot;&gt;&lt;b&gt;302：&lt;/b&gt;&lt;/font&gt;add ax bx&lt;br&gt;...&lt;br&gt;&lt;b&gt;&lt;font color=&quot;#ff3333&quot;&gt;500：&lt;/font&gt;&lt;font color=&quot;#121212&quot;&gt;95&lt;/font&gt;&lt;/b&gt;&lt;br&gt;&lt;font color=&quot;#ff3333&quot;&gt;&lt;b&gt;501：&lt;/b&gt;&lt;/font&gt;17" style="text;html=1;strokeColor=none;fillColor=none;align=left;verticalAlign=middle;whiteSpace=wrap;rounded=0;" parent="1" vertex="1">
          <mxGeometry x="586" y="173.38" width="110" height="93.25" as="geometry" />
        </mxCell>
        <mxCell id="qkogVQtwvpjYQ5pcU_D_-16" style="edgeStyle=orthogonalEdgeStyle;rounded=0;orthogonalLoop=1;jettySize=auto;html=1;fontColor=#121212;dashed=1;" parent="1" source="qkogVQtwvpjYQ5pcU_D_-15" edge="1">
          <mxGeometry relative="1" as="geometry">
            <mxPoint x="601" y="160" as="targetPoint" />
          </mxGeometry>
        </mxCell>
        <mxCell id="qkogVQtwvpjYQ5pcU_D_-17" style="edgeStyle=orthogonalEdgeStyle;rounded=0;orthogonalLoop=1;jettySize=auto;html=1;dashed=1;fontColor=#121212;" parent="1" source="qkogVQtwvpjYQ5pcU_D_-15" edge="1">
          <mxGeometry relative="1" as="geometry">
            <mxPoint x="676" y="160" as="targetPoint" />
          </mxGeometry>
        </mxCell>
        <mxCell id="qkogVQtwvpjYQ5pcU_D_-15" value="说明：内存地址" style="shape=note;whiteSpace=wrap;html=1;backgroundOutline=1;darkOpacity=0.05;fontColor=#121212;dashed=1;" parent="1" vertex="1">
          <mxGeometry x="546" y="50" width="110" height="70" as="geometry" />
        </mxCell>
        <mxCell id="qkogVQtwvpjYQ5pcU_D_-20" value="&lt;span style=&quot;color: rgb(0, 0, 0); text-align: left;&quot;&gt;mov ax [500]&lt;/span&gt;" style="rounded=0;whiteSpace=wrap;html=1;fontColor=#121212;" parent="1" vertex="1">
          <mxGeometry x="140" y="144" width="90" height="30" as="geometry" />
        </mxCell>
        <mxCell id="qkogVQtwvpjYQ5pcU_D_-21" value="ax = 95" style="text;html=1;strokeColor=none;fillColor=none;align=center;verticalAlign=middle;whiteSpace=wrap;rounded=0;fontColor=#121212;" parent="1" vertex="1">
          <mxGeometry x="190" y="174" width="50" height="30" as="geometry" />
        </mxCell>
        <mxCell id="qkogVQtwvpjYQ5pcU_D_-22" value="IR" style="text;html=1;strokeColor=none;fillColor=none;align=center;verticalAlign=middle;whiteSpace=wrap;rounded=0;fontColor=#121212;" parent="1" vertex="1">
          <mxGeometry x="240" y="144" width="40" height="30" as="geometry" />
        </mxCell>
      </root>
    </mxGraphModel>
  </diagram>
  <diagram id="HEwRhKCkYWtr65NGPYbS" name="第 2 页">
    <mxGraphModel dx="786" dy="521" grid="1" gridSize="10" guides="1" tooltips="1" connect="1" arrows="1" fold="1" page="1" pageScale="1" pageWidth="827" pageHeight="1169" math="0" shadow="0">
      <root>
        <mxCell id="0" />
        <mxCell id="1" parent="0" />
        <mxCell id="DOwr2_M1WDf5WevKQx1X-10" style="edgeStyle=orthogonalEdgeStyle;rounded=0;orthogonalLoop=1;jettySize=auto;html=1;entryX=0;entryY=0.5;entryDx=0;entryDy=0;" parent="1" source="DOwr2_M1WDf5WevKQx1X-1" target="DOwr2_M1WDf5WevKQx1X-4" edge="1">
          <mxGeometry relative="1" as="geometry">
            <Array as="points">
              <mxPoint x="245" y="410" />
            </Array>
          </mxGeometry>
        </mxCell>
        <mxCell id="DOwr2_M1WDf5WevKQx1X-1" value="独立开发" style="rounded=0;whiteSpace=wrap;html=1;" parent="1" vertex="1">
          <mxGeometry x="190" y="460" width="110" height="60" as="geometry" />
        </mxCell>
        <mxCell id="DOwr2_M1WDf5WevKQx1X-2" value="&lt;div&gt;&lt;b&gt;CLED 不同的需求交付方式演进&lt;/b&gt;&lt;/div&gt;" style="text;html=1;strokeColor=none;fillColor=none;align=center;verticalAlign=middle;whiteSpace=wrap;rounded=0;" parent="1" vertex="1">
          <mxGeometry x="480" y="140" width="210" height="30" as="geometry" />
        </mxCell>
        <mxCell id="DOwr2_M1WDf5WevKQx1X-3" value="业务需求通过传统的工程方法研究交付" style="text;html=1;strokeColor=none;fillColor=none;align=center;verticalAlign=middle;whiteSpace=wrap;rounded=0;" parent="1" vertex="1">
          <mxGeometry x="190" y="530" width="110" height="40" as="geometry" />
        </mxCell>
        <mxCell id="DOwr2_M1WDf5WevKQx1X-11" style="edgeStyle=orthogonalEdgeStyle;rounded=0;orthogonalLoop=1;jettySize=auto;html=1;entryX=0;entryY=0.5;entryDx=0;entryDy=0;" parent="1" source="DOwr2_M1WDf5WevKQx1X-4" target="DOwr2_M1WDf5WevKQx1X-5" edge="1">
          <mxGeometry relative="1" as="geometry">
            <Array as="points">
              <mxPoint x="455" y="330" />
            </Array>
          </mxGeometry>
        </mxCell>
        <mxCell id="DOwr2_M1WDf5WevKQx1X-4" value="扩展开发" style="rounded=0;whiteSpace=wrap;html=1;" parent="1" vertex="1">
          <mxGeometry x="400" y="380" width="110" height="60" as="geometry" />
        </mxCell>
        <mxCell id="DOwr2_M1WDf5WevKQx1X-12" style="edgeStyle=orthogonalEdgeStyle;rounded=0;orthogonalLoop=1;jettySize=auto;html=1;entryX=0;entryY=0.5;entryDx=0;entryDy=0;" parent="1" source="DOwr2_M1WDf5WevKQx1X-5" target="DOwr2_M1WDf5WevKQx1X-6" edge="1">
          <mxGeometry relative="1" as="geometry">
            <Array as="points">
              <mxPoint x="675" y="240" />
            </Array>
          </mxGeometry>
        </mxCell>
        <mxCell id="DOwr2_M1WDf5WevKQx1X-5" value="低代码开发" style="rounded=0;whiteSpace=wrap;html=1;" parent="1" vertex="1">
          <mxGeometry x="620" y="300" width="110" height="60" as="geometry" />
        </mxCell>
        <mxCell id="DOwr2_M1WDf5WevKQx1X-6" value="配置化开发" style="rounded=0;whiteSpace=wrap;html=1;" parent="1" vertex="1">
          <mxGeometry x="830" y="210" width="110" height="60" as="geometry" />
        </mxCell>
        <mxCell id="DOwr2_M1WDf5WevKQx1X-7" value="业务需求通过标准SPI接口等扩展机制，新业务可以进行个性化的定制且不影响原有业务" style="text;html=1;strokeColor=none;fillColor=none;align=center;verticalAlign=middle;whiteSpace=wrap;rounded=0;" parent="1" vertex="1">
          <mxGeometry x="400" y="450" width="186" height="60" as="geometry" />
        </mxCell>
        <mxCell id="DOwr2_M1WDf5WevKQx1X-8" value="通过业务管理平台实现业务可视化和流程可视化，新业务通过流程编排即可实现新的流程" style="text;html=1;strokeColor=none;fillColor=none;align=center;verticalAlign=middle;whiteSpace=wrap;rounded=0;" parent="1" vertex="1">
          <mxGeometry x="620" y="370" width="180" height="50" as="geometry" />
        </mxCell>
        <mxCell id="DOwr2_M1WDf5WevKQx1X-9" value="通过中台业务平台可以实现业务数字化和功能结构化，可视、可管、可配、配置和管理的效果可以快速回收和调控" style="text;html=1;strokeColor=none;fillColor=none;align=center;verticalAlign=middle;whiteSpace=wrap;rounded=0;" parent="1" vertex="1">
          <mxGeometry x="830" y="280" width="180" height="60" as="geometry" />
        </mxCell>
        <mxCell id="DOwr2_M1WDf5WevKQx1X-13" value="" style="shape=flexArrow;endArrow=classic;html=1;rounded=0;" parent="1" edge="1">
          <mxGeometry width="50" height="50" relative="1" as="geometry">
            <mxPoint x="120" y="600" as="sourcePoint" />
            <mxPoint x="120" y="150" as="targetPoint" />
          </mxGeometry>
        </mxCell>
        <mxCell id="DOwr2_M1WDf5WevKQx1X-14" value="新&lt;br&gt;业&lt;br&gt;务&lt;br&gt;接&lt;br&gt;入&lt;br&gt;快&lt;br&gt;捷&lt;br&gt;度" style="edgeLabel;html=1;align=center;verticalAlign=middle;resizable=0;points=[];" parent="DOwr2_M1WDf5WevKQx1X-13" vertex="1" connectable="0">
          <mxGeometry x="0.1795" y="-1" relative="1" as="geometry">
            <mxPoint y="28" as="offset" />
          </mxGeometry>
        </mxCell>
        <mxCell id="DOwr2_M1WDf5WevKQx1X-16" value="" style="shape=flexArrow;endArrow=classic;html=1;rounded=0;" parent="1" edge="1">
          <mxGeometry width="50" height="50" relative="1" as="geometry">
            <mxPoint x="130" y="590" as="sourcePoint" />
            <mxPoint x="1040" y="590" as="targetPoint" />
          </mxGeometry>
        </mxCell>
        <mxCell id="DOwr2_M1WDf5WevKQx1X-17" value="系统扩展性和业务变化容忍度" style="edgeLabel;html=1;align=center;verticalAlign=middle;resizable=0;points=[];" parent="DOwr2_M1WDf5WevKQx1X-16" vertex="1" connectable="0">
          <mxGeometry x="-0.0313" y="2" relative="1" as="geometry">
            <mxPoint x="-1" as="offset" />
          </mxGeometry>
        </mxCell>
      </root>
    </mxGraphModel>
  </diagram>
  <diagram id="9_Z2rfxir68DsYKQYfj2" name="第 3 页">
    <mxGraphModel dx="786" dy="521" grid="1" gridSize="10" guides="1" tooltips="1" connect="1" arrows="1" fold="1" page="1" pageScale="1" pageWidth="827" pageHeight="1169" math="0" shadow="0">
      <root>
        <mxCell id="0" />
        <mxCell id="1" parent="0" />
        <mxCell id="kvoJz_N0XIpTX4KvQoT9-14" value="" style="rounded=0;whiteSpace=wrap;html=1;fontSize=18;dashed=1;" parent="1" vertex="1">
          <mxGeometry x="420" y="230" width="120" height="190" as="geometry" />
        </mxCell>
        <mxCell id="kvoJz_N0XIpTX4KvQoT9-15" style="edgeStyle=orthogonalEdgeStyle;rounded=0;orthogonalLoop=1;jettySize=auto;html=1;fontSize=18;" parent="1" source="kvoJz_N0XIpTX4KvQoT9-1" target="kvoJz_N0XIpTX4KvQoT9-2" edge="1">
          <mxGeometry relative="1" as="geometry" />
        </mxCell>
        <mxCell id="kvoJz_N0XIpTX4KvQoT9-1" value="&lt;font style=&quot;font-size: 18px;&quot;&gt;下单&lt;/font&gt;" style="rounded=0;whiteSpace=wrap;html=1;" parent="1" vertex="1">
          <mxGeometry x="170" y="150" width="100" height="50" as="geometry" />
        </mxCell>
        <mxCell id="kvoJz_N0XIpTX4KvQoT9-16" style="edgeStyle=orthogonalEdgeStyle;rounded=0;orthogonalLoop=1;jettySize=auto;html=1;entryX=0.5;entryY=0;entryDx=0;entryDy=0;fontSize=18;" parent="1" source="kvoJz_N0XIpTX4KvQoT9-2" target="kvoJz_N0XIpTX4KvQoT9-3" edge="1">
          <mxGeometry relative="1" as="geometry" />
        </mxCell>
        <mxCell id="kvoJz_N0XIpTX4KvQoT9-2" value="&lt;font style=&quot;font-size: 18px;&quot;&gt;拆单&lt;/font&gt;" style="rounded=0;whiteSpace=wrap;html=1;" parent="1" vertex="1">
          <mxGeometry x="170" y="320" width="100" height="50" as="geometry" />
        </mxCell>
        <mxCell id="kvoJz_N0XIpTX4KvQoT9-17" style="edgeStyle=orthogonalEdgeStyle;rounded=0;orthogonalLoop=1;jettySize=auto;html=1;entryX=0;entryY=0.5;entryDx=0;entryDy=0;fontSize=18;" parent="1" source="kvoJz_N0XIpTX4KvQoT9-3" target="kvoJz_N0XIpTX4KvQoT9-4" edge="1">
          <mxGeometry relative="1" as="geometry" />
        </mxCell>
        <mxCell id="kvoJz_N0XIpTX4KvQoT9-18" style="edgeStyle=orthogonalEdgeStyle;rounded=0;orthogonalLoop=1;jettySize=auto;html=1;entryX=0;entryY=0.5;entryDx=0;entryDy=0;fontSize=18;" parent="1" source="kvoJz_N0XIpTX4KvQoT9-3" target="kvoJz_N0XIpTX4KvQoT9-9" edge="1">
          <mxGeometry relative="1" as="geometry">
            <Array as="points">
              <mxPoint x="220" y="695" />
            </Array>
          </mxGeometry>
        </mxCell>
        <mxCell id="kvoJz_N0XIpTX4KvQoT9-3" value="&lt;font style=&quot;font-size: 18px;&quot;&gt;支付&lt;/font&gt;" style="rounded=0;whiteSpace=wrap;html=1;" parent="1" vertex="1">
          <mxGeometry x="170" y="500" width="100" height="50" as="geometry" />
        </mxCell>
        <mxCell id="kvoJz_N0XIpTX4KvQoT9-19" style="edgeStyle=orthogonalEdgeStyle;rounded=0;orthogonalLoop=1;jettySize=auto;html=1;entryX=0;entryY=0.5;entryDx=0;entryDy=0;fontSize=18;" parent="1" source="kvoJz_N0XIpTX4KvQoT9-4" target="kvoJz_N0XIpTX4KvQoT9-5" edge="1">
          <mxGeometry relative="1" as="geometry" />
        </mxCell>
        <mxCell id="kvoJz_N0XIpTX4KvQoT9-4" value="&lt;font style=&quot;font-size: 18px;&quot;&gt;发货&lt;/font&gt;" style="rounded=0;whiteSpace=wrap;html=1;" parent="1" vertex="1">
          <mxGeometry x="430" y="500" width="100" height="50" as="geometry" />
        </mxCell>
        <mxCell id="kvoJz_N0XIpTX4KvQoT9-22" style="edgeStyle=orthogonalEdgeStyle;rounded=0;orthogonalLoop=1;jettySize=auto;html=1;entryX=0.5;entryY=0;entryDx=0;entryDy=0;fontSize=18;" parent="1" source="kvoJz_N0XIpTX4KvQoT9-5" target="kvoJz_N0XIpTX4KvQoT9-7" edge="1">
          <mxGeometry relative="1" as="geometry" />
        </mxCell>
        <mxCell id="kvoJz_N0XIpTX4KvQoT9-26" style="edgeStyle=orthogonalEdgeStyle;rounded=0;orthogonalLoop=1;jettySize=auto;html=1;entryX=0;entryY=0.5;entryDx=0;entryDy=0;fontSize=18;" parent="1" source="kvoJz_N0XIpTX4KvQoT9-5" target="kvoJz_N0XIpTX4KvQoT9-6" edge="1">
          <mxGeometry relative="1" as="geometry" />
        </mxCell>
        <mxCell id="kvoJz_N0XIpTX4KvQoT9-5" value="&lt;font style=&quot;font-size: 18px;&quot;&gt;收货&lt;/font&gt;" style="rounded=0;whiteSpace=wrap;html=1;" parent="1" vertex="1">
          <mxGeometry x="690" y="500" width="100" height="50" as="geometry" />
        </mxCell>
        <mxCell id="kvoJz_N0XIpTX4KvQoT9-28" style="edgeStyle=orthogonalEdgeStyle;rounded=0;orthogonalLoop=1;jettySize=auto;html=1;fontSize=18;" parent="1" source="kvoJz_N0XIpTX4KvQoT9-6" target="kvoJz_N0XIpTX4KvQoT9-27" edge="1">
          <mxGeometry relative="1" as="geometry" />
        </mxCell>
        <mxCell id="kvoJz_N0XIpTX4KvQoT9-6" value="&lt;font style=&quot;font-size: 18px;&quot;&gt;结算&lt;/font&gt;" style="rounded=0;whiteSpace=wrap;html=1;" parent="1" vertex="1">
          <mxGeometry x="930" y="500" width="100" height="50" as="geometry" />
        </mxCell>
        <mxCell id="kvoJz_N0XIpTX4KvQoT9-23" style="edgeStyle=orthogonalEdgeStyle;rounded=0;orthogonalLoop=1;jettySize=auto;html=1;entryX=0.5;entryY=0;entryDx=0;entryDy=0;fontSize=18;" parent="1" source="kvoJz_N0XIpTX4KvQoT9-7" target="kvoJz_N0XIpTX4KvQoT9-8" edge="1">
          <mxGeometry relative="1" as="geometry" />
        </mxCell>
        <mxCell id="kvoJz_N0XIpTX4KvQoT9-7" value="&lt;span style=&quot;font-size: 18px;&quot;&gt;退货申请&lt;/span&gt;" style="rounded=0;whiteSpace=wrap;html=1;" parent="1" vertex="1">
          <mxGeometry x="690" y="630" width="100" height="50" as="geometry" />
        </mxCell>
        <mxCell id="kvoJz_N0XIpTX4KvQoT9-24" style="edgeStyle=orthogonalEdgeStyle;rounded=0;orthogonalLoop=1;jettySize=auto;html=1;entryX=0.5;entryY=0;entryDx=0;entryDy=0;fontSize=18;" parent="1" source="kvoJz_N0XIpTX4KvQoT9-8" target="kvoJz_N0XIpTX4KvQoT9-20" edge="1">
          <mxGeometry relative="1" as="geometry" />
        </mxCell>
        <mxCell id="kvoJz_N0XIpTX4KvQoT9-8" value="&lt;span style=&quot;font-size: 18px;&quot;&gt;退货退款&lt;/span&gt;" style="rounded=0;whiteSpace=wrap;html=1;" parent="1" vertex="1">
          <mxGeometry x="690" y="750" width="100" height="50" as="geometry" />
        </mxCell>
        <mxCell id="kvoJz_N0XIpTX4KvQoT9-21" style="edgeStyle=orthogonalEdgeStyle;rounded=0;orthogonalLoop=1;jettySize=auto;html=1;entryX=0;entryY=0.5;entryDx=0;entryDy=0;fontSize=18;" parent="1" source="kvoJz_N0XIpTX4KvQoT9-9" target="kvoJz_N0XIpTX4KvQoT9-20" edge="1">
          <mxGeometry relative="1" as="geometry" />
        </mxCell>
        <mxCell id="kvoJz_N0XIpTX4KvQoT9-9" value="&lt;span style=&quot;font-size: 18px;&quot;&gt;未发货&lt;br&gt;退款&lt;br&gt;&lt;/span&gt;" style="rounded=0;whiteSpace=wrap;html=1;" parent="1" vertex="1">
          <mxGeometry x="280" y="670" width="100" height="50" as="geometry" />
        </mxCell>
        <mxCell id="kvoJz_N0XIpTX4KvQoT9-10" value="&lt;font style=&quot;font-size: 18px;&quot;&gt;卡券生码&lt;/font&gt;" style="rounded=0;whiteSpace=wrap;html=1;" parent="1" vertex="1">
          <mxGeometry x="430" y="240" width="100" height="50" as="geometry" />
        </mxCell>
        <mxCell id="kvoJz_N0XIpTX4KvQoT9-11" value="&lt;font style=&quot;font-size: 18px;&quot;&gt;仓储配送&lt;/font&gt;" style="rounded=0;whiteSpace=wrap;html=1;" parent="1" vertex="1">
          <mxGeometry x="430" y="300" width="100" height="50" as="geometry" />
        </mxCell>
        <mxCell id="kvoJz_N0XIpTX4KvQoT9-12" value="&lt;font style=&quot;font-size: 18px;&quot;&gt;自联物流&lt;/font&gt;" style="rounded=0;whiteSpace=wrap;html=1;" parent="1" vertex="1">
          <mxGeometry x="430" y="360" width="100" height="50" as="geometry" />
        </mxCell>
        <mxCell id="kvoJz_N0XIpTX4KvQoT9-20" value="" style="ellipse;html=1;shape=endState;fillColor=#000000;strokeColor=#ff0000;dashed=1;fontSize=18;" parent="1" vertex="1">
          <mxGeometry x="710" y="870" width="60" height="60" as="geometry" />
        </mxCell>
        <mxCell id="kvoJz_N0XIpTX4KvQoT9-25" value="交易&lt;br&gt;关闭" style="text;html=1;strokeColor=none;fillColor=none;align=center;verticalAlign=middle;whiteSpace=wrap;rounded=0;dashed=1;fontSize=18;" parent="1" vertex="1">
          <mxGeometry x="820" y="877.5" width="60" height="45" as="geometry" />
        </mxCell>
        <mxCell id="kvoJz_N0XIpTX4KvQoT9-27" value="" style="ellipse;html=1;shape=endState;fillColor=#000000;strokeColor=#ff0000;dashed=1;fontSize=18;" parent="1" vertex="1">
          <mxGeometry x="1160" y="495" width="60" height="60" as="geometry" />
        </mxCell>
        <mxCell id="kvoJz_N0XIpTX4KvQoT9-29" value="交易&lt;br&gt;完成" style="text;html=1;strokeColor=none;fillColor=none;align=center;verticalAlign=middle;whiteSpace=wrap;rounded=0;dashed=1;fontSize=18;" parent="1" vertex="1">
          <mxGeometry x="1260" y="502.5" width="60" height="45" as="geometry" />
        </mxCell>
        <mxCell id="kvoJz_N0XIpTX4KvQoT9-32" value="" style="edgeStyle=orthogonalEdgeStyle;rounded=0;orthogonalLoop=1;jettySize=auto;html=1;fontSize=18;" parent="1" source="kvoJz_N0XIpTX4KvQoT9-30" target="kvoJz_N0XIpTX4KvQoT9-1" edge="1">
          <mxGeometry relative="1" as="geometry" />
        </mxCell>
        <mxCell id="kvoJz_N0XIpTX4KvQoT9-30" value="" style="ellipse;html=1;shape=endState;fillColor=#000000;strokeColor=#ff0000;dashed=1;fontSize=18;" parent="1" vertex="1">
          <mxGeometry x="190" y="2.5" width="60" height="60" as="geometry" />
        </mxCell>
        <mxCell id="kvoJz_N0XIpTX4KvQoT9-31" value="开始&lt;br&gt;交易" style="text;html=1;strokeColor=none;fillColor=none;align=center;verticalAlign=middle;whiteSpace=wrap;rounded=0;dashed=1;fontSize=18;" parent="1" vertex="1">
          <mxGeometry x="300" y="10" width="60" height="45" as="geometry" />
        </mxCell>
      </root>
    </mxGraphModel>
  </diagram>
  <diagram id="apnnP5KwYrhmkVP3Y2PK" name="第 4 页">
    <mxGraphModel dx="2246" dy="1489" grid="1" gridSize="10" guides="1" tooltips="1" connect="1" arrows="1" fold="1" page="1" pageScale="1" pageWidth="827" pageHeight="1169" math="0" shadow="0">
      <root>
        <mxCell id="0" />
        <mxCell id="1" parent="0" />
        <mxCell id="3uSi9vsS_5ylYI6MB056-41" value="" style="rounded=1;whiteSpace=wrap;html=1;fontSize=18;" vertex="1" parent="1">
          <mxGeometry x="220" y="610" width="190" height="430" as="geometry" />
        </mxCell>
        <mxCell id="3uSi9vsS_5ylYI6MB056-30" value="" style="rounded=0;whiteSpace=wrap;html=1;fontSize=18;" vertex="1" parent="1">
          <mxGeometry x="700" y="680" width="300" height="130" as="geometry" />
        </mxCell>
        <mxCell id="3uSi9vsS_5ylYI6MB056-5" style="rounded=0;orthogonalLoop=1;jettySize=auto;html=1;fontSize=18;" edge="1" parent="1" source="3uSi9vsS_5ylYI6MB056-1" target="3uSi9vsS_5ylYI6MB056-4">
          <mxGeometry relative="1" as="geometry" />
        </mxCell>
        <mxCell id="3uSi9vsS_5ylYI6MB056-7" value="下单" style="edgeLabel;html=1;align=center;verticalAlign=middle;resizable=0;points=[];fontSize=18;" vertex="1" connectable="0" parent="3uSi9vsS_5ylYI6MB056-5">
          <mxGeometry x="-0.1053" y="-1" relative="1" as="geometry">
            <mxPoint as="offset" />
          </mxGeometry>
        </mxCell>
        <mxCell id="3uSi9vsS_5ylYI6MB056-1" value="业务A" style="rounded=1;whiteSpace=wrap;html=1;fontSize=18;" vertex="1" parent="1">
          <mxGeometry x="270" y="130" width="110" height="50" as="geometry" />
        </mxCell>
        <mxCell id="3uSi9vsS_5ylYI6MB056-6" style="rounded=0;orthogonalLoop=1;jettySize=auto;html=1;entryX=0.5;entryY=0;entryDx=0;entryDy=0;fontSize=18;" edge="1" parent="1" source="3uSi9vsS_5ylYI6MB056-2" target="3uSi9vsS_5ylYI6MB056-4">
          <mxGeometry relative="1" as="geometry" />
        </mxCell>
        <mxCell id="3uSi9vsS_5ylYI6MB056-8" value="下单" style="edgeLabel;html=1;align=center;verticalAlign=middle;resizable=0;points=[];fontSize=18;" vertex="1" connectable="0" parent="3uSi9vsS_5ylYI6MB056-6">
          <mxGeometry x="-0.0392" y="2" relative="1" as="geometry">
            <mxPoint as="offset" />
          </mxGeometry>
        </mxCell>
        <mxCell id="3uSi9vsS_5ylYI6MB056-10" value="配置扩展点" style="edgeStyle=none;rounded=0;orthogonalLoop=1;jettySize=auto;html=1;entryX=0.5;entryY=0;entryDx=0;entryDy=0;fontSize=18;" edge="1" parent="1" source="3uSi9vsS_5ylYI6MB056-2" target="3uSi9vsS_5ylYI6MB056-9">
          <mxGeometry relative="1" as="geometry" />
        </mxCell>
        <mxCell id="3uSi9vsS_5ylYI6MB056-2" value="业务B" style="rounded=1;whiteSpace=wrap;html=1;fontSize=18;" vertex="1" parent="1">
          <mxGeometry x="550" y="130" width="110" height="50" as="geometry" />
        </mxCell>
        <mxCell id="3uSi9vsS_5ylYI6MB056-12" value="下单" style="edgeStyle=none;rounded=0;orthogonalLoop=1;jettySize=auto;html=1;entryX=0.5;entryY=0;entryDx=0;entryDy=0;fontSize=18;" edge="1" parent="1" source="3uSi9vsS_5ylYI6MB056-4" target="3uSi9vsS_5ylYI6MB056-11">
          <mxGeometry relative="1" as="geometry" />
        </mxCell>
        <mxCell id="3uSi9vsS_5ylYI6MB056-4" value="业务中台网关" style="rounded=1;whiteSpace=wrap;html=1;fontSize=18;" vertex="1" parent="1">
          <mxGeometry x="270" y="260" width="400" height="50" as="geometry" />
        </mxCell>
        <mxCell id="3uSi9vsS_5ylYI6MB056-9" value="中台运营平台" style="rounded=1;whiteSpace=wrap;html=1;fontSize=18;" vertex="1" parent="1">
          <mxGeometry x="750" y="260" width="400" height="50" as="geometry" />
        </mxCell>
        <mxCell id="3uSi9vsS_5ylYI6MB056-17" value="下单" style="edgeStyle=none;rounded=0;orthogonalLoop=1;jettySize=auto;html=1;entryX=0.5;entryY=0;entryDx=0;entryDy=0;entryPerimeter=0;fontSize=18;" edge="1" parent="1" source="3uSi9vsS_5ylYI6MB056-11" target="3uSi9vsS_5ylYI6MB056-13">
          <mxGeometry relative="1" as="geometry" />
        </mxCell>
        <mxCell id="3uSi9vsS_5ylYI6MB056-11" value="业务能力层-消费者链路" style="rounded=1;whiteSpace=wrap;html=1;fontSize=18;" vertex="1" parent="1">
          <mxGeometry x="270" y="380" width="400" height="50" as="geometry" />
        </mxCell>
        <mxCell id="3uSi9vsS_5ylYI6MB056-13" value="交易" style="shape=cylinder3;whiteSpace=wrap;html=1;boundedLbl=1;backgroundOutline=1;size=15;fontSize=18;" vertex="1" parent="1">
          <mxGeometry x="270" y="520" width="90" height="60" as="geometry" />
        </mxCell>
        <mxCell id="3uSi9vsS_5ylYI6MB056-14" value="履约" style="shape=cylinder3;whiteSpace=wrap;html=1;boundedLbl=1;backgroundOutline=1;size=15;fontSize=18;" vertex="1" parent="1">
          <mxGeometry x="400" y="520" width="90" height="60" as="geometry" />
        </mxCell>
        <mxCell id="3uSi9vsS_5ylYI6MB056-15" value="售后" style="shape=cylinder3;whiteSpace=wrap;html=1;boundedLbl=1;backgroundOutline=1;size=15;fontSize=18;" vertex="1" parent="1">
          <mxGeometry x="530" y="520" width="90" height="60" as="geometry" />
        </mxCell>
        <mxCell id="3uSi9vsS_5ylYI6MB056-16" value="商品" style="shape=cylinder3;whiteSpace=wrap;html=1;boundedLbl=1;backgroundOutline=1;size=15;fontSize=18;" vertex="1" parent="1">
          <mxGeometry x="650" y="520" width="90" height="60" as="geometry" />
        </mxCell>
        <mxCell id="3uSi9vsS_5ylYI6MB056-18" value="登陆态校验" style="rounded=0;whiteSpace=wrap;html=1;fontSize=18;" vertex="1" parent="1">
          <mxGeometry x="255" y="630" width="120" height="40" as="geometry" />
        </mxCell>
        <mxCell id="3uSi9vsS_5ylYI6MB056-37" style="edgeStyle=none;rounded=0;orthogonalLoop=1;jettySize=auto;html=1;entryX=0;entryY=0.5;entryDx=0;entryDy=0;fontSize=18;" edge="1" parent="1" source="3uSi9vsS_5ylYI6MB056-19" target="3uSi9vsS_5ylYI6MB056-30">
          <mxGeometry relative="1" as="geometry" />
        </mxCell>
        <mxCell id="3uSi9vsS_5ylYI6MB056-39" style="edgeStyle=none;rounded=0;orthogonalLoop=1;jettySize=auto;html=1;entryX=0;entryY=0.406;entryDx=0;entryDy=0;entryPerimeter=0;fontSize=18;" edge="1" parent="1" source="3uSi9vsS_5ylYI6MB056-19" target="3uSi9vsS_5ylYI6MB056-32">
          <mxGeometry relative="1" as="geometry" />
        </mxCell>
        <mxCell id="3uSi9vsS_5ylYI6MB056-19" value="商品校验" style="rounded=0;whiteSpace=wrap;html=1;fontSize=18;fillColor=#d5e8d4;strokeColor=#82b366;" vertex="1" parent="1">
          <mxGeometry x="255" y="690" width="120" height="40" as="geometry" />
        </mxCell>
        <mxCell id="3uSi9vsS_5ylYI6MB056-20" value="商家校验" style="rounded=0;whiteSpace=wrap;html=1;fontSize=18;" vertex="1" parent="1">
          <mxGeometry x="255" y="750" width="120" height="40" as="geometry" />
        </mxCell>
        <mxCell id="3uSi9vsS_5ylYI6MB056-21" value="发货时效校验" style="rounded=0;whiteSpace=wrap;html=1;fontSize=18;" vertex="1" parent="1">
          <mxGeometry x="255" y="810" width="120" height="40" as="geometry" />
        </mxCell>
        <mxCell id="3uSi9vsS_5ylYI6MB056-38" style="edgeStyle=none;rounded=0;orthogonalLoop=1;jettySize=auto;html=1;entryX=0;entryY=0.5;entryDx=0;entryDy=0;fontSize=18;" edge="1" parent="1" source="3uSi9vsS_5ylYI6MB056-22" target="3uSi9vsS_5ylYI6MB056-30">
          <mxGeometry relative="1" as="geometry" />
        </mxCell>
        <mxCell id="3uSi9vsS_5ylYI6MB056-40" style="edgeStyle=none;rounded=0;orthogonalLoop=1;jettySize=auto;html=1;entryX=-0.006;entryY=0.406;entryDx=0;entryDy=0;entryPerimeter=0;fontSize=18;" edge="1" parent="1" source="3uSi9vsS_5ylYI6MB056-22" target="3uSi9vsS_5ylYI6MB056-32">
          <mxGeometry relative="1" as="geometry" />
        </mxCell>
        <mxCell id="3uSi9vsS_5ylYI6MB056-22" value="库存校验" style="rounded=0;whiteSpace=wrap;html=1;fontSize=18;fillColor=#d5e8d4;strokeColor=#82b366;" vertex="1" parent="1">
          <mxGeometry x="255" y="870" width="120" height="40" as="geometry" />
        </mxCell>
        <mxCell id="3uSi9vsS_5ylYI6MB056-23" value="限购校验" style="rounded=0;whiteSpace=wrap;html=1;fontSize=18;" vertex="1" parent="1">
          <mxGeometry x="255" y="930" width="120" height="40" as="geometry" />
        </mxCell>
        <mxCell id="3uSi9vsS_5ylYI6MB056-24" value="地址校验" style="rounded=0;whiteSpace=wrap;html=1;fontSize=18;" vertex="1" parent="1">
          <mxGeometry x="255" y="990" width="120" height="40" as="geometry" />
        </mxCell>
        <mxCell id="3uSi9vsS_5ylYI6MB056-27" value="CreateOrderExtPoint.xxx" style="rounded=0;whiteSpace=wrap;html=1;fontSize=18;fillColor=#f5f5f5;fontColor=#333333;strokeColor=#666666;" vertex="1" parent="1">
          <mxGeometry x="730" y="700" width="240" height="30" as="geometry" />
        </mxCell>
        <mxCell id="3uSi9vsS_5ylYI6MB056-28" value="CheckProduct()" style="rounded=0;whiteSpace=wrap;html=1;fontSize=18;" vertex="1" parent="1">
          <mxGeometry x="730" y="730" width="240" height="30" as="geometry" />
        </mxCell>
        <mxCell id="3uSi9vsS_5ylYI6MB056-29" value="CheckStock()" style="rounded=0;whiteSpace=wrap;html=1;fontSize=18;" vertex="1" parent="1">
          <mxGeometry x="730" y="760" width="240" height="30" as="geometry" />
        </mxCell>
        <mxCell id="3uSi9vsS_5ylYI6MB056-31" value="A业务插件扩展包" style="rounded=0;whiteSpace=wrap;html=1;fontSize=18;" vertex="1" parent="1">
          <mxGeometry x="700" y="650" width="160" height="30" as="geometry" />
        </mxCell>
        <mxCell id="3uSi9vsS_5ylYI6MB056-32" value="" style="rounded=0;whiteSpace=wrap;html=1;fontSize=18;" vertex="1" parent="1">
          <mxGeometry x="690" y="890" width="300" height="130" as="geometry" />
        </mxCell>
        <mxCell id="3uSi9vsS_5ylYI6MB056-33" value="CreateOrderExtPoint.xxx" style="rounded=0;whiteSpace=wrap;html=1;fontSize=18;fillColor=#f5f5f5;fontColor=#333333;strokeColor=#666666;" vertex="1" parent="1">
          <mxGeometry x="720" y="910" width="240" height="30" as="geometry" />
        </mxCell>
        <mxCell id="3uSi9vsS_5ylYI6MB056-34" value="CheckProduct()" style="rounded=0;whiteSpace=wrap;html=1;fontSize=18;" vertex="1" parent="1">
          <mxGeometry x="720" y="940" width="240" height="30" as="geometry" />
        </mxCell>
        <mxCell id="3uSi9vsS_5ylYI6MB056-35" value="CheckStock()" style="rounded=0;whiteSpace=wrap;html=1;fontSize=18;" vertex="1" parent="1">
          <mxGeometry x="720" y="970" width="240" height="30" as="geometry" />
        </mxCell>
        <mxCell id="3uSi9vsS_5ylYI6MB056-36" value="B业务插件扩展包" style="rounded=0;whiteSpace=wrap;html=1;fontSize=18;" vertex="1" parent="1">
          <mxGeometry x="690" y="860" width="160" height="30" as="geometry" />
        </mxCell>
        <mxCell id="3uSi9vsS_5ylYI6MB056-42" value="CreateOrder" style="text;html=1;strokeColor=none;fillColor=none;align=center;verticalAlign=middle;whiteSpace=wrap;rounded=0;fontSize=18;" vertex="1" parent="1">
          <mxGeometry x="60" y="780" width="110" height="30" as="geometry" />
        </mxCell>
      </root>
    </mxGraphModel>
  </diagram>
  <diagram id="b47wV-705C6PB9akcEn9" name="第 5 页">
    <mxGraphModel dx="786" dy="521" grid="1" gridSize="10" guides="1" tooltips="1" connect="1" arrows="1" fold="1" page="1" pageScale="1" pageWidth="827" pageHeight="1169" math="0" shadow="0">
      <root>
        <mxCell id="0" />
        <mxCell id="1" parent="0" />
        <mxCell id="Ts2MjXPutNlqcuylebqu-4" style="edgeStyle=orthogonalEdgeStyle;rounded=0;orthogonalLoop=1;jettySize=auto;html=1;entryX=0;entryY=0.5;entryDx=0;entryDy=0;fontSize=18;" edge="1" parent="1" source="Ts2MjXPutNlqcuylebqu-1" target="Ts2MjXPutNlqcuylebqu-2">
          <mxGeometry relative="1" as="geometry" />
        </mxCell>
        <mxCell id="Ts2MjXPutNlqcuylebqu-5" style="edgeStyle=orthogonalEdgeStyle;rounded=0;orthogonalLoop=1;jettySize=auto;html=1;entryX=0;entryY=0.5;entryDx=0;entryDy=0;fontSize=18;" edge="1" parent="1" source="Ts2MjXPutNlqcuylebqu-1" target="Ts2MjXPutNlqcuylebqu-3">
          <mxGeometry relative="1" as="geometry" />
        </mxCell>
        <mxCell id="Ts2MjXPutNlqcuylebqu-1" value="小店" style="rounded=1;whiteSpace=wrap;html=1;fontSize=18;" vertex="1" parent="1">
          <mxGeometry x="140" y="150" width="100" height="50" as="geometry" />
        </mxCell>
        <mxCell id="Ts2MjXPutNlqcuylebqu-12" style="edgeStyle=orthogonalEdgeStyle;rounded=0;orthogonalLoop=1;jettySize=auto;html=1;entryX=0;entryY=0.5;entryDx=0;entryDy=0;fontSize=18;" edge="1" parent="1" source="Ts2MjXPutNlqcuylebqu-2" target="Ts2MjXPutNlqcuylebqu-6">
          <mxGeometry relative="1" as="geometry" />
        </mxCell>
        <mxCell id="Ts2MjXPutNlqcuylebqu-13" style="edgeStyle=orthogonalEdgeStyle;rounded=0;orthogonalLoop=1;jettySize=auto;html=1;entryX=0;entryY=0.5;entryDx=0;entryDy=0;fontSize=18;" edge="1" parent="1" source="Ts2MjXPutNlqcuylebqu-2" target="Ts2MjXPutNlqcuylebqu-7">
          <mxGeometry relative="1" as="geometry" />
        </mxCell>
        <mxCell id="Ts2MjXPutNlqcuylebqu-2" value="小店.EP" style="rounded=1;whiteSpace=wrap;html=1;fontSize=18;" vertex="1" parent="1">
          <mxGeometry x="370" y="100" width="100" height="50" as="geometry" />
        </mxCell>
        <mxCell id="Ts2MjXPutNlqcuylebqu-3" value="小店.保险" style="rounded=1;whiteSpace=wrap;html=1;fontSize=18;" vertex="1" parent="1">
          <mxGeometry x="370" y="210" width="100" height="50" as="geometry" />
        </mxCell>
        <mxCell id="Ts2MjXPutNlqcuylebqu-6" value="小店.EP.视频课" style="rounded=1;whiteSpace=wrap;html=1;fontSize=18;" vertex="1" parent="1">
          <mxGeometry x="570" y="50" width="140" height="50" as="geometry" />
        </mxCell>
        <mxCell id="Ts2MjXPutNlqcuylebqu-7" value="小店.EP.直播课" style="rounded=1;whiteSpace=wrap;html=1;fontSize=18;" vertex="1" parent="1">
          <mxGeometry x="570" y="150" width="140" height="50" as="geometry" />
        </mxCell>
      </root>
    </mxGraphModel>
  </diagram>
  <diagram id="tVUy4MNst1mefl1mi391" name="第 6 页">
    <mxGraphModel dx="1310" dy="868" grid="1" gridSize="10" guides="1" tooltips="1" connect="1" arrows="1" fold="1" page="1" pageScale="1" pageWidth="827" pageHeight="1169" math="0" shadow="0">
      <root>
        <mxCell id="0" />
        <mxCell id="1" parent="0" />
        <mxCell id="OaFgmnhiCVUDnk-EP__C-16" value="" style="rounded=0;whiteSpace=wrap;html=1;fontSize=18;fillColor=#dae8fc;strokeColor=#6c8ebf;" vertex="1" parent="1">
          <mxGeometry x="1010" y="100" width="380" height="140" as="geometry" />
        </mxCell>
        <mxCell id="OaFgmnhiCVUDnk-EP__C-14" value="" style="rounded=0;whiteSpace=wrap;html=1;fontSize=18;fillColor=#d5e8d4;strokeColor=#82b366;" vertex="1" parent="1">
          <mxGeometry x="580" y="100" width="400" height="140" as="geometry" />
        </mxCell>
        <mxCell id="OaFgmnhiCVUDnk-EP__C-12" value="" style="rounded=0;whiteSpace=wrap;html=1;fontSize=18;fillColor=#fff2cc;strokeColor=#d6b656;" vertex="1" parent="1">
          <mxGeometry x="140" y="100" width="400" height="140" as="geometry" />
        </mxCell>
        <mxCell id="OaFgmnhiCVUDnk-EP__C-3" style="edgeStyle=orthogonalEdgeStyle;rounded=0;orthogonalLoop=1;jettySize=auto;html=1;entryX=0;entryY=0.5;entryDx=0;entryDy=0;fontSize=18;" edge="1" parent="1" source="OaFgmnhiCVUDnk-EP__C-1" target="OaFgmnhiCVUDnk-EP__C-2">
          <mxGeometry relative="1" as="geometry" />
        </mxCell>
        <mxCell id="OaFgmnhiCVUDnk-EP__C-1" value="选择&lt;br&gt;业务空间" style="rounded=0;whiteSpace=wrap;html=1;fontSize=18;" vertex="1" parent="1">
          <mxGeometry x="170" y="130" width="120" height="60" as="geometry" />
        </mxCell>
        <mxCell id="OaFgmnhiCVUDnk-EP__C-11" style="edgeStyle=orthogonalEdgeStyle;rounded=0;orthogonalLoop=1;jettySize=auto;html=1;entryX=0;entryY=0.5;entryDx=0;entryDy=0;fontSize=18;" edge="1" parent="1" source="OaFgmnhiCVUDnk-EP__C-2" target="OaFgmnhiCVUDnk-EP__C-4">
          <mxGeometry relative="1" as="geometry" />
        </mxCell>
        <mxCell id="OaFgmnhiCVUDnk-EP__C-2" value="创建/选择&lt;br&gt;业务身份" style="rounded=0;whiteSpace=wrap;html=1;fontSize=18;" vertex="1" parent="1">
          <mxGeometry x="400" y="130" width="120" height="60" as="geometry" />
        </mxCell>
        <mxCell id="OaFgmnhiCVUDnk-EP__C-6" style="edgeStyle=orthogonalEdgeStyle;rounded=0;orthogonalLoop=1;jettySize=auto;html=1;fontSize=18;entryX=0;entryY=0.5;entryDx=0;entryDy=0;" edge="1" parent="1" source="OaFgmnhiCVUDnk-EP__C-4" target="OaFgmnhiCVUDnk-EP__C-5">
          <mxGeometry relative="1" as="geometry">
            <mxPoint x="790" y="150" as="targetPoint" />
          </mxGeometry>
        </mxCell>
        <mxCell id="OaFgmnhiCVUDnk-EP__C-4" value="绑定&lt;br&gt;能力" style="rounded=0;whiteSpace=wrap;html=1;fontSize=18;" vertex="1" parent="1">
          <mxGeometry x="620" y="130" width="120" height="60" as="geometry" />
        </mxCell>
        <mxCell id="OaFgmnhiCVUDnk-EP__C-10" style="edgeStyle=orthogonalEdgeStyle;rounded=0;orthogonalLoop=1;jettySize=auto;html=1;entryX=0;entryY=0.5;entryDx=0;entryDy=0;fontSize=18;" edge="1" parent="1" source="OaFgmnhiCVUDnk-EP__C-5" target="OaFgmnhiCVUDnk-EP__C-7">
          <mxGeometry relative="1" as="geometry" />
        </mxCell>
        <mxCell id="OaFgmnhiCVUDnk-EP__C-5" value="启用&lt;br&gt;能力" style="rounded=0;whiteSpace=wrap;html=1;fontSize=18;" vertex="1" parent="1">
          <mxGeometry x="810" y="130" width="120" height="60" as="geometry" />
        </mxCell>
        <mxCell id="OaFgmnhiCVUDnk-EP__C-9" style="edgeStyle=orthogonalEdgeStyle;rounded=0;orthogonalLoop=1;jettySize=auto;html=1;entryX=0;entryY=0.5;entryDx=0;entryDy=0;fontSize=18;" edge="1" parent="1" source="OaFgmnhiCVUDnk-EP__C-7" target="OaFgmnhiCVUDnk-EP__C-8">
          <mxGeometry relative="1" as="geometry" />
        </mxCell>
        <mxCell id="OaFgmnhiCVUDnk-EP__C-7" value="工程引入&lt;br&gt;能力的SDK" style="rounded=0;whiteSpace=wrap;html=1;fontSize=18;" vertex="1" parent="1">
          <mxGeometry x="1030" y="130" width="120" height="60" as="geometry" />
        </mxCell>
        <mxCell id="OaFgmnhiCVUDnk-EP__C-8" value="调用接口" style="rounded=0;whiteSpace=wrap;html=1;fontSize=18;" vertex="1" parent="1">
          <mxGeometry x="1230" y="130" width="120" height="60" as="geometry" />
        </mxCell>
        <mxCell id="OaFgmnhiCVUDnk-EP__C-13" value="身份管理" style="text;html=1;strokeColor=none;fillColor=none;align=center;verticalAlign=middle;whiteSpace=wrap;rounded=0;fontSize=18;" vertex="1" parent="1">
          <mxGeometry x="300" y="200" width="90" height="30" as="geometry" />
        </mxCell>
        <mxCell id="OaFgmnhiCVUDnk-EP__C-15" value="能力绑定" style="text;html=1;strokeColor=none;fillColor=none;align=center;verticalAlign=middle;whiteSpace=wrap;rounded=0;fontSize=18;" vertex="1" parent="1">
          <mxGeometry x="735" y="200" width="90" height="30" as="geometry" />
        </mxCell>
        <mxCell id="OaFgmnhiCVUDnk-EP__C-17" value="能力调用" style="text;html=1;strokeColor=none;fillColor=none;align=center;verticalAlign=middle;whiteSpace=wrap;rounded=0;fontSize=18;" vertex="1" parent="1">
          <mxGeometry x="1140" y="200" width="90" height="30" as="geometry" />
        </mxCell>
      </root>
    </mxGraphModel>
  </diagram>
  <diagram id="ouXKDgCa4PkeGSdt04dg" name="第 7 页">
    <mxGraphModel dx="1310" dy="868" grid="1" gridSize="10" guides="1" tooltips="1" connect="1" arrows="1" fold="1" page="1" pageScale="1" pageWidth="827" pageHeight="1169" math="0" shadow="0">
      <root>
        <mxCell id="0" />
        <mxCell id="1" parent="0" />
        <mxCell id="nPpqp9U9NY8QteuTZ_Uo-22" value="" style="rounded=0;whiteSpace=wrap;html=1;fontSize=18;" vertex="1" parent="1">
          <mxGeometry x="180" y="650" width="680" height="220" as="geometry" />
        </mxCell>
        <mxCell id="nPpqp9U9NY8QteuTZ_Uo-16" value="" style="rounded=0;whiteSpace=wrap;html=1;fontSize=18;fillColor=#b1ddf0;strokeColor=#10739e;" vertex="1" parent="1">
          <mxGeometry x="650" y="80" width="290" height="270" as="geometry" />
        </mxCell>
        <mxCell id="nPpqp9U9NY8QteuTZ_Uo-15" value="" style="rounded=0;whiteSpace=wrap;html=1;fontSize=18;fillColor=#fad7ac;strokeColor=#b46504;" vertex="1" parent="1">
          <mxGeometry x="380" y="80" width="230" height="530" as="geometry" />
        </mxCell>
        <mxCell id="nPpqp9U9NY8QteuTZ_Uo-1" value="" style="rounded=0;whiteSpace=wrap;html=1;fontSize=18;fillColor=#b0e3e6;strokeColor=#0e8088;" vertex="1" parent="1">
          <mxGeometry x="130" y="80" width="200" height="120" as="geometry" />
        </mxCell>
        <mxCell id="nPpqp9U9NY8QteuTZ_Uo-6" style="edgeStyle=orthogonalEdgeStyle;rounded=0;orthogonalLoop=1;jettySize=auto;html=1;entryX=0.5;entryY=0;entryDx=0;entryDy=0;fontSize=18;" edge="1" parent="1" source="nPpqp9U9NY8QteuTZ_Uo-2" target="nPpqp9U9NY8QteuTZ_Uo-3">
          <mxGeometry relative="1" as="geometry" />
        </mxCell>
        <mxCell id="nPpqp9U9NY8QteuTZ_Uo-2" value="业务空间&lt;br&gt;Namespace" style="rounded=0;whiteSpace=wrap;html=1;fontSize=18;" vertex="1" parent="1">
          <mxGeometry x="270" y="110" width="120" height="60" as="geometry" />
        </mxCell>
        <mxCell id="nPpqp9U9NY8QteuTZ_Uo-7" style="edgeStyle=orthogonalEdgeStyle;rounded=0;orthogonalLoop=1;jettySize=auto;html=1;entryX=0.5;entryY=0;entryDx=0;entryDy=0;fontSize=18;" edge="1" parent="1" source="nPpqp9U9NY8QteuTZ_Uo-3" target="nPpqp9U9NY8QteuTZ_Uo-4">
          <mxGeometry relative="1" as="geometry" />
        </mxCell>
        <mxCell id="nPpqp9U9NY8QteuTZ_Uo-3" value="业务身份&lt;br&gt;Identity" style="rounded=0;whiteSpace=wrap;html=1;fontSize=18;" vertex="1" parent="1">
          <mxGeometry x="414" y="240" width="120" height="60" as="geometry" />
        </mxCell>
        <mxCell id="nPpqp9U9NY8QteuTZ_Uo-8" style="edgeStyle=orthogonalEdgeStyle;rounded=0;orthogonalLoop=1;jettySize=auto;html=1;entryX=0.5;entryY=0;entryDx=0;entryDy=0;fontSize=18;" edge="1" parent="1" source="nPpqp9U9NY8QteuTZ_Uo-4" target="nPpqp9U9NY8QteuTZ_Uo-5">
          <mxGeometry relative="1" as="geometry" />
        </mxCell>
        <mxCell id="nPpqp9U9NY8QteuTZ_Uo-4" value="业务流程绑定&lt;br&gt;Bind" style="rounded=0;whiteSpace=wrap;html=1;fontSize=18;" vertex="1" parent="1">
          <mxGeometry x="414" y="380" width="120" height="60" as="geometry" />
        </mxCell>
        <mxCell id="nPpqp9U9NY8QteuTZ_Uo-5" value="发布&lt;br&gt;Publish" style="rounded=0;whiteSpace=wrap;html=1;fontSize=18;" vertex="1" parent="1">
          <mxGeometry x="414" y="530" width="120" height="60" as="geometry" />
        </mxCell>
        <mxCell id="nPpqp9U9NY8QteuTZ_Uo-14" style="rounded=0;orthogonalLoop=1;jettySize=auto;html=1;fontSize=18;entryX=0.5;entryY=0;entryDx=0;entryDy=0;exitX=0.5;exitY=1;exitDx=0;exitDy=0;edgeStyle=orthogonalEdgeStyle;" edge="1" parent="1" source="nPpqp9U9NY8QteuTZ_Uo-9" target="nPpqp9U9NY8QteuTZ_Uo-4">
          <mxGeometry relative="1" as="geometry">
            <mxPoint x="490" y="350" as="targetPoint" />
          </mxGeometry>
        </mxCell>
        <mxCell id="nPpqp9U9NY8QteuTZ_Uo-9" value="能力管理&lt;br&gt;Process" style="rounded=0;whiteSpace=wrap;html=1;fontSize=18;" vertex="1" parent="1">
          <mxGeometry x="580" y="250" width="120" height="60" as="geometry" />
        </mxCell>
        <mxCell id="nPpqp9U9NY8QteuTZ_Uo-12" style="edgeStyle=orthogonalEdgeStyle;rounded=0;orthogonalLoop=1;jettySize=auto;html=1;entryX=0.5;entryY=0;entryDx=0;entryDy=0;fontSize=18;" edge="1" parent="1" source="nPpqp9U9NY8QteuTZ_Uo-10" target="nPpqp9U9NY8QteuTZ_Uo-11">
          <mxGeometry relative="1" as="geometry" />
        </mxCell>
        <mxCell id="nPpqp9U9NY8QteuTZ_Uo-10" value="IDL管理&lt;br&gt;idl" style="rounded=0;whiteSpace=wrap;html=1;fontSize=18;" vertex="1" parent="1">
          <mxGeometry x="780" y="140" width="120" height="60" as="geometry" />
        </mxCell>
        <mxCell id="nPpqp9U9NY8QteuTZ_Uo-13" style="edgeStyle=orthogonalEdgeStyle;rounded=0;orthogonalLoop=1;jettySize=auto;html=1;entryX=1;entryY=0.5;entryDx=0;entryDy=0;fontSize=18;" edge="1" parent="1" source="nPpqp9U9NY8QteuTZ_Uo-11" target="nPpqp9U9NY8QteuTZ_Uo-9">
          <mxGeometry relative="1" as="geometry" />
        </mxCell>
        <mxCell id="nPpqp9U9NY8QteuTZ_Uo-11" value="SDK管理&lt;br&gt;sdk" style="rounded=0;whiteSpace=wrap;html=1;fontSize=18;" vertex="1" parent="1">
          <mxGeometry x="780" y="250" width="120" height="60" as="geometry" />
        </mxCell>
        <mxCell id="nPpqp9U9NY8QteuTZ_Uo-17" value="平台方" style="text;html=1;strokeColor=none;fillColor=none;align=center;verticalAlign=middle;whiteSpace=wrap;rounded=0;fontSize=18;" vertex="1" parent="1">
          <mxGeometry x="140" y="90" width="60" height="30" as="geometry" />
        </mxCell>
        <mxCell id="nPpqp9U9NY8QteuTZ_Uo-18" value="业务方" style="text;html=1;strokeColor=none;fillColor=none;align=center;verticalAlign=middle;whiteSpace=wrap;rounded=0;fontSize=18;" vertex="1" parent="1">
          <mxGeometry x="520" y="90" width="60" height="30" as="geometry" />
        </mxCell>
        <mxCell id="nPpqp9U9NY8QteuTZ_Uo-19" value="能力方" style="text;html=1;strokeColor=none;fillColor=none;align=center;verticalAlign=middle;whiteSpace=wrap;rounded=0;fontSize=18;" vertex="1" parent="1">
          <mxGeometry x="860" y="90" width="60" height="30" as="geometry" />
        </mxCell>
        <mxCell id="nPpqp9U9NY8QteuTZ_Uo-21" value="BMP-SDK" style="rounded=0;whiteSpace=wrap;html=1;fontSize=18;fillColor=#ffff88;strokeColor=#36393d;" vertex="1" parent="1">
          <mxGeometry x="390" y="700" width="210" height="100" as="geometry" />
        </mxCell>
        <mxCell id="nPpqp9U9NY8QteuTZ_Uo-23" value="业务网关" style="text;html=1;strokeColor=none;fillColor=none;align=center;verticalAlign=middle;whiteSpace=wrap;rounded=0;fontSize=18;" vertex="1" parent="1">
          <mxGeometry x="740" y="820" width="80" height="30" as="geometry" />
        </mxCell>
      </root>
    </mxGraphModel>
  </diagram>
  <diagram id="iOzLbYg8O0mHQJdoxTft" name="第 8 页">
    <mxGraphModel dx="786" dy="464" grid="1" gridSize="10" guides="1" tooltips="1" connect="1" arrows="1" fold="1" page="1" pageScale="1" pageWidth="827" pageHeight="1169" math="0" shadow="0">
      <root>
        <mxCell id="0" />
        <mxCell id="1" parent="0" />
        <mxCell id="355VyhgiYJv_A_TUcBZ4-1" value="" style="rounded=1;whiteSpace=wrap;html=1;fontSize=18;" parent="1" vertex="1">
          <mxGeometry x="270" y="560" width="190" height="430" as="geometry" />
        </mxCell>
        <mxCell id="355VyhgiYJv_A_TUcBZ4-40" style="edgeStyle=orthogonalEdgeStyle;rounded=0;orthogonalLoop=1;jettySize=auto;html=1;fontSize=18;entryX=1;entryY=0.5;entryDx=0;entryDy=0;" parent="1" source="355VyhgiYJv_A_TUcBZ4-2" target="355VyhgiYJv_A_TUcBZ4-11" edge="1">
          <mxGeometry relative="1" as="geometry">
            <mxPoint x="790" y="300" as="targetPoint" />
            <Array as="points">
              <mxPoint x="1100" y="695" />
              <mxPoint x="1100" y="295" />
            </Array>
          </mxGeometry>
        </mxCell>
        <mxCell id="355VyhgiYJv_A_TUcBZ4-42" value="扩展点注册" style="edgeLabel;html=1;align=center;verticalAlign=middle;resizable=0;points=[];fontSize=18;" parent="355VyhgiYJv_A_TUcBZ4-40" vertex="1" connectable="0">
          <mxGeometry x="-0.3383" y="-1" relative="1" as="geometry">
            <mxPoint y="1" as="offset" />
          </mxGeometry>
        </mxCell>
        <mxCell id="355VyhgiYJv_A_TUcBZ4-2" value="" style="rounded=0;whiteSpace=wrap;html=1;fontSize=18;" parent="1" vertex="1">
          <mxGeometry x="750" y="630" width="300" height="130" as="geometry" />
        </mxCell>
        <mxCell id="355VyhgiYJv_A_TUcBZ4-3" style="rounded=0;orthogonalLoop=1;jettySize=auto;html=1;fontSize=18;" parent="1" source="355VyhgiYJv_A_TUcBZ4-5" target="355VyhgiYJv_A_TUcBZ4-11" edge="1">
          <mxGeometry relative="1" as="geometry" />
        </mxCell>
        <mxCell id="355VyhgiYJv_A_TUcBZ4-4" value="下单" style="edgeLabel;html=1;align=center;verticalAlign=middle;resizable=0;points=[];fontSize=18;" parent="355VyhgiYJv_A_TUcBZ4-3" vertex="1" connectable="0">
          <mxGeometry x="-0.1053" y="-1" relative="1" as="geometry">
            <mxPoint as="offset" />
          </mxGeometry>
        </mxCell>
        <mxCell id="355VyhgiYJv_A_TUcBZ4-5" value="业务A" style="rounded=1;whiteSpace=wrap;html=1;fontSize=18;" parent="1" vertex="1">
          <mxGeometry x="350" y="140" width="110" height="50" as="geometry" />
        </mxCell>
        <mxCell id="355VyhgiYJv_A_TUcBZ4-6" style="rounded=0;orthogonalLoop=1;jettySize=auto;html=1;entryX=0.5;entryY=0;entryDx=0;entryDy=0;fontSize=18;" parent="1" source="355VyhgiYJv_A_TUcBZ4-9" target="355VyhgiYJv_A_TUcBZ4-11" edge="1">
          <mxGeometry relative="1" as="geometry" />
        </mxCell>
        <mxCell id="355VyhgiYJv_A_TUcBZ4-7" value="下单" style="edgeLabel;html=1;align=center;verticalAlign=middle;resizable=0;points=[];fontSize=18;" parent="355VyhgiYJv_A_TUcBZ4-6" vertex="1" connectable="0">
          <mxGeometry x="-0.0392" y="2" relative="1" as="geometry">
            <mxPoint as="offset" />
          </mxGeometry>
        </mxCell>
        <mxCell id="355VyhgiYJv_A_TUcBZ4-9" value="业务B" style="rounded=1;whiteSpace=wrap;html=1;fontSize=18;" parent="1" vertex="1">
          <mxGeometry x="630" y="140" width="110" height="50" as="geometry" />
        </mxCell>
        <mxCell id="355VyhgiYJv_A_TUcBZ4-11" value="业务中台网关" style="rounded=1;whiteSpace=wrap;html=1;fontSize=18;" parent="1" vertex="1">
          <mxGeometry x="350" y="270" width="400" height="50" as="geometry" />
        </mxCell>
        <mxCell id="355VyhgiYJv_A_TUcBZ4-13" value="下单" style="edgeStyle=none;rounded=0;orthogonalLoop=1;jettySize=auto;html=1;entryX=0.5;entryY=0;entryDx=0;entryDy=0;entryPerimeter=0;fontSize=18;exitX=0.5;exitY=1;exitDx=0;exitDy=0;" parent="1" source="355VyhgiYJv_A_TUcBZ4-11" target="355VyhgiYJv_A_TUcBZ4-15" edge="1">
          <mxGeometry relative="1" as="geometry">
            <mxPoint x="486.304347826087" y="380" as="sourcePoint" />
          </mxGeometry>
        </mxCell>
        <mxCell id="355VyhgiYJv_A_TUcBZ4-15" value="交易" style="shape=cylinder3;whiteSpace=wrap;html=1;boundedLbl=1;backgroundOutline=1;size=15;fontSize=18;" parent="1" vertex="1">
          <mxGeometry x="320" y="470" width="90" height="60" as="geometry" />
        </mxCell>
        <mxCell id="355VyhgiYJv_A_TUcBZ4-16" value="履约" style="shape=cylinder3;whiteSpace=wrap;html=1;boundedLbl=1;backgroundOutline=1;size=15;fontSize=18;" parent="1" vertex="1">
          <mxGeometry x="450" y="470" width="90" height="60" as="geometry" />
        </mxCell>
        <mxCell id="355VyhgiYJv_A_TUcBZ4-17" value="售后" style="shape=cylinder3;whiteSpace=wrap;html=1;boundedLbl=1;backgroundOutline=1;size=15;fontSize=18;" parent="1" vertex="1">
          <mxGeometry x="580" y="470" width="90" height="60" as="geometry" />
        </mxCell>
        <mxCell id="355VyhgiYJv_A_TUcBZ4-18" value="商品" style="shape=cylinder3;whiteSpace=wrap;html=1;boundedLbl=1;backgroundOutline=1;size=15;fontSize=18;" parent="1" vertex="1">
          <mxGeometry x="700" y="470" width="90" height="60" as="geometry" />
        </mxCell>
        <mxCell id="355VyhgiYJv_A_TUcBZ4-19" value="登陆态校验" style="rounded=0;whiteSpace=wrap;html=1;fontSize=18;" parent="1" vertex="1">
          <mxGeometry x="305" y="580" width="120" height="40" as="geometry" />
        </mxCell>
        <mxCell id="355VyhgiYJv_A_TUcBZ4-20" style="edgeStyle=none;rounded=0;orthogonalLoop=1;jettySize=auto;html=1;entryX=0;entryY=0.5;entryDx=0;entryDy=0;fontSize=18;" parent="1" source="355VyhgiYJv_A_TUcBZ4-22" target="355VyhgiYJv_A_TUcBZ4-2" edge="1">
          <mxGeometry relative="1" as="geometry" />
        </mxCell>
        <mxCell id="355VyhgiYJv_A_TUcBZ4-21" style="edgeStyle=none;rounded=0;orthogonalLoop=1;jettySize=auto;html=1;entryX=0;entryY=0.406;entryDx=0;entryDy=0;entryPerimeter=0;fontSize=18;" parent="1" source="355VyhgiYJv_A_TUcBZ4-22" target="355VyhgiYJv_A_TUcBZ4-34" edge="1">
          <mxGeometry relative="1" as="geometry" />
        </mxCell>
        <mxCell id="355VyhgiYJv_A_TUcBZ4-22" value="商品校验" style="rounded=0;whiteSpace=wrap;html=1;fontSize=18;fillColor=#d5e8d4;strokeColor=#82b366;" parent="1" vertex="1">
          <mxGeometry x="305" y="640" width="120" height="40" as="geometry" />
        </mxCell>
        <mxCell id="355VyhgiYJv_A_TUcBZ4-23" value="商家校验" style="rounded=0;whiteSpace=wrap;html=1;fontSize=18;" parent="1" vertex="1">
          <mxGeometry x="305" y="700" width="120" height="40" as="geometry" />
        </mxCell>
        <mxCell id="355VyhgiYJv_A_TUcBZ4-24" value="发货时效校验" style="rounded=0;whiteSpace=wrap;html=1;fontSize=18;" parent="1" vertex="1">
          <mxGeometry x="305" y="760" width="120" height="40" as="geometry" />
        </mxCell>
        <mxCell id="355VyhgiYJv_A_TUcBZ4-25" style="edgeStyle=none;rounded=0;orthogonalLoop=1;jettySize=auto;html=1;entryX=0;entryY=0.5;entryDx=0;entryDy=0;fontSize=18;" parent="1" source="355VyhgiYJv_A_TUcBZ4-27" target="355VyhgiYJv_A_TUcBZ4-2" edge="1">
          <mxGeometry relative="1" as="geometry" />
        </mxCell>
        <mxCell id="355VyhgiYJv_A_TUcBZ4-26" style="edgeStyle=none;rounded=0;orthogonalLoop=1;jettySize=auto;html=1;entryX=-0.006;entryY=0.406;entryDx=0;entryDy=0;entryPerimeter=0;fontSize=18;" parent="1" source="355VyhgiYJv_A_TUcBZ4-27" target="355VyhgiYJv_A_TUcBZ4-34" edge="1">
          <mxGeometry relative="1" as="geometry" />
        </mxCell>
        <mxCell id="355VyhgiYJv_A_TUcBZ4-27" value="库存校验" style="rounded=0;whiteSpace=wrap;html=1;fontSize=18;fillColor=#d5e8d4;strokeColor=#82b366;" parent="1" vertex="1">
          <mxGeometry x="305" y="820" width="120" height="40" as="geometry" />
        </mxCell>
        <mxCell id="355VyhgiYJv_A_TUcBZ4-28" value="限购校验" style="rounded=0;whiteSpace=wrap;html=1;fontSize=18;" parent="1" vertex="1">
          <mxGeometry x="305" y="880" width="120" height="40" as="geometry" />
        </mxCell>
        <mxCell id="355VyhgiYJv_A_TUcBZ4-29" value="地址校验" style="rounded=0;whiteSpace=wrap;html=1;fontSize=18;" parent="1" vertex="1">
          <mxGeometry x="305" y="940" width="120" height="40" as="geometry" />
        </mxCell>
        <mxCell id="355VyhgiYJv_A_TUcBZ4-30" value="CreateOrderExtPoint.xxx" style="rounded=0;whiteSpace=wrap;html=1;fontSize=18;fillColor=#f5f5f5;fontColor=#333333;strokeColor=#666666;" parent="1" vertex="1">
          <mxGeometry x="780" y="650" width="240" height="30" as="geometry" />
        </mxCell>
        <mxCell id="355VyhgiYJv_A_TUcBZ4-31" value="CheckProduct()" style="rounded=0;whiteSpace=wrap;html=1;fontSize=18;" parent="1" vertex="1">
          <mxGeometry x="780" y="680" width="240" height="30" as="geometry" />
        </mxCell>
        <mxCell id="355VyhgiYJv_A_TUcBZ4-32" value="CheckStock()" style="rounded=0;whiteSpace=wrap;html=1;fontSize=18;" parent="1" vertex="1">
          <mxGeometry x="780" y="710" width="240" height="30" as="geometry" />
        </mxCell>
        <mxCell id="355VyhgiYJv_A_TUcBZ4-33" value="A业务插件扩展包" style="rounded=0;whiteSpace=wrap;html=1;fontSize=18;" parent="1" vertex="1">
          <mxGeometry x="750" y="600" width="160" height="30" as="geometry" />
        </mxCell>
        <mxCell id="355VyhgiYJv_A_TUcBZ4-41" style="edgeStyle=orthogonalEdgeStyle;rounded=0;orthogonalLoop=1;jettySize=auto;html=1;entryX=1;entryY=0.5;entryDx=0;entryDy=0;fontSize=18;" parent="1" source="355VyhgiYJv_A_TUcBZ4-34" target="355VyhgiYJv_A_TUcBZ4-11" edge="1">
          <mxGeometry relative="1" as="geometry">
            <Array as="points">
              <mxPoint x="1210" y="905" />
              <mxPoint x="1210" y="295" />
            </Array>
          </mxGeometry>
        </mxCell>
        <mxCell id="355VyhgiYJv_A_TUcBZ4-43" value="扩展点注册" style="edgeLabel;html=1;align=center;verticalAlign=middle;resizable=0;points=[];fontSize=18;" parent="355VyhgiYJv_A_TUcBZ4-41" vertex="1" connectable="0">
          <mxGeometry x="-0.2323" y="-1" relative="1" as="geometry">
            <mxPoint as="offset" />
          </mxGeometry>
        </mxCell>
        <mxCell id="355VyhgiYJv_A_TUcBZ4-34" value="" style="rounded=0;whiteSpace=wrap;html=1;fontSize=18;" parent="1" vertex="1">
          <mxGeometry x="740" y="840" width="300" height="130" as="geometry" />
        </mxCell>
        <mxCell id="355VyhgiYJv_A_TUcBZ4-35" value="CreateOrderExtPoint.xxx" style="rounded=0;whiteSpace=wrap;html=1;fontSize=18;fillColor=#f5f5f5;fontColor=#333333;strokeColor=#666666;" parent="1" vertex="1">
          <mxGeometry x="770" y="860" width="240" height="30" as="geometry" />
        </mxCell>
        <mxCell id="355VyhgiYJv_A_TUcBZ4-36" value="CheckProduct()" style="rounded=0;whiteSpace=wrap;html=1;fontSize=18;" parent="1" vertex="1">
          <mxGeometry x="770" y="890" width="240" height="30" as="geometry" />
        </mxCell>
        <mxCell id="355VyhgiYJv_A_TUcBZ4-37" value="CheckStock()" style="rounded=0;whiteSpace=wrap;html=1;fontSize=18;" parent="1" vertex="1">
          <mxGeometry x="770" y="920" width="240" height="30" as="geometry" />
        </mxCell>
        <mxCell id="355VyhgiYJv_A_TUcBZ4-38" value="B业务插件扩展包" style="rounded=0;whiteSpace=wrap;html=1;fontSize=18;" parent="1" vertex="1">
          <mxGeometry x="740" y="810" width="160" height="30" as="geometry" />
        </mxCell>
        <mxCell id="355VyhgiYJv_A_TUcBZ4-39" value="CreateOrder" style="text;html=1;strokeColor=none;fillColor=none;align=center;verticalAlign=middle;whiteSpace=wrap;rounded=0;fontSize=18;" parent="1" vertex="1">
          <mxGeometry x="110" y="730" width="110" height="30" as="geometry" />
        </mxCell>
      </root>
    </mxGraphModel>
  </diagram>
  <diagram id="v8T6Rk0nv-mcudcpyKx2" name="第 9 页">
    <mxGraphModel dx="786" dy="464" grid="1" gridSize="10" guides="1" tooltips="1" connect="1" arrows="1" fold="1" page="1" pageScale="1" pageWidth="827" pageHeight="1169" math="0" shadow="0">
      <root>
        <mxCell id="0" />
        <mxCell id="1" parent="0" />
        <mxCell id="e6HTWMqlXNh-KGvoDEbI-66" value="" style="rounded=0;whiteSpace=wrap;html=1;fontSize=14;fillColor=#d5e8d4;strokeColor=#82b366;" parent="1" vertex="1">
          <mxGeometry x="222.5" y="610" width="920" height="490" as="geometry" />
        </mxCell>
        <mxCell id="e6HTWMqlXNh-KGvoDEbI-55" value="" style="rounded=1;whiteSpace=wrap;html=1;fontSize=14;" parent="1" vertex="1">
          <mxGeometry x="264" y="640" width="812" height="80" as="geometry" />
        </mxCell>
        <mxCell id="e6HTWMqlXNh-KGvoDEbI-53" value="" style="rounded=1;whiteSpace=wrap;html=1;fontSize=14;" parent="1" vertex="1">
          <mxGeometry x="264" y="790" width="812" height="90" as="geometry" />
        </mxCell>
        <mxCell id="e6HTWMqlXNh-KGvoDEbI-46" value="" style="rounded=1;whiteSpace=wrap;html=1;fontSize=14;" parent="1" vertex="1">
          <mxGeometry x="271" y="940" width="790" height="107.5" as="geometry" />
        </mxCell>
        <mxCell id="e6HTWMqlXNh-KGvoDEbI-9" value="" style="rounded=0;whiteSpace=wrap;html=1;fontSize=14;dashed=1;" parent="1" vertex="1">
          <mxGeometry x="40" y="310" width="355" height="145" as="geometry" />
        </mxCell>
        <mxCell id="e6HTWMqlXNh-KGvoDEbI-1" value="业务目标" style="rounded=0;whiteSpace=wrap;html=1;fontSize=18;" parent="1" vertex="1">
          <mxGeometry x="625" y="30" width="120" height="60" as="geometry" />
        </mxCell>
        <mxCell id="e6HTWMqlXNh-KGvoDEbI-25" style="rounded=0;orthogonalLoop=1;jettySize=auto;html=1;fontSize=14;exitX=0.5;exitY=1;exitDx=0;exitDy=0;" parent="1" source="e6HTWMqlXNh-KGvoDEbI-2" target="e6HTWMqlXNh-KGvoDEbI-23" edge="1">
          <mxGeometry relative="1" as="geometry" />
        </mxCell>
        <mxCell id="e6HTWMqlXNh-KGvoDEbI-26" style="edgeStyle=none;rounded=0;orthogonalLoop=1;jettySize=auto;html=1;entryX=0.539;entryY=0.002;entryDx=0;entryDy=0;entryPerimeter=0;fontSize=14;" parent="1" source="e6HTWMqlXNh-KGvoDEbI-2" target="e6HTWMqlXNh-KGvoDEbI-10" edge="1">
          <mxGeometry relative="1" as="geometry" />
        </mxCell>
        <mxCell id="e6HTWMqlXNh-KGvoDEbI-27" style="edgeStyle=none;rounded=0;orthogonalLoop=1;jettySize=auto;html=1;entryX=0.543;entryY=-0.2;entryDx=0;entryDy=0;entryPerimeter=0;fontSize=14;exitX=0.579;exitY=1.046;exitDx=0;exitDy=0;exitPerimeter=0;" parent="1" source="e6HTWMqlXNh-KGvoDEbI-2" target="e6HTWMqlXNh-KGvoDEbI-24" edge="1">
          <mxGeometry relative="1" as="geometry" />
        </mxCell>
        <mxCell id="e6HTWMqlXNh-KGvoDEbI-2" value="业务需求" style="rounded=0;whiteSpace=wrap;html=1;fontSize=18;" parent="1" vertex="1">
          <mxGeometry x="625" y="170" width="120" height="60" as="geometry" />
        </mxCell>
        <mxCell id="e6HTWMqlXNh-KGvoDEbI-3" value="" style="shape=flexArrow;endArrow=classic;html=1;rounded=0;fontSize=18;" parent="1" edge="1">
          <mxGeometry width="50" height="50" relative="1" as="geometry">
            <mxPoint x="684.47" y="90" as="sourcePoint" />
            <mxPoint x="684" y="170" as="targetPoint" />
          </mxGeometry>
        </mxCell>
        <mxCell id="e6HTWMqlXNh-KGvoDEbI-4" value="中台产品拆解&amp;amp;能力复用" style="text;html=1;strokeColor=none;fillColor=none;align=center;verticalAlign=middle;whiteSpace=wrap;rounded=0;fontSize=18;" parent="1" vertex="1">
          <mxGeometry x="715" y="110" width="200" height="30" as="geometry" />
        </mxCell>
        <mxCell id="e6HTWMqlXNh-KGvoDEbI-5" value="&lt;font style=&quot;font-size: 14px;&quot;&gt;业务活动&lt;/font&gt;" style="ellipse;whiteSpace=wrap;html=1;fontSize=18;fillColor=#1ba1e2;fontColor=#ffffff;strokeColor=#006EAF;" parent="1" vertex="1">
          <mxGeometry x="65" y="360" width="70" height="70" as="geometry" />
        </mxCell>
        <mxCell id="e6HTWMqlXNh-KGvoDEbI-6" value="&lt;font style=&quot;font-size: 14px;&quot;&gt;业务活动&lt;/font&gt;" style="ellipse;whiteSpace=wrap;html=1;fontSize=18;fillColor=#1ba1e2;fontColor=#ffffff;strokeColor=#006EAF;" parent="1" vertex="1">
          <mxGeometry x="145" y="360" width="70" height="70" as="geometry" />
        </mxCell>
        <mxCell id="e6HTWMqlXNh-KGvoDEbI-7" value="&lt;font style=&quot;font-size: 14px;&quot;&gt;业务活动&lt;/font&gt;" style="ellipse;whiteSpace=wrap;html=1;fontSize=18;fillColor=#1ba1e2;fontColor=#ffffff;strokeColor=#006EAF;" parent="1" vertex="1">
          <mxGeometry x="225" y="360" width="70" height="70" as="geometry" />
        </mxCell>
        <mxCell id="e6HTWMqlXNh-KGvoDEbI-8" value="&lt;font style=&quot;font-size: 14px;&quot;&gt;业务活动&lt;/font&gt;" style="ellipse;whiteSpace=wrap;html=1;fontSize=18;fillColor=#1ba1e2;fontColor=#ffffff;strokeColor=#006EAF;" parent="1" vertex="1">
          <mxGeometry x="305" y="360" width="70" height="70" as="geometry" />
        </mxCell>
        <mxCell id="e6HTWMqlXNh-KGvoDEbI-10" value="" style="rounded=0;whiteSpace=wrap;html=1;fontSize=14;dashed=1;" parent="1" vertex="1">
          <mxGeometry x="450" y="310" width="440" height="145" as="geometry" />
        </mxCell>
        <mxCell id="e6HTWMqlXNh-KGvoDEbI-58" value="业务能力迭代提升" style="edgeStyle=none;rounded=0;orthogonalLoop=1;jettySize=auto;html=1;entryX=0.5;entryY=0;entryDx=0;entryDy=0;fontSize=14;" parent="1" source="e6HTWMqlXNh-KGvoDEbI-11" target="e6HTWMqlXNh-KGvoDEbI-30" edge="1">
          <mxGeometry relative="1" as="geometry" />
        </mxCell>
        <mxCell id="e6HTWMqlXNh-KGvoDEbI-60" style="edgeStyle=none;rounded=0;orthogonalLoop=1;jettySize=auto;html=1;entryX=0.5;entryY=0;entryDx=0;entryDy=0;fontSize=14;" parent="1" source="e6HTWMqlXNh-KGvoDEbI-11" target="e6HTWMqlXNh-KGvoDEbI-31" edge="1">
          <mxGeometry relative="1" as="geometry" />
        </mxCell>
        <mxCell id="e6HTWMqlXNh-KGvoDEbI-61" value="通用业务能力沉淀" style="edgeLabel;html=1;align=center;verticalAlign=middle;resizable=0;points=[];fontSize=14;" parent="e6HTWMqlXNh-KGvoDEbI-60" vertex="1" connectable="0">
          <mxGeometry x="0.2425" y="3" relative="1" as="geometry">
            <mxPoint x="-1" as="offset" />
          </mxGeometry>
        </mxCell>
        <mxCell id="e6HTWMqlXNh-KGvoDEbI-11" value="&lt;font style=&quot;font-size: 14px;&quot;&gt;提单页&lt;/font&gt;" style="ellipse;whiteSpace=wrap;html=1;fontSize=18;fillColor=#1ba1e2;fontColor=#ffffff;strokeColor=#006EAF;" parent="1" vertex="1">
          <mxGeometry x="475" y="360" width="70" height="70" as="geometry" />
        </mxCell>
        <mxCell id="e6HTWMqlXNh-KGvoDEbI-65" style="edgeStyle=none;rounded=0;orthogonalLoop=1;jettySize=auto;html=1;entryX=0.622;entryY=0.006;entryDx=0;entryDy=0;entryPerimeter=0;fontSize=14;" parent="1" source="e6HTWMqlXNh-KGvoDEbI-12" target="e6HTWMqlXNh-KGvoDEbI-32" edge="1">
          <mxGeometry relative="1" as="geometry" />
        </mxCell>
        <mxCell id="e6HTWMqlXNh-KGvoDEbI-12" value="&lt;font style=&quot;font-size: 14px;&quot;&gt;下单&lt;/font&gt;" style="ellipse;whiteSpace=wrap;html=1;fontSize=18;fillColor=#1ba1e2;fontColor=#ffffff;strokeColor=#006EAF;" parent="1" vertex="1">
          <mxGeometry x="555" y="360" width="70" height="70" as="geometry" />
        </mxCell>
        <mxCell id="e6HTWMqlXNh-KGvoDEbI-13" value="&lt;font style=&quot;font-size: 14px;&quot;&gt;支付&lt;/font&gt;" style="ellipse;whiteSpace=wrap;html=1;fontSize=18;fillColor=#1ba1e2;fontColor=#ffffff;strokeColor=#006EAF;" parent="1" vertex="1">
          <mxGeometry x="635" y="360" width="70" height="70" as="geometry" />
        </mxCell>
        <mxCell id="e6HTWMqlXNh-KGvoDEbI-14" value="&lt;font style=&quot;font-size: 14px;&quot;&gt;订单查看&lt;/font&gt;" style="ellipse;whiteSpace=wrap;html=1;fontSize=18;fillColor=#1ba1e2;fontColor=#ffffff;strokeColor=#006EAF;" parent="1" vertex="1">
          <mxGeometry x="715" y="360" width="70" height="70" as="geometry" />
        </mxCell>
        <mxCell id="e6HTWMqlXNh-KGvoDEbI-15" value="&lt;font style=&quot;font-size: 14px;&quot;&gt;订单操作&lt;/font&gt;" style="ellipse;whiteSpace=wrap;html=1;fontSize=18;fillColor=#1ba1e2;fontColor=#ffffff;strokeColor=#006EAF;" parent="1" vertex="1">
          <mxGeometry x="800" y="360" width="70" height="70" as="geometry" />
        </mxCell>
        <mxCell id="e6HTWMqlXNh-KGvoDEbI-16" value="" style="rounded=0;whiteSpace=wrap;html=1;fontSize=14;dashed=1;" parent="1" vertex="1">
          <mxGeometry x="930" y="310" width="260" height="145" as="geometry" />
        </mxCell>
        <mxCell id="e6HTWMqlXNh-KGvoDEbI-17" value="&lt;font style=&quot;font-size: 14px;&quot;&gt;业务活动&lt;/font&gt;" style="ellipse;whiteSpace=wrap;html=1;fontSize=18;fillColor=#1ba1e2;fontColor=#ffffff;strokeColor=#006EAF;" parent="1" vertex="1">
          <mxGeometry x="955" y="360" width="70" height="70" as="geometry" />
        </mxCell>
        <mxCell id="e6HTWMqlXNh-KGvoDEbI-18" value="&lt;span style=&quot;font-size: 14px;&quot;&gt;...&lt;/span&gt;" style="ellipse;whiteSpace=wrap;html=1;fontSize=18;fillColor=#1ba1e2;fontColor=#ffffff;strokeColor=#006EAF;" parent="1" vertex="1">
          <mxGeometry x="1035" y="360" width="70" height="70" as="geometry" />
        </mxCell>
        <mxCell id="e6HTWMqlXNh-KGvoDEbI-22" value="商业能力：" style="text;html=1;strokeColor=none;fillColor=none;align=center;verticalAlign=middle;whiteSpace=wrap;rounded=0;dashed=1;fontSize=14;" parent="1" vertex="1">
          <mxGeometry x="635" y="320" width="95" height="30" as="geometry" />
        </mxCell>
        <mxCell id="e6HTWMqlXNh-KGvoDEbI-23" value="商业能力（示意：定金预售交易）" style="text;html=1;strokeColor=none;fillColor=none;align=center;verticalAlign=middle;whiteSpace=wrap;rounded=0;dashed=1;fontSize=14;" parent="1" vertex="1">
          <mxGeometry x="120" y="320" width="220" height="30" as="geometry" />
        </mxCell>
        <mxCell id="e6HTWMqlXNh-KGvoDEbI-24" value="商业能力（示意：周期购交易）" style="text;html=1;strokeColor=none;fillColor=none;align=center;verticalAlign=middle;whiteSpace=wrap;rounded=0;dashed=1;fontSize=14;" parent="1" vertex="1">
          <mxGeometry x="955" y="320" width="220" height="30" as="geometry" />
        </mxCell>
        <mxCell id="e6HTWMqlXNh-KGvoDEbI-28" value="产品流程" style="rounded=0;whiteSpace=wrap;html=1;fontSize=14;" parent="1" vertex="1">
          <mxGeometry x="361" y="660" width="95" height="40" as="geometry" />
        </mxCell>
        <mxCell id="e6HTWMqlXNh-KGvoDEbI-29" value="产品流程" style="rounded=0;whiteSpace=wrap;html=1;fontSize=14;" parent="1" vertex="1">
          <mxGeometry x="486" y="660" width="95" height="40" as="geometry" />
        </mxCell>
        <mxCell id="e6HTWMqlXNh-KGvoDEbI-59" style="edgeStyle=none;rounded=0;orthogonalLoop=1;jettySize=auto;html=1;entryX=0.5;entryY=0;entryDx=0;entryDy=0;fontSize=14;" parent="1" source="e6HTWMqlXNh-KGvoDEbI-30" target="e6HTWMqlXNh-KGvoDEbI-37" edge="1">
          <mxGeometry relative="1" as="geometry" />
        </mxCell>
        <mxCell id="e6HTWMqlXNh-KGvoDEbI-30" value="提单页渲染" style="rounded=0;whiteSpace=wrap;html=1;fontSize=14;" parent="1" vertex="1">
          <mxGeometry x="606" y="660" width="95" height="40" as="geometry" />
        </mxCell>
        <mxCell id="e6HTWMqlXNh-KGvoDEbI-62" style="edgeStyle=none;rounded=0;orthogonalLoop=1;jettySize=auto;html=1;entryX=0.5;entryY=0;entryDx=0;entryDy=0;fontSize=14;" parent="1" source="e6HTWMqlXNh-KGvoDEbI-31" target="e6HTWMqlXNh-KGvoDEbI-38" edge="1">
          <mxGeometry relative="1" as="geometry" />
        </mxCell>
        <mxCell id="e6HTWMqlXNh-KGvoDEbI-31" value="提单页编辑" style="rounded=0;whiteSpace=wrap;html=1;fontSize=14;" parent="1" vertex="1">
          <mxGeometry x="726" y="660" width="95" height="40" as="geometry" />
        </mxCell>
        <mxCell id="e6HTWMqlXNh-KGvoDEbI-63" style="edgeStyle=none;rounded=0;orthogonalLoop=1;jettySize=auto;html=1;entryX=0.5;entryY=0;entryDx=0;entryDy=0;fontSize=14;" parent="1" source="e6HTWMqlXNh-KGvoDEbI-32" target="e6HTWMqlXNh-KGvoDEbI-39" edge="1">
          <mxGeometry relative="1" as="geometry" />
        </mxCell>
        <mxCell id="e6HTWMqlXNh-KGvoDEbI-32" value="订单创建" style="rounded=0;whiteSpace=wrap;html=1;fontSize=14;" parent="1" vertex="1">
          <mxGeometry x="846" y="660" width="95" height="40" as="geometry" />
        </mxCell>
        <mxCell id="e6HTWMqlXNh-KGvoDEbI-33" value="..." style="rounded=0;whiteSpace=wrap;html=1;fontSize=14;" parent="1" vertex="1">
          <mxGeometry x="961" y="660" width="95" height="40" as="geometry" />
        </mxCell>
        <mxCell id="e6HTWMqlXNh-KGvoDEbI-34" value="产品&lt;br&gt;流程" style="text;html=1;strokeColor=none;fillColor=none;align=center;verticalAlign=middle;whiteSpace=wrap;rounded=0;fontSize=14;" parent="1" vertex="1">
          <mxGeometry x="271" y="665" width="60" height="30" as="geometry" />
        </mxCell>
        <mxCell id="e6HTWMqlXNh-KGvoDEbI-35" value="系统接口" style="rounded=0;whiteSpace=wrap;html=1;fontSize=14;" parent="1" vertex="1">
          <mxGeometry x="356" y="820" width="95" height="40" as="geometry" />
        </mxCell>
        <mxCell id="e6HTWMqlXNh-KGvoDEbI-36" value="系统接口" style="rounded=0;whiteSpace=wrap;html=1;fontSize=14;" parent="1" vertex="1">
          <mxGeometry x="486" y="820" width="95" height="40" as="geometry" />
        </mxCell>
        <mxCell id="e6HTWMqlXNh-KGvoDEbI-37" value="提单页渲染" style="rounded=0;whiteSpace=wrap;html=1;fontSize=14;" parent="1" vertex="1">
          <mxGeometry x="606" y="820" width="95" height="40" as="geometry" />
        </mxCell>
        <mxCell id="e6HTWMqlXNh-KGvoDEbI-38" value="提单页编辑" style="rounded=0;whiteSpace=wrap;html=1;fontSize=14;" parent="1" vertex="1">
          <mxGeometry x="728.5" y="820" width="95" height="40" as="geometry" />
        </mxCell>
        <mxCell id="e6HTWMqlXNh-KGvoDEbI-64" style="edgeStyle=none;rounded=0;orthogonalLoop=1;jettySize=auto;html=1;entryX=1;entryY=0.75;entryDx=0;entryDy=0;fontSize=14;" parent="1" source="e6HTWMqlXNh-KGvoDEbI-39" target="e6HTWMqlXNh-KGvoDEbI-47" edge="1">
          <mxGeometry relative="1" as="geometry" />
        </mxCell>
        <mxCell id="e6HTWMqlXNh-KGvoDEbI-39" value="订单创建" style="rounded=0;whiteSpace=wrap;html=1;fontSize=14;" parent="1" vertex="1">
          <mxGeometry x="846" y="820" width="95" height="40" as="geometry" />
        </mxCell>
        <mxCell id="e6HTWMqlXNh-KGvoDEbI-40" value="..." style="rounded=0;whiteSpace=wrap;html=1;fontSize=14;" parent="1" vertex="1">
          <mxGeometry x="961" y="820" width="95" height="40" as="geometry" />
        </mxCell>
        <mxCell id="e6HTWMqlXNh-KGvoDEbI-49" style="edgeStyle=none;rounded=0;orthogonalLoop=1;jettySize=auto;html=1;entryX=0;entryY=0.5;entryDx=0;entryDy=0;fontSize=14;" parent="1" source="e6HTWMqlXNh-KGvoDEbI-41" target="e6HTWMqlXNh-KGvoDEbI-42" edge="1">
          <mxGeometry relative="1" as="geometry" />
        </mxCell>
        <mxCell id="e6HTWMqlXNh-KGvoDEbI-41" value="&lt;font style=&quot;font-size: 14px;&quot;&gt;价格&lt;br&gt;计算&lt;br&gt;&lt;/font&gt;" style="ellipse;whiteSpace=wrap;html=1;fontSize=18;" parent="1" vertex="1">
          <mxGeometry x="441" y="958.75" width="70" height="70" as="geometry" />
        </mxCell>
        <mxCell id="e6HTWMqlXNh-KGvoDEbI-50" style="edgeStyle=none;rounded=0;orthogonalLoop=1;jettySize=auto;html=1;fontSize=14;" parent="1" source="e6HTWMqlXNh-KGvoDEbI-42" target="e6HTWMqlXNh-KGvoDEbI-43" edge="1">
          <mxGeometry relative="1" as="geometry" />
        </mxCell>
        <mxCell id="e6HTWMqlXNh-KGvoDEbI-42" value="&lt;font style=&quot;font-size: 14px;&quot;&gt;库存&lt;br&gt;扣减&lt;br&gt;&lt;/font&gt;" style="ellipse;whiteSpace=wrap;html=1;fontSize=18;" parent="1" vertex="1">
          <mxGeometry x="571" y="958.75" width="70" height="70" as="geometry" />
        </mxCell>
        <mxCell id="e6HTWMqlXNh-KGvoDEbI-51" style="edgeStyle=none;rounded=0;orthogonalLoop=1;jettySize=auto;html=1;entryX=0;entryY=0.5;entryDx=0;entryDy=0;fontSize=14;" parent="1" source="e6HTWMqlXNh-KGvoDEbI-43" target="e6HTWMqlXNh-KGvoDEbI-44" edge="1">
          <mxGeometry relative="1" as="geometry" />
        </mxCell>
        <mxCell id="e6HTWMqlXNh-KGvoDEbI-43" value="&lt;font style=&quot;font-size: 14px;&quot;&gt;优惠&lt;br&gt;报销&lt;br&gt;&lt;/font&gt;" style="ellipse;whiteSpace=wrap;html=1;fontSize=18;" parent="1" vertex="1">
          <mxGeometry x="701" y="958.75" width="70" height="70" as="geometry" />
        </mxCell>
        <mxCell id="e6HTWMqlXNh-KGvoDEbI-52" style="edgeStyle=none;rounded=0;orthogonalLoop=1;jettySize=auto;html=1;entryX=0;entryY=0.5;entryDx=0;entryDy=0;fontSize=14;" parent="1" source="e6HTWMqlXNh-KGvoDEbI-44" target="e6HTWMqlXNh-KGvoDEbI-45" edge="1">
          <mxGeometry relative="1" as="geometry" />
        </mxCell>
        <mxCell id="e6HTWMqlXNh-KGvoDEbI-44" value="&lt;font style=&quot;font-size: 14px;&quot;&gt;订单&lt;br&gt;生成&lt;br&gt;&lt;/font&gt;" style="ellipse;whiteSpace=wrap;html=1;fontSize=18;" parent="1" vertex="1">
          <mxGeometry x="836" y="958.75" width="70" height="70" as="geometry" />
        </mxCell>
        <mxCell id="e6HTWMqlXNh-KGvoDEbI-45" value="&lt;font style=&quot;font-size: 14px;&quot;&gt;...&lt;br&gt;&lt;/font&gt;" style="ellipse;whiteSpace=wrap;html=1;fontSize=18;" parent="1" vertex="1">
          <mxGeometry x="971" y="958.75" width="70" height="70" as="geometry" />
        </mxCell>
        <mxCell id="e6HTWMqlXNh-KGvoDEbI-47" value="最细粒度的流程节点&lt;br&gt;示意：“订单创建”产品流程下的关键节点" style="text;html=1;strokeColor=none;fillColor=none;align=center;verticalAlign=middle;whiteSpace=wrap;rounded=0;fontSize=14;" parent="1" vertex="1">
          <mxGeometry x="561" y="910" width="290" height="30" as="geometry" />
        </mxCell>
        <mxCell id="e6HTWMqlXNh-KGvoDEbI-48" value="原子&lt;br&gt;能力" style="text;html=1;strokeColor=none;fillColor=none;align=center;verticalAlign=middle;whiteSpace=wrap;rounded=0;fontSize=14;" parent="1" vertex="1">
          <mxGeometry x="306" y="978.75" width="60" height="30" as="geometry" />
        </mxCell>
        <mxCell id="e6HTWMqlXNh-KGvoDEbI-54" value="系统&lt;br&gt;接口" style="text;html=1;strokeColor=none;fillColor=none;align=center;verticalAlign=middle;whiteSpace=wrap;rounded=0;fontSize=14;" parent="1" vertex="1">
          <mxGeometry x="276" y="825" width="60" height="30" as="geometry" />
        </mxCell>
        <mxCell id="e6HTWMqlXNh-KGvoDEbI-57" value="业务服务（应用）&lt;br&gt;（后端代码映射示意：buy_api）" style="text;html=1;strokeColor=none;fillColor=none;align=center;verticalAlign=middle;whiteSpace=wrap;rounded=0;fontSize=14;" parent="1" vertex="1">
          <mxGeometry x="573.5" y="760" width="250" height="30" as="geometry" />
        </mxCell>
      </root>
    </mxGraphModel>
  </diagram>
  <diagram id="Kg-f6LXmoNqSJQkfOCgY" name="第 10 页">
    <mxGraphModel dx="2036" dy="802" grid="1" gridSize="10" guides="1" tooltips="1" connect="1" arrows="1" fold="1" page="1" pageScale="1" pageWidth="827" pageHeight="1169" math="0" shadow="0">
      <root>
        <mxCell id="0" />
        <mxCell id="1" parent="0" />
        <mxCell id="8JxRkpfhtIo6l6xBUs-Y-152" value="" style="rounded=0;whiteSpace=wrap;html=1;fontSize=14;fillColor=#cce5ff;strokeColor=#36393d;" parent="1" vertex="1">
          <mxGeometry x="130" y="920" width="660" height="3200" as="geometry" />
        </mxCell>
        <mxCell id="8JxRkpfhtIo6l6xBUs-Y-150" value="" style="rounded=0;whiteSpace=wrap;html=1;fontSize=14;fillColor=#ffff88;strokeColor=#36393d;" parent="1" vertex="1">
          <mxGeometry x="204" y="20" width="480" height="850" as="geometry" />
        </mxCell>
        <mxCell id="8JxRkpfhtIo6l6xBUs-Y-140" style="edgeStyle=none;rounded=0;orthogonalLoop=1;jettySize=auto;html=1;entryX=0.5;entryY=0;entryDx=0;entryDy=0;fontSize=14;" parent="1" source="8JxRkpfhtIo6l6xBUs-Y-1" target="8JxRkpfhtIo6l6xBUs-Y-2" edge="1">
          <mxGeometry relative="1" as="geometry" />
        </mxCell>
        <mxCell id="8JxRkpfhtIo6l6xBUs-Y-1" value="下单请求参数处理校验" style="rounded=0;whiteSpace=wrap;html=1;fontSize=14;" parent="1" vertex="1">
          <mxGeometry x="354" y="90" width="176" height="60" as="geometry" />
        </mxCell>
        <mxCell id="8JxRkpfhtIo6l6xBUs-Y-141" style="edgeStyle=none;rounded=0;orthogonalLoop=1;jettySize=auto;html=1;entryX=0.5;entryY=0;entryDx=0;entryDy=0;fontSize=14;" parent="1" source="8JxRkpfhtIo6l6xBUs-Y-2" target="8JxRkpfhtIo6l6xBUs-Y-4" edge="1">
          <mxGeometry relative="1" as="geometry" />
        </mxCell>
        <mxCell id="8JxRkpfhtIo6l6xBUs-Y-146" value="获取位置信息" style="edgeStyle=none;rounded=0;orthogonalLoop=1;jettySize=auto;html=1;entryX=0;entryY=0.5;entryDx=0;entryDy=0;fontSize=14;" parent="1" source="8JxRkpfhtIo6l6xBUs-Y-2" target="8JxRkpfhtIo6l6xBUs-Y-3" edge="1">
          <mxGeometry relative="1" as="geometry" />
        </mxCell>
        <mxCell id="8JxRkpfhtIo6l6xBUs-Y-2" value="合规拦截" style="rounded=0;whiteSpace=wrap;html=1;fontSize=14;" parent="1" vertex="1">
          <mxGeometry x="354" y="200" width="176" height="60" as="geometry" />
        </mxCell>
        <mxCell id="8JxRkpfhtIo6l6xBUs-Y-3" value="地址位置服务" style="rounded=0;whiteSpace=wrap;html=1;fontSize=14;" parent="1" vertex="1">
          <mxGeometry x="740" y="200" width="176" height="60" as="geometry" />
        </mxCell>
        <mxCell id="8JxRkpfhtIo6l6xBUs-Y-142" style="edgeStyle=none;rounded=0;orthogonalLoop=1;jettySize=auto;html=1;entryX=0.5;entryY=0;entryDx=0;entryDy=0;fontSize=14;" parent="1" source="8JxRkpfhtIo6l6xBUs-Y-4" target="8JxRkpfhtIo6l6xBUs-Y-6" edge="1">
          <mxGeometry relative="1" as="geometry" />
        </mxCell>
        <mxCell id="8JxRkpfhtIo6l6xBUs-Y-147" value="登录判断" style="edgeStyle=none;rounded=0;orthogonalLoop=1;jettySize=auto;html=1;entryX=0;entryY=0.5;entryDx=0;entryDy=0;fontSize=14;" parent="1" source="8JxRkpfhtIo6l6xBUs-Y-4" target="8JxRkpfhtIo6l6xBUs-Y-5" edge="1">
          <mxGeometry relative="1" as="geometry" />
        </mxCell>
        <mxCell id="8JxRkpfhtIo6l6xBUs-Y-4" value="登录处理" style="rounded=0;whiteSpace=wrap;html=1;fontSize=14;" parent="1" vertex="1">
          <mxGeometry x="350" y="310" width="176" height="60" as="geometry" />
        </mxCell>
        <mxCell id="8JxRkpfhtIo6l6xBUs-Y-5" value="电商登录服务" style="rounded=0;whiteSpace=wrap;html=1;fontSize=14;" parent="1" vertex="1">
          <mxGeometry x="740" y="310" width="176" height="60" as="geometry" />
        </mxCell>
        <mxCell id="8JxRkpfhtIo6l6xBUs-Y-143" style="edgeStyle=none;rounded=0;orthogonalLoop=1;jettySize=auto;html=1;entryX=0.5;entryY=0;entryDx=0;entryDy=0;fontSize=14;" parent="1" source="8JxRkpfhtIo6l6xBUs-Y-6" target="8JxRkpfhtIo6l6xBUs-Y-8" edge="1">
          <mxGeometry relative="1" as="geometry" />
        </mxCell>
        <mxCell id="8JxRkpfhtIo6l6xBUs-Y-148" value="风控判断" style="edgeStyle=none;rounded=0;orthogonalLoop=1;jettySize=auto;html=1;entryX=0;entryY=0.5;entryDx=0;entryDy=0;fontSize=14;" parent="1" source="8JxRkpfhtIo6l6xBUs-Y-6" target="8JxRkpfhtIo6l6xBUs-Y-7" edge="1">
          <mxGeometry relative="1" as="geometry" />
        </mxCell>
        <mxCell id="8JxRkpfhtIo6l6xBUs-Y-6" value="风控处理" style="rounded=0;whiteSpace=wrap;html=1;fontSize=14;" parent="1" vertex="1">
          <mxGeometry x="350" y="420" width="176" height="60" as="geometry" />
        </mxCell>
        <mxCell id="8JxRkpfhtIo6l6xBUs-Y-7" value="风控" style="rounded=0;whiteSpace=wrap;html=1;fontSize=14;" parent="1" vertex="1">
          <mxGeometry x="740" y="420" width="176" height="60" as="geometry" />
        </mxCell>
        <mxCell id="8JxRkpfhtIo6l6xBUs-Y-144" style="edgeStyle=none;rounded=0;orthogonalLoop=1;jettySize=auto;html=1;entryX=0.5;entryY=0;entryDx=0;entryDy=0;fontSize=14;" parent="1" source="8JxRkpfhtIo6l6xBUs-Y-8" target="8JxRkpfhtIo6l6xBUs-Y-10" edge="1">
          <mxGeometry relative="1" as="geometry" />
        </mxCell>
        <mxCell id="8JxRkpfhtIo6l6xBUs-Y-149" value="达人分佣参数校准" style="edgeStyle=none;rounded=0;orthogonalLoop=1;jettySize=auto;html=1;entryX=0;entryY=0.5;entryDx=0;entryDy=0;fontSize=14;" parent="1" source="8JxRkpfhtIo6l6xBUs-Y-8" target="8JxRkpfhtIo6l6xBUs-Y-9" edge="1">
          <mxGeometry relative="1" as="geometry" />
        </mxCell>
        <mxCell id="8JxRkpfhtIo6l6xBUs-Y-8" value="联盟分佣关系验证" style="rounded=0;whiteSpace=wrap;html=1;fontSize=14;" parent="1" vertex="1">
          <mxGeometry x="354" y="530" width="176" height="60" as="geometry" />
        </mxCell>
        <mxCell id="8JxRkpfhtIo6l6xBUs-Y-9" value="联盟分佣关系" style="rounded=0;whiteSpace=wrap;html=1;fontSize=14;" parent="1" vertex="1">
          <mxGeometry x="740" y="530" width="176" height="60" as="geometry" />
        </mxCell>
        <mxCell id="8JxRkpfhtIo6l6xBUs-Y-145" style="edgeStyle=none;rounded=0;orthogonalLoop=1;jettySize=auto;html=1;entryX=0.5;entryY=0;entryDx=0;entryDy=0;fontSize=14;" parent="1" source="8JxRkpfhtIo6l6xBUs-Y-10" target="8JxRkpfhtIo6l6xBUs-Y-11" edge="1">
          <mxGeometry relative="1" as="geometry" />
        </mxCell>
        <mxCell id="8JxRkpfhtIo6l6xBUs-Y-153" style="edgeStyle=orthogonalEdgeStyle;rounded=0;orthogonalLoop=1;jettySize=auto;html=1;entryX=0.722;entryY=0;entryDx=0;entryDy=0;entryPerimeter=0;fontSize=14;" parent="1" source="8JxRkpfhtIo6l6xBUs-Y-10" target="8JxRkpfhtIo6l6xBUs-Y-152" edge="1">
          <mxGeometry relative="1" as="geometry">
            <Array as="points">
              <mxPoint x="607" y="680" />
            </Array>
          </mxGeometry>
        </mxCell>
        <mxCell id="8JxRkpfhtIo6l6xBUs-Y-10" value="下单流程" style="rounded=0;whiteSpace=wrap;html=1;fontSize=14;" parent="1" vertex="1">
          <mxGeometry x="350" y="640" width="176" height="60" as="geometry" />
        </mxCell>
        <mxCell id="8JxRkpfhtIo6l6xBUs-Y-11" value="下单请求结果封装" style="rounded=0;whiteSpace=wrap;html=1;fontSize=14;" parent="1" vertex="1">
          <mxGeometry x="350" y="750" width="176" height="60" as="geometry" />
        </mxCell>
        <mxCell id="8JxRkpfhtIo6l6xBUs-Y-130" style="edgeStyle=none;rounded=0;orthogonalLoop=1;jettySize=auto;html=1;entryX=0.5;entryY=0;entryDx=0;entryDy=0;fontSize=14;" parent="1" source="8JxRkpfhtIo6l6xBUs-Y-12" target="8JxRkpfhtIo6l6xBUs-Y-13" edge="1">
          <mxGeometry relative="1" as="geometry" />
        </mxCell>
        <mxCell id="8JxRkpfhtIo6l6xBUs-Y-12" value="请求参数处理校验" style="rounded=0;whiteSpace=wrap;html=1;fontSize=14;" parent="1" vertex="1">
          <mxGeometry x="350" y="950" width="176" height="60" as="geometry" />
        </mxCell>
        <mxCell id="8JxRkpfhtIo6l6xBUs-Y-129" value="广告类型查询" style="edgeStyle=none;rounded=0;orthogonalLoop=1;jettySize=auto;html=1;entryX=0;entryY=0.5;entryDx=0;entryDy=0;fontSize=14;" parent="1" source="8JxRkpfhtIo6l6xBUs-Y-13" target="8JxRkpfhtIo6l6xBUs-Y-18" edge="1">
          <mxGeometry relative="1" as="geometry" />
        </mxCell>
        <mxCell id="8JxRkpfhtIo6l6xBUs-Y-131" style="edgeStyle=none;rounded=0;orthogonalLoop=1;jettySize=auto;html=1;entryX=0.5;entryY=0;entryDx=0;entryDy=0;fontSize=14;" parent="1" source="8JxRkpfhtIo6l6xBUs-Y-13" target="8JxRkpfhtIo6l6xBUs-Y-14" edge="1">
          <mxGeometry relative="1" as="geometry" />
        </mxCell>
        <mxCell id="8JxRkpfhtIo6l6xBUs-Y-13" value="计算千川广告" style="rounded=0;whiteSpace=wrap;html=1;fontSize=14;" parent="1" vertex="1">
          <mxGeometry x="350" y="1080" width="176" height="60" as="geometry" />
        </mxCell>
        <mxCell id="8JxRkpfhtIo6l6xBUs-Y-132" style="edgeStyle=none;rounded=0;orthogonalLoop=1;jettySize=auto;html=1;entryX=0.5;entryY=0;entryDx=0;entryDy=0;fontSize=14;" parent="1" source="8JxRkpfhtIo6l6xBUs-Y-14" target="8JxRkpfhtIo6l6xBUs-Y-15" edge="1">
          <mxGeometry relative="1" as="geometry" />
        </mxCell>
        <mxCell id="8JxRkpfhtIo6l6xBUs-Y-133" value="获取订单号" style="edgeStyle=none;rounded=0;orthogonalLoop=1;jettySize=auto;html=1;entryX=1;entryY=0.5;entryDx=0;entryDy=0;fontSize=14;" parent="1" source="8JxRkpfhtIo6l6xBUs-Y-14" target="8JxRkpfhtIo6l6xBUs-Y-19" edge="1">
          <mxGeometry relative="1" as="geometry" />
        </mxCell>
        <mxCell id="8JxRkpfhtIo6l6xBUs-Y-14" value="生成订单号" style="rounded=0;whiteSpace=wrap;html=1;fontSize=14;" parent="1" vertex="1">
          <mxGeometry x="350" y="1200" width="176" height="60" as="geometry" />
        </mxCell>
        <mxCell id="8JxRkpfhtIo6l6xBUs-Y-123" style="edgeStyle=none;rounded=0;orthogonalLoop=1;jettySize=auto;html=1;entryX=0.5;entryY=0;entryDx=0;entryDy=0;fontSize=14;exitX=0.5;exitY=1;exitDx=0;exitDy=0;" parent="1" source="8JxRkpfhtIo6l6xBUs-Y-15" target="8JxRkpfhtIo6l6xBUs-Y-16" edge="1">
          <mxGeometry relative="1" as="geometry" />
        </mxCell>
        <mxCell id="8JxRkpfhtIo6l6xBUs-Y-124" style="edgeStyle=none;rounded=0;orthogonalLoop=1;jettySize=auto;html=1;entryX=0.5;entryY=0;entryDx=0;entryDy=0;fontSize=14;exitX=0.5;exitY=1;exitDx=0;exitDy=0;" parent="1" source="8JxRkpfhtIo6l6xBUs-Y-15" target="8JxRkpfhtIo6l6xBUs-Y-17" edge="1">
          <mxGeometry relative="1" as="geometry" />
        </mxCell>
        <mxCell id="8JxRkpfhtIo6l6xBUs-Y-134" style="edgeStyle=none;rounded=0;orthogonalLoop=1;jettySize=auto;html=1;entryX=1;entryY=0.5;entryDx=0;entryDy=0;fontSize=14;" parent="1" source="8JxRkpfhtIo6l6xBUs-Y-15" target="8JxRkpfhtIo6l6xBUs-Y-20" edge="1">
          <mxGeometry relative="1" as="geometry" />
        </mxCell>
        <mxCell id="8JxRkpfhtIo6l6xBUs-Y-15" value="下单幂等" style="rounded=0;whiteSpace=wrap;html=1;fontSize=14;" parent="1" vertex="1">
          <mxGeometry x="350" y="1320" width="176" height="60" as="geometry" />
        </mxCell>
        <mxCell id="8JxRkpfhtIo6l6xBUs-Y-126" style="edgeStyle=none;rounded=0;orthogonalLoop=1;jettySize=auto;html=1;entryX=0;entryY=0.5;entryDx=0;entryDy=0;fontSize=14;" parent="1" source="8JxRkpfhtIo6l6xBUs-Y-16" target="8JxRkpfhtIo6l6xBUs-Y-125" edge="1">
          <mxGeometry relative="1" as="geometry" />
        </mxCell>
        <mxCell id="8JxRkpfhtIo6l6xBUs-Y-158" style="edgeStyle=orthogonalEdgeStyle;rounded=0;orthogonalLoop=1;jettySize=auto;html=1;entryX=0.557;entryY=-0.001;entryDx=0;entryDy=0;fontSize=14;entryPerimeter=0;" parent="1" source="8JxRkpfhtIo6l6xBUs-Y-16" target="8JxRkpfhtIo6l6xBUs-Y-157" edge="1">
          <mxGeometry relative="1" as="geometry" />
        </mxCell>
        <mxCell id="8JxRkpfhtIo6l6xBUs-Y-161" value="获取商品营销活动信息" style="edgeLabel;html=1;align=center;verticalAlign=middle;resizable=0;points=[];fontSize=14;" parent="8JxRkpfhtIo6l6xBUs-Y-158" vertex="1" connectable="0">
          <mxGeometry x="0.1456" y="-4" relative="1" as="geometry">
            <mxPoint as="offset" />
          </mxGeometry>
        </mxCell>
        <mxCell id="8JxRkpfhtIo6l6xBUs-Y-16" value="获取商品营销活动信息" style="rounded=0;whiteSpace=wrap;html=1;fontSize=14;" parent="1" vertex="1">
          <mxGeometry x="180" y="1440" width="176" height="60" as="geometry" />
        </mxCell>
        <mxCell id="8JxRkpfhtIo6l6xBUs-Y-127" style="edgeStyle=none;rounded=0;orthogonalLoop=1;jettySize=auto;html=1;entryX=1;entryY=0.5;entryDx=0;entryDy=0;fontSize=14;" parent="1" source="8JxRkpfhtIo6l6xBUs-Y-17" target="8JxRkpfhtIo6l6xBUs-Y-125" edge="1">
          <mxGeometry relative="1" as="geometry" />
        </mxCell>
        <mxCell id="8JxRkpfhtIo6l6xBUs-Y-160" style="edgeStyle=orthogonalEdgeStyle;rounded=0;orthogonalLoop=1;jettySize=auto;html=1;entryX=0.5;entryY=1;entryDx=0;entryDy=0;fontSize=14;" parent="1" source="8JxRkpfhtIo6l6xBUs-Y-17" target="8JxRkpfhtIo6l6xBUs-Y-157" edge="1">
          <mxGeometry relative="1" as="geometry">
            <Array as="points">
              <mxPoint x="598" y="1570" />
              <mxPoint x="-55" y="1570" />
            </Array>
          </mxGeometry>
        </mxCell>
        <mxCell id="8JxRkpfhtIo6l6xBUs-Y-163" value="获取活动SKu及活动信息" style="edgeLabel;html=1;align=center;verticalAlign=middle;resizable=0;points=[];fontSize=14;" parent="8JxRkpfhtIo6l6xBUs-Y-160" vertex="1" connectable="0">
          <mxGeometry x="0.6056" relative="1" as="geometry">
            <mxPoint as="offset" />
          </mxGeometry>
        </mxCell>
        <mxCell id="8JxRkpfhtIo6l6xBUs-Y-17" value="获取活动sku及活动信息" style="rounded=0;whiteSpace=wrap;html=1;fontSize=14;" parent="1" vertex="1">
          <mxGeometry x="510" y="1440" width="176" height="60" as="geometry" />
        </mxCell>
        <mxCell id="8JxRkpfhtIo6l6xBUs-Y-18" value="广告pack服务" style="rounded=0;whiteSpace=wrap;html=1;fontSize=14;" parent="1" vertex="1">
          <mxGeometry x="910" y="1080" width="176" height="60" as="geometry" />
        </mxCell>
        <mxCell id="8JxRkpfhtIo6l6xBUs-Y-19" value="订单号服务" style="rounded=0;whiteSpace=wrap;html=1;fontSize=14;" parent="1" vertex="1">
          <mxGeometry x="-90" y="1200" width="176" height="60" as="geometry" />
        </mxCell>
        <mxCell id="8JxRkpfhtIo6l6xBUs-Y-20" value="下单幂等Abase" style="rounded=0;whiteSpace=wrap;html=1;fontSize=14;fillColor=#cdeb8b;strokeColor=#36393d;" parent="1" vertex="1">
          <mxGeometry x="-190" y="1320" width="270" height="60" as="geometry" />
        </mxCell>
        <mxCell id="8JxRkpfhtIo6l6xBUs-Y-21" value="商品服务" style="rounded=0;whiteSpace=wrap;html=1;fontSize=14;" parent="1" vertex="1">
          <mxGeometry x="-143" y="1610" width="176" height="60" as="geometry" />
        </mxCell>
        <mxCell id="8JxRkpfhtIo6l6xBUs-Y-117" style="edgeStyle=none;rounded=0;orthogonalLoop=1;jettySize=auto;html=1;entryX=0.611;entryY=-0.017;entryDx=0;entryDy=0;entryPerimeter=0;fontSize=14;exitX=0.5;exitY=1;exitDx=0;exitDy=0;" parent="1" source="8JxRkpfhtIo6l6xBUs-Y-22" target="8JxRkpfhtIo6l6xBUs-Y-24" edge="1">
          <mxGeometry relative="1" as="geometry" />
        </mxCell>
        <mxCell id="8JxRkpfhtIo6l6xBUs-Y-118" style="edgeStyle=none;rounded=0;orthogonalLoop=1;jettySize=auto;html=1;entryX=0.5;entryY=0;entryDx=0;entryDy=0;fontSize=14;" parent="1" source="8JxRkpfhtIo6l6xBUs-Y-22" target="8JxRkpfhtIo6l6xBUs-Y-25" edge="1">
          <mxGeometry relative="1" as="geometry" />
        </mxCell>
        <mxCell id="8JxRkpfhtIo6l6xBUs-Y-119" style="edgeStyle=none;rounded=0;orthogonalLoop=1;jettySize=auto;html=1;entryX=0.5;entryY=0;entryDx=0;entryDy=0;fontSize=14;exitX=0.5;exitY=1;exitDx=0;exitDy=0;" parent="1" source="8JxRkpfhtIo6l6xBUs-Y-22" target="8JxRkpfhtIo6l6xBUs-Y-26" edge="1">
          <mxGeometry relative="1" as="geometry" />
        </mxCell>
        <mxCell id="8JxRkpfhtIo6l6xBUs-Y-155" style="edgeStyle=orthogonalEdgeStyle;rounded=0;orthogonalLoop=1;jettySize=auto;html=1;entryX=1;entryY=0.5;entryDx=0;entryDy=0;fontSize=14;" parent="1" source="8JxRkpfhtIo6l6xBUs-Y-22" target="8JxRkpfhtIo6l6xBUs-Y-21" edge="1">
          <mxGeometry relative="1" as="geometry" />
        </mxCell>
        <mxCell id="8JxRkpfhtIo6l6xBUs-Y-156" value="获取商品信息" style="edgeLabel;html=1;align=center;verticalAlign=middle;resizable=0;points=[];fontSize=14;" parent="8JxRkpfhtIo6l6xBUs-Y-155" vertex="1" connectable="0">
          <mxGeometry x="-0.0373" y="-1" relative="1" as="geometry">
            <mxPoint as="offset" />
          </mxGeometry>
        </mxCell>
        <mxCell id="8JxRkpfhtIo6l6xBUs-Y-22" value="获取商品信息" style="rounded=0;whiteSpace=wrap;html=1;fontSize=14;" parent="1" vertex="1">
          <mxGeometry x="350" y="1610" width="176" height="60" as="geometry" />
        </mxCell>
        <mxCell id="8JxRkpfhtIo6l6xBUs-Y-23" value="店铺服务" style="rounded=0;whiteSpace=wrap;html=1;fontSize=14;" parent="1" vertex="1">
          <mxGeometry x="-143" y="1760" width="176" height="60" as="geometry" />
        </mxCell>
        <mxCell id="8JxRkpfhtIo6l6xBUs-Y-113" style="edgeStyle=none;rounded=0;orthogonalLoop=1;jettySize=auto;html=1;entryX=0;entryY=0.5;entryDx=0;entryDy=0;fontSize=14;" parent="1" source="8JxRkpfhtIo6l6xBUs-Y-24" target="8JxRkpfhtIo6l6xBUs-Y-112" edge="1">
          <mxGeometry relative="1" as="geometry" />
        </mxCell>
        <mxCell id="8JxRkpfhtIo6l6xBUs-Y-120" style="edgeStyle=none;rounded=0;orthogonalLoop=1;jettySize=auto;html=1;entryX=1;entryY=0.5;entryDx=0;entryDy=0;fontSize=14;" parent="1" source="8JxRkpfhtIo6l6xBUs-Y-24" target="8JxRkpfhtIo6l6xBUs-Y-23" edge="1">
          <mxGeometry relative="1" as="geometry" />
        </mxCell>
        <mxCell id="8JxRkpfhtIo6l6xBUs-Y-164" value="获取店铺信息" style="edgeLabel;html=1;align=center;verticalAlign=middle;resizable=0;points=[];fontSize=14;" parent="8JxRkpfhtIo6l6xBUs-Y-120" vertex="1" connectable="0">
          <mxGeometry x="-0.072" y="-1" relative="1" as="geometry">
            <mxPoint as="offset" />
          </mxGeometry>
        </mxCell>
        <mxCell id="8JxRkpfhtIo6l6xBUs-Y-24" value="获取店铺信息" style="rounded=0;whiteSpace=wrap;html=1;fontSize=14;" parent="1" vertex="1">
          <mxGeometry x="140" y="1760" width="176" height="60" as="geometry" />
        </mxCell>
        <mxCell id="8JxRkpfhtIo6l6xBUs-Y-114" style="edgeStyle=none;rounded=0;orthogonalLoop=1;jettySize=auto;html=1;entryX=0.5;entryY=0;entryDx=0;entryDy=0;fontSize=14;" parent="1" source="8JxRkpfhtIo6l6xBUs-Y-25" target="8JxRkpfhtIo6l6xBUs-Y-112" edge="1">
          <mxGeometry relative="1" as="geometry" />
        </mxCell>
        <mxCell id="8JxRkpfhtIo6l6xBUs-Y-122" style="edgeStyle=none;rounded=0;orthogonalLoop=1;jettySize=auto;html=1;entryX=1;entryY=0.5;entryDx=0;entryDy=0;fontSize=14;" parent="1" source="8JxRkpfhtIo6l6xBUs-Y-25" target="8JxRkpfhtIo6l6xBUs-Y-121" edge="1">
          <mxGeometry relative="1" as="geometry" />
        </mxCell>
        <mxCell id="8JxRkpfhtIo6l6xBUs-Y-165" value="获取时效服务" style="edgeLabel;html=1;align=center;verticalAlign=middle;resizable=0;points=[];fontSize=14;" parent="8JxRkpfhtIo6l6xBUs-Y-122" vertex="1" connectable="0">
          <mxGeometry x="0.1755" y="3" relative="1" as="geometry">
            <mxPoint as="offset" />
          </mxGeometry>
        </mxCell>
        <mxCell id="8JxRkpfhtIo6l6xBUs-Y-25" value="获取时效信息" style="rounded=0;whiteSpace=wrap;html=1;fontSize=14;" parent="1" vertex="1">
          <mxGeometry x="350" y="1760" width="176" height="60" as="geometry" />
        </mxCell>
        <mxCell id="8JxRkpfhtIo6l6xBUs-Y-115" style="edgeStyle=none;rounded=0;orthogonalLoop=1;jettySize=auto;html=1;entryX=1;entryY=0.5;entryDx=0;entryDy=0;fontSize=14;" parent="1" source="8JxRkpfhtIo6l6xBUs-Y-26" target="8JxRkpfhtIo6l6xBUs-Y-112" edge="1">
          <mxGeometry relative="1" as="geometry" />
        </mxCell>
        <mxCell id="8JxRkpfhtIo6l6xBUs-Y-135" value="获取新人权益&lt;br&gt;获取sku权益" style="edgeStyle=none;rounded=0;orthogonalLoop=1;jettySize=auto;html=1;entryX=0;entryY=0.5;entryDx=0;entryDy=0;fontSize=14;" parent="1" source="8JxRkpfhtIo6l6xBUs-Y-26" target="8JxRkpfhtIo6l6xBUs-Y-27" edge="1">
          <mxGeometry relative="1" as="geometry" />
        </mxCell>
        <mxCell id="8JxRkpfhtIo6l6xBUs-Y-26" value="获取权益" style="rounded=0;whiteSpace=wrap;html=1;fontSize=14;" parent="1" vertex="1">
          <mxGeometry x="564" y="1760" width="176" height="60" as="geometry" />
        </mxCell>
        <mxCell id="8JxRkpfhtIo6l6xBUs-Y-27" value="权益服务" style="rounded=0;whiteSpace=wrap;html=1;fontSize=14;" parent="1" vertex="1">
          <mxGeometry x="950" y="1760" width="176" height="60" as="geometry" />
        </mxCell>
        <mxCell id="8JxRkpfhtIo6l6xBUs-Y-109" style="edgeStyle=none;rounded=0;orthogonalLoop=1;jettySize=auto;html=1;entryX=0.5;entryY=0;entryDx=0;entryDy=0;fontSize=14;" parent="1" source="8JxRkpfhtIo6l6xBUs-Y-28" target="8JxRkpfhtIo6l6xBUs-Y-32" edge="1">
          <mxGeometry relative="1" as="geometry" />
        </mxCell>
        <mxCell id="8JxRkpfhtIo6l6xBUs-Y-110" style="edgeStyle=none;rounded=0;orthogonalLoop=1;jettySize=auto;html=1;fontSize=14;entryX=0;entryY=0.5;entryDx=0;entryDy=0;exitX=1;exitY=0.5;exitDx=0;exitDy=0;" parent="1" source="8JxRkpfhtIo6l6xBUs-Y-28" target="8JxRkpfhtIo6l6xBUs-Y-30" edge="1">
          <mxGeometry relative="1" as="geometry">
            <mxPoint x="740" y="2020" as="targetPoint" />
          </mxGeometry>
        </mxCell>
        <mxCell id="8JxRkpfhtIo6l6xBUs-Y-137" value="获取身份信息" style="edgeLabel;html=1;align=center;verticalAlign=middle;resizable=0;points=[];fontSize=14;" parent="8JxRkpfhtIo6l6xBUs-Y-110" vertex="1" connectable="0">
          <mxGeometry x="0.0213" relative="1" as="geometry">
            <mxPoint as="offset" />
          </mxGeometry>
        </mxCell>
        <mxCell id="8JxRkpfhtIo6l6xBUs-Y-111" style="edgeStyle=none;rounded=0;orthogonalLoop=1;jettySize=auto;html=1;entryX=0;entryY=0.5;entryDx=0;entryDy=0;fontSize=14;exitX=1;exitY=0.5;exitDx=0;exitDy=0;" parent="1" source="8JxRkpfhtIo6l6xBUs-Y-28" target="8JxRkpfhtIo6l6xBUs-Y-31" edge="1">
          <mxGeometry relative="1" as="geometry">
            <mxPoint x="540" y="2050" as="sourcePoint" />
          </mxGeometry>
        </mxCell>
        <mxCell id="8JxRkpfhtIo6l6xBUs-Y-139" value="内购判断" style="edgeLabel;html=1;align=center;verticalAlign=middle;resizable=0;points=[];fontSize=14;" parent="8JxRkpfhtIo6l6xBUs-Y-111" vertex="1" connectable="0">
          <mxGeometry x="0.0123" relative="1" as="geometry">
            <mxPoint as="offset" />
          </mxGeometry>
        </mxCell>
        <mxCell id="8JxRkpfhtIo6l6xBUs-Y-136" value="获取地址信息" style="edgeStyle=none;rounded=0;orthogonalLoop=1;jettySize=auto;html=1;entryX=0;entryY=0.5;entryDx=0;entryDy=0;fontSize=14;exitX=1;exitY=0.5;exitDx=0;exitDy=0;" parent="1" source="8JxRkpfhtIo6l6xBUs-Y-28" target="8JxRkpfhtIo6l6xBUs-Y-29" edge="1">
          <mxGeometry relative="1" as="geometry" />
        </mxCell>
        <mxCell id="8JxRkpfhtIo6l6xBUs-Y-28" value="购买判断" style="rounded=0;whiteSpace=wrap;html=1;fontSize=14;" parent="1" vertex="1">
          <mxGeometry x="356" y="2020" width="176" height="60" as="geometry" />
        </mxCell>
        <mxCell id="8JxRkpfhtIo6l6xBUs-Y-29" value="地址服务" style="rounded=0;whiteSpace=wrap;html=1;fontSize=14;" parent="1" vertex="1">
          <mxGeometry x="950" y="1880" width="176" height="60" as="geometry" />
        </mxCell>
        <mxCell id="8JxRkpfhtIo6l6xBUs-Y-30" value="跨境服务" style="rounded=0;whiteSpace=wrap;html=1;fontSize=14;" parent="1" vertex="1">
          <mxGeometry x="950" y="1980" width="176" height="60" as="geometry" />
        </mxCell>
        <mxCell id="8JxRkpfhtIo6l6xBUs-Y-31" value="内购服务" style="rounded=0;whiteSpace=wrap;html=1;fontSize=14;" parent="1" vertex="1">
          <mxGeometry x="950" y="2080" width="176" height="60" as="geometry" />
        </mxCell>
        <mxCell id="8JxRkpfhtIo6l6xBUs-Y-102" style="edgeStyle=none;rounded=0;orthogonalLoop=1;jettySize=auto;html=1;entryX=0;entryY=0.5;entryDx=0;entryDy=0;fontSize=14;exitX=1;exitY=0.5;exitDx=0;exitDy=0;" parent="1" source="8JxRkpfhtIo6l6xBUs-Y-32" target="8JxRkpfhtIo6l6xBUs-Y-33" edge="1">
          <mxGeometry relative="1" as="geometry" />
        </mxCell>
        <mxCell id="8JxRkpfhtIo6l6xBUs-Y-103" style="edgeStyle=none;rounded=0;orthogonalLoop=1;jettySize=auto;html=1;entryX=0;entryY=0.5;entryDx=0;entryDy=0;fontSize=14;exitX=1;exitY=0.5;exitDx=0;exitDy=0;" parent="1" source="8JxRkpfhtIo6l6xBUs-Y-32" target="8JxRkpfhtIo6l6xBUs-Y-34" edge="1">
          <mxGeometry relative="1" as="geometry" />
        </mxCell>
        <mxCell id="8JxRkpfhtIo6l6xBUs-Y-104" style="edgeStyle=none;rounded=0;orthogonalLoop=1;jettySize=auto;html=1;entryX=0;entryY=0.5;entryDx=0;entryDy=0;fontSize=14;" parent="1" target="8JxRkpfhtIo6l6xBUs-Y-35" edge="1">
          <mxGeometry relative="1" as="geometry">
            <mxPoint x="530" y="2250" as="sourcePoint" />
          </mxGeometry>
        </mxCell>
        <mxCell id="8JxRkpfhtIo6l6xBUs-Y-105" style="edgeStyle=none;rounded=0;orthogonalLoop=1;jettySize=auto;html=1;entryX=0;entryY=0.5;entryDx=0;entryDy=0;fontSize=14;exitX=1;exitY=0.5;exitDx=0;exitDy=0;" parent="1" source="8JxRkpfhtIo6l6xBUs-Y-32" target="8JxRkpfhtIo6l6xBUs-Y-36" edge="1">
          <mxGeometry relative="1" as="geometry" />
        </mxCell>
        <mxCell id="8JxRkpfhtIo6l6xBUs-Y-106" style="edgeStyle=none;rounded=0;orthogonalLoop=1;jettySize=auto;html=1;entryX=0;entryY=0.5;entryDx=0;entryDy=0;fontSize=14;exitX=1;exitY=0.5;exitDx=0;exitDy=0;" parent="1" source="8JxRkpfhtIo6l6xBUs-Y-32" target="8JxRkpfhtIo6l6xBUs-Y-37" edge="1">
          <mxGeometry relative="1" as="geometry" />
        </mxCell>
        <mxCell id="8JxRkpfhtIo6l6xBUs-Y-107" style="edgeStyle=none;rounded=0;orthogonalLoop=1;jettySize=auto;html=1;entryX=0;entryY=0.5;entryDx=0;entryDy=0;fontSize=14;exitX=1;exitY=0.5;exitDx=0;exitDy=0;" parent="1" source="8JxRkpfhtIo6l6xBUs-Y-32" target="8JxRkpfhtIo6l6xBUs-Y-38" edge="1">
          <mxGeometry relative="1" as="geometry" />
        </mxCell>
        <mxCell id="8JxRkpfhtIo6l6xBUs-Y-108" style="edgeStyle=none;rounded=0;orthogonalLoop=1;jettySize=auto;html=1;entryX=0.5;entryY=0;entryDx=0;entryDy=0;fontSize=14;" parent="1" source="8JxRkpfhtIo6l6xBUs-Y-32" target="8JxRkpfhtIo6l6xBUs-Y-39" edge="1">
          <mxGeometry relative="1" as="geometry" />
        </mxCell>
        <mxCell id="8JxRkpfhtIo6l6xBUs-Y-32" value="下单风控验证处理" style="rounded=0;whiteSpace=wrap;html=1;fontSize=14;" parent="1" vertex="1">
          <mxGeometry x="354" y="2220" width="176" height="60" as="geometry" />
        </mxCell>
        <mxCell id="8JxRkpfhtIo6l6xBUs-Y-33" value="制裁服务" style="rounded=0;whiteSpace=wrap;html=1;fontSize=14;fillColor=#cdeb8b;strokeColor=#36393d;" parent="1" vertex="1">
          <mxGeometry x="950" y="2180" width="176" height="60" as="geometry" />
        </mxCell>
        <mxCell id="8JxRkpfhtIo6l6xBUs-Y-34" value="敏感词服务" style="rounded=0;whiteSpace=wrap;html=1;fontSize=14;fillColor=#cdeb8b;strokeColor=#36393d;" parent="1" vertex="1">
          <mxGeometry x="950" y="2280" width="176" height="60" as="geometry" />
        </mxCell>
        <mxCell id="8JxRkpfhtIo6l6xBUs-Y-35" value="黄牛队列" style="rounded=0;whiteSpace=wrap;html=1;fontSize=14;fillColor=#cdeb8b;strokeColor=#36393d;" parent="1" vertex="1">
          <mxGeometry x="950" y="2380" width="176" height="60" as="geometry" />
        </mxCell>
        <mxCell id="8JxRkpfhtIo6l6xBUs-Y-36" value="短信验证服务" style="rounded=0;whiteSpace=wrap;html=1;fontSize=14;fillColor=#cdeb8b;strokeColor=#36393d;" parent="1" vertex="1">
          <mxGeometry x="950" y="2480" width="176" height="60" as="geometry" />
        </mxCell>
        <mxCell id="8JxRkpfhtIo6l6xBUs-Y-37" value="反作弊服务" style="rounded=0;whiteSpace=wrap;html=1;fontSize=14;fillColor=#cdeb8b;strokeColor=#36393d;" parent="1" vertex="1">
          <mxGeometry x="950" y="2580" width="176" height="60" as="geometry" />
        </mxCell>
        <mxCell id="8JxRkpfhtIo6l6xBUs-Y-38" value="商家等级服务" style="rounded=0;whiteSpace=wrap;html=1;fontSize=14;fillColor=#cdeb8b;strokeColor=#36393d;" parent="1" vertex="1">
          <mxGeometry x="950" y="2680" width="176" height="60" as="geometry" />
        </mxCell>
        <mxCell id="8JxRkpfhtIo6l6xBUs-Y-97" style="edgeStyle=none;rounded=0;orthogonalLoop=1;jettySize=auto;html=1;entryX=0.5;entryY=0;entryDx=0;entryDy=0;fontSize=14;" parent="1" source="8JxRkpfhtIo6l6xBUs-Y-39" target="8JxRkpfhtIo6l6xBUs-Y-40" edge="1">
          <mxGeometry relative="1" as="geometry" />
        </mxCell>
        <mxCell id="8JxRkpfhtIo6l6xBUs-Y-98" style="edgeStyle=none;rounded=0;orthogonalLoop=1;jettySize=auto;html=1;entryX=1;entryY=0.5;entryDx=0;entryDy=0;fontSize=14;" parent="1" source="8JxRkpfhtIo6l6xBUs-Y-39" target="8JxRkpfhtIo6l6xBUs-Y-41" edge="1">
          <mxGeometry relative="1" as="geometry" />
        </mxCell>
        <mxCell id="8JxRkpfhtIo6l6xBUs-Y-100" value="库存检查" style="edgeLabel;html=1;align=center;verticalAlign=middle;resizable=0;points=[];fontSize=14;" parent="8JxRkpfhtIo6l6xBUs-Y-98" vertex="1" connectable="0">
          <mxGeometry x="0.0151" y="1" relative="1" as="geometry">
            <mxPoint as="offset" />
          </mxGeometry>
        </mxCell>
        <mxCell id="8JxRkpfhtIo6l6xBUs-Y-39" value="库存检查" style="rounded=0;whiteSpace=wrap;html=1;fontSize=14;" parent="1" vertex="1">
          <mxGeometry x="354" y="2410" width="176" height="60" as="geometry" />
        </mxCell>
        <mxCell id="8JxRkpfhtIo6l6xBUs-Y-96" style="edgeStyle=none;rounded=0;orthogonalLoop=1;jettySize=auto;html=1;entryX=0.5;entryY=0;entryDx=0;entryDy=0;fontSize=14;" parent="1" source="8JxRkpfhtIo6l6xBUs-Y-40" target="8JxRkpfhtIo6l6xBUs-Y-42" edge="1">
          <mxGeometry relative="1" as="geometry" />
        </mxCell>
        <mxCell id="8JxRkpfhtIo6l6xBUs-Y-40" value="构建订单基础模型" style="rounded=0;whiteSpace=wrap;html=1;fontSize=14;" parent="1" vertex="1">
          <mxGeometry x="350" y="2590" width="176" height="60" as="geometry" />
        </mxCell>
        <mxCell id="8JxRkpfhtIo6l6xBUs-Y-41" value="库存服务" style="rounded=0;whiteSpace=wrap;html=1;fontSize=14;" parent="1" vertex="1">
          <mxGeometry x="-130" y="2570" width="176" height="60" as="geometry" />
        </mxCell>
        <mxCell id="8JxRkpfhtIo6l6xBUs-Y-84" style="edgeStyle=none;rounded=0;orthogonalLoop=1;jettySize=auto;html=1;entryX=0.584;entryY=0.006;entryDx=0;entryDy=0;entryPerimeter=0;fontSize=14;" parent="1" source="8JxRkpfhtIo6l6xBUs-Y-42" target="8JxRkpfhtIo6l6xBUs-Y-43" edge="1">
          <mxGeometry relative="1" as="geometry" />
        </mxCell>
        <mxCell id="8JxRkpfhtIo6l6xBUs-Y-85" style="edgeStyle=none;rounded=0;orthogonalLoop=1;jettySize=auto;html=1;entryX=0.5;entryY=0;entryDx=0;entryDy=0;fontSize=14;" parent="1" source="8JxRkpfhtIo6l6xBUs-Y-42" target="8JxRkpfhtIo6l6xBUs-Y-44" edge="1">
          <mxGeometry relative="1" as="geometry" />
        </mxCell>
        <mxCell id="8JxRkpfhtIo6l6xBUs-Y-86" style="edgeStyle=none;rounded=0;orthogonalLoop=1;jettySize=auto;html=1;entryX=0.5;entryY=0;entryDx=0;entryDy=0;fontSize=14;" parent="1" source="8JxRkpfhtIo6l6xBUs-Y-42" target="8JxRkpfhtIo6l6xBUs-Y-45" edge="1">
          <mxGeometry relative="1" as="geometry" />
        </mxCell>
        <mxCell id="8JxRkpfhtIo6l6xBUs-Y-167" style="edgeStyle=orthogonalEdgeStyle;rounded=0;orthogonalLoop=1;jettySize=auto;html=1;entryX=0;entryY=0.5;entryDx=0;entryDy=0;fontSize=14;" parent="1" source="8JxRkpfhtIo6l6xBUs-Y-42" target="8JxRkpfhtIo6l6xBUs-Y-166" edge="1">
          <mxGeometry relative="1" as="geometry" />
        </mxCell>
        <mxCell id="8JxRkpfhtIo6l6xBUs-Y-168" value="优惠分摊和价格计算" style="edgeLabel;html=1;align=center;verticalAlign=middle;resizable=0;points=[];fontSize=14;" parent="8JxRkpfhtIo6l6xBUs-Y-167" vertex="1" connectable="0">
          <mxGeometry x="0.0083" y="-2" relative="1" as="geometry">
            <mxPoint as="offset" />
          </mxGeometry>
        </mxCell>
        <mxCell id="8JxRkpfhtIo6l6xBUs-Y-42" value="营销分摊" style="rounded=0;whiteSpace=wrap;html=1;fontSize=14;" parent="1" vertex="1">
          <mxGeometry x="350" y="2760" width="176" height="60" as="geometry" />
        </mxCell>
        <mxCell id="8JxRkpfhtIo6l6xBUs-Y-80" style="edgeStyle=none;rounded=0;orthogonalLoop=1;jettySize=auto;html=1;entryX=0;entryY=0.5;entryDx=0;entryDy=0;fontSize=14;" parent="1" source="8JxRkpfhtIo6l6xBUs-Y-43" target="8JxRkpfhtIo6l6xBUs-Y-79" edge="1">
          <mxGeometry relative="1" as="geometry" />
        </mxCell>
        <mxCell id="8JxRkpfhtIo6l6xBUs-Y-99" style="edgeStyle=none;rounded=0;orthogonalLoop=1;jettySize=auto;html=1;entryX=1;entryY=0.5;entryDx=0;entryDy=0;fontSize=14;" parent="1" source="8JxRkpfhtIo6l6xBUs-Y-43" target="8JxRkpfhtIo6l6xBUs-Y-41" edge="1">
          <mxGeometry relative="1" as="geometry" />
        </mxCell>
        <mxCell id="8JxRkpfhtIo6l6xBUs-Y-101" value="库存扣减" style="edgeLabel;html=1;align=center;verticalAlign=middle;resizable=0;points=[];fontSize=14;" parent="8JxRkpfhtIo6l6xBUs-Y-99" vertex="1" connectable="0">
          <mxGeometry x="-0.0265" y="-4" relative="1" as="geometry">
            <mxPoint as="offset" />
          </mxGeometry>
        </mxCell>
        <mxCell id="8JxRkpfhtIo6l6xBUs-Y-43" value="库存扣减" style="rounded=0;whiteSpace=wrap;html=1;fontSize=14;" parent="1" vertex="1">
          <mxGeometry x="108.5" y="2930" width="176" height="60" as="geometry" />
        </mxCell>
        <mxCell id="8JxRkpfhtIo6l6xBUs-Y-81" style="edgeStyle=none;rounded=0;orthogonalLoop=1;jettySize=auto;html=1;entryX=0.5;entryY=0;entryDx=0;entryDy=0;fontSize=14;" parent="1" source="8JxRkpfhtIo6l6xBUs-Y-44" target="8JxRkpfhtIo6l6xBUs-Y-79" edge="1">
          <mxGeometry relative="1" as="geometry" />
        </mxCell>
        <mxCell id="8JxRkpfhtIo6l6xBUs-Y-170" style="rounded=0;orthogonalLoop=1;jettySize=auto;html=1;entryX=1;entryY=0.5;entryDx=0;entryDy=0;fontSize=14;" parent="1" source="8JxRkpfhtIo6l6xBUs-Y-44" target="8JxRkpfhtIo6l6xBUs-Y-169" edge="1">
          <mxGeometry relative="1" as="geometry" />
        </mxCell>
        <mxCell id="8JxRkpfhtIo6l6xBUs-Y-171" value="限购预占" style="edgeLabel;html=1;align=center;verticalAlign=middle;resizable=0;points=[];fontSize=14;" parent="8JxRkpfhtIo6l6xBUs-Y-170" vertex="1" connectable="0">
          <mxGeometry x="0.0312" y="2" relative="1" as="geometry">
            <mxPoint as="offset" />
          </mxGeometry>
        </mxCell>
        <mxCell id="8JxRkpfhtIo6l6xBUs-Y-44" value="限购扣减" style="rounded=0;whiteSpace=wrap;html=1;fontSize=14;" parent="1" vertex="1">
          <mxGeometry x="348.5" y="2930" width="176" height="60" as="geometry" />
        </mxCell>
        <mxCell id="8JxRkpfhtIo6l6xBUs-Y-82" style="edgeStyle=none;rounded=0;orthogonalLoop=1;jettySize=auto;html=1;entryX=1;entryY=0.5;entryDx=0;entryDy=0;fontSize=14;" parent="1" source="8JxRkpfhtIo6l6xBUs-Y-45" target="8JxRkpfhtIo6l6xBUs-Y-79" edge="1">
          <mxGeometry relative="1" as="geometry" />
        </mxCell>
        <mxCell id="8JxRkpfhtIo6l6xBUs-Y-90" style="edgeStyle=none;rounded=0;orthogonalLoop=1;jettySize=auto;html=1;entryX=0;entryY=0.5;entryDx=0;entryDy=0;fontSize=14;" parent="1" source="8JxRkpfhtIo6l6xBUs-Y-45" target="8JxRkpfhtIo6l6xBUs-Y-88" edge="1">
          <mxGeometry relative="1" as="geometry" />
        </mxCell>
        <mxCell id="8JxRkpfhtIo6l6xBUs-Y-93" value="优惠券冻结" style="edgeLabel;html=1;align=center;verticalAlign=middle;resizable=0;points=[];fontSize=14;" parent="8JxRkpfhtIo6l6xBUs-Y-90" vertex="1" connectable="0">
          <mxGeometry x="-0.0654" relative="1" as="geometry">
            <mxPoint as="offset" />
          </mxGeometry>
        </mxCell>
        <mxCell id="8JxRkpfhtIo6l6xBUs-Y-91" style="edgeStyle=none;rounded=0;orthogonalLoop=1;jettySize=auto;html=1;fontSize=14;" parent="1" source="8JxRkpfhtIo6l6xBUs-Y-45" target="8JxRkpfhtIo6l6xBUs-Y-87" edge="1">
          <mxGeometry relative="1" as="geometry" />
        </mxCell>
        <mxCell id="8JxRkpfhtIo6l6xBUs-Y-94" value="红包核销" style="edgeLabel;html=1;align=center;verticalAlign=middle;resizable=0;points=[];fontSize=14;" parent="8JxRkpfhtIo6l6xBUs-Y-91" vertex="1" connectable="0">
          <mxGeometry x="-0.0515" y="1" relative="1" as="geometry">
            <mxPoint as="offset" />
          </mxGeometry>
        </mxCell>
        <mxCell id="8JxRkpfhtIo6l6xBUs-Y-92" style="edgeStyle=none;rounded=0;orthogonalLoop=1;jettySize=auto;html=1;entryX=0;entryY=0.5;entryDx=0;entryDy=0;fontSize=14;" parent="1" source="8JxRkpfhtIo6l6xBUs-Y-45" target="8JxRkpfhtIo6l6xBUs-Y-89" edge="1">
          <mxGeometry relative="1" as="geometry" />
        </mxCell>
        <mxCell id="8JxRkpfhtIo6l6xBUs-Y-95" value="抽奖资格核销" style="edgeLabel;html=1;align=center;verticalAlign=middle;resizable=0;points=[];fontSize=14;" parent="8JxRkpfhtIo6l6xBUs-Y-92" vertex="1" connectable="0">
          <mxGeometry x="-0.0981" y="-1" relative="1" as="geometry">
            <mxPoint as="offset" />
          </mxGeometry>
        </mxCell>
        <mxCell id="8JxRkpfhtIo6l6xBUs-Y-45" value="营销资源扣减" style="rounded=0;whiteSpace=wrap;html=1;fontSize=14;" parent="1" vertex="1">
          <mxGeometry x="599.5" y="2930" width="176" height="60" as="geometry" />
        </mxCell>
        <mxCell id="8JxRkpfhtIo6l6xBUs-Y-76" style="edgeStyle=none;rounded=0;orthogonalLoop=1;jettySize=auto;html=1;entryX=0.5;entryY=0;entryDx=0;entryDy=0;fontSize=14;" parent="1" source="8JxRkpfhtIo6l6xBUs-Y-46" target="8JxRkpfhtIo6l6xBUs-Y-47" edge="1">
          <mxGeometry relative="1" as="geometry" />
        </mxCell>
        <mxCell id="8JxRkpfhtIo6l6xBUs-Y-46" value="交易拆单" style="rounded=0;whiteSpace=wrap;html=1;fontSize=14;" parent="1" vertex="1">
          <mxGeometry x="350" y="3200" width="176" height="60" as="geometry" />
        </mxCell>
        <mxCell id="8JxRkpfhtIo6l6xBUs-Y-75" style="edgeStyle=none;rounded=0;orthogonalLoop=1;jettySize=auto;html=1;entryX=0.5;entryY=0;entryDx=0;entryDy=0;fontSize=14;" parent="1" source="8JxRkpfhtIo6l6xBUs-Y-47" target="8JxRkpfhtIo6l6xBUs-Y-49" edge="1">
          <mxGeometry relative="1" as="geometry" />
        </mxCell>
        <mxCell id="8JxRkpfhtIo6l6xBUs-Y-78" style="edgeStyle=none;rounded=0;orthogonalLoop=1;jettySize=auto;html=1;entryX=0;entryY=0.5;entryDx=0;entryDy=0;fontSize=14;" parent="1" source="8JxRkpfhtIo6l6xBUs-Y-47" target="8JxRkpfhtIo6l6xBUs-Y-77" edge="1">
          <mxGeometry relative="1" as="geometry" />
        </mxCell>
        <mxCell id="8JxRkpfhtIo6l6xBUs-Y-172" value="运费单计算" style="edgeLabel;html=1;align=center;verticalAlign=middle;resizable=0;points=[];fontSize=14;" parent="8JxRkpfhtIo6l6xBUs-Y-78" vertex="1" connectable="0">
          <mxGeometry x="-0.0918" y="2" relative="1" as="geometry">
            <mxPoint as="offset" />
          </mxGeometry>
        </mxCell>
        <mxCell id="8JxRkpfhtIo6l6xBUs-Y-47" value="运费单流程" style="rounded=0;whiteSpace=wrap;html=1;fontSize=14;" parent="1" vertex="1">
          <mxGeometry x="350" y="3370" width="176" height="60" as="geometry" />
        </mxCell>
        <mxCell id="8JxRkpfhtIo6l6xBUs-Y-74" style="edgeStyle=none;rounded=0;orthogonalLoop=1;jettySize=auto;html=1;entryX=0.5;entryY=0;entryDx=0;entryDy=0;fontSize=14;" parent="1" source="8JxRkpfhtIo6l6xBUs-Y-49" target="8JxRkpfhtIo6l6xBUs-Y-50" edge="1">
          <mxGeometry relative="1" as="geometry" />
        </mxCell>
        <mxCell id="8JxRkpfhtIo6l6xBUs-Y-49" value="交易算价" style="rounded=0;whiteSpace=wrap;html=1;fontSize=14;" parent="1" vertex="1">
          <mxGeometry x="350" y="3560" width="176" height="60" as="geometry" />
        </mxCell>
        <mxCell id="8JxRkpfhtIo6l6xBUs-Y-56" style="edgeStyle=none;rounded=0;orthogonalLoop=1;jettySize=auto;html=1;fontSize=14;exitX=0;exitY=0.5;exitDx=0;exitDy=0;entryX=1;entryY=0.5;entryDx=0;entryDy=0;" parent="1" source="8JxRkpfhtIo6l6xBUs-Y-50" target="8JxRkpfhtIo6l6xBUs-Y-53" edge="1">
          <mxGeometry relative="1" as="geometry">
            <mxPoint x="140" y="3650" as="targetPoint" />
          </mxGeometry>
        </mxCell>
        <mxCell id="8JxRkpfhtIo6l6xBUs-Y-59" value="订单存储，主库Mysql" style="edgeLabel;html=1;align=center;verticalAlign=middle;resizable=0;points=[];fontSize=14;" parent="8JxRkpfhtIo6l6xBUs-Y-56" vertex="1" connectable="0">
          <mxGeometry x="0.1059" relative="1" as="geometry">
            <mxPoint as="offset" />
          </mxGeometry>
        </mxCell>
        <mxCell id="8JxRkpfhtIo6l6xBUs-Y-57" style="edgeStyle=none;rounded=0;orthogonalLoop=1;jettySize=auto;html=1;entryX=1;entryY=0.5;entryDx=0;entryDy=0;fontSize=14;" parent="1" source="8JxRkpfhtIo6l6xBUs-Y-50" target="8JxRkpfhtIo6l6xBUs-Y-54" edge="1">
          <mxGeometry relative="1" as="geometry" />
        </mxCell>
        <mxCell id="8JxRkpfhtIo6l6xBUs-Y-60" value="订单打标，扩展存储NDB" style="edgeLabel;html=1;align=center;verticalAlign=middle;resizable=0;points=[];fontSize=14;" parent="8JxRkpfhtIo6l6xBUs-Y-57" vertex="1" connectable="0">
          <mxGeometry x="0.2596" y="2" relative="1" as="geometry">
            <mxPoint as="offset" />
          </mxGeometry>
        </mxCell>
        <mxCell id="8JxRkpfhtIo6l6xBUs-Y-58" style="edgeStyle=none;rounded=0;orthogonalLoop=1;jettySize=auto;html=1;entryX=1;entryY=0.5;entryDx=0;entryDy=0;fontSize=14;" parent="1" source="8JxRkpfhtIo6l6xBUs-Y-50" target="8JxRkpfhtIo6l6xBUs-Y-55" edge="1">
          <mxGeometry relative="1" as="geometry" />
        </mxCell>
        <mxCell id="8JxRkpfhtIo6l6xBUs-Y-61" value="订单快照存储，Abase" style="edgeLabel;html=1;align=center;verticalAlign=middle;resizable=0;points=[];fontSize=14;" parent="8JxRkpfhtIo6l6xBUs-Y-58" vertex="1" connectable="0">
          <mxGeometry x="0.0512" relative="1" as="geometry">
            <mxPoint as="offset" />
          </mxGeometry>
        </mxCell>
        <mxCell id="8JxRkpfhtIo6l6xBUs-Y-62" style="edgeStyle=none;rounded=0;orthogonalLoop=1;jettySize=auto;html=1;entryX=0.5;entryY=0;entryDx=0;entryDy=0;fontSize=14;" parent="1" source="8JxRkpfhtIo6l6xBUs-Y-50" target="8JxRkpfhtIo6l6xBUs-Y-51" edge="1">
          <mxGeometry relative="1" as="geometry" />
        </mxCell>
        <mxCell id="8JxRkpfhtIo6l6xBUs-Y-65" style="edgeStyle=none;rounded=0;orthogonalLoop=1;jettySize=auto;html=1;entryX=0;entryY=0.5;entryDx=0;entryDy=0;fontSize=14;" parent="1" source="8JxRkpfhtIo6l6xBUs-Y-50" target="8JxRkpfhtIo6l6xBUs-Y-64" edge="1">
          <mxGeometry relative="1" as="geometry" />
        </mxCell>
        <mxCell id="8JxRkpfhtIo6l6xBUs-Y-50" value="创建订单" style="rounded=0;whiteSpace=wrap;html=1;fontSize=14;" parent="1" vertex="1">
          <mxGeometry x="350" y="3720" width="176" height="60" as="geometry" />
        </mxCell>
        <mxCell id="8JxRkpfhtIo6l6xBUs-Y-63" style="edgeStyle=none;rounded=0;orthogonalLoop=1;jettySize=auto;html=1;entryX=0.5;entryY=0;entryDx=0;entryDy=0;fontSize=14;" parent="1" source="8JxRkpfhtIo6l6xBUs-Y-51" target="8JxRkpfhtIo6l6xBUs-Y-52" edge="1">
          <mxGeometry relative="1" as="geometry" />
        </mxCell>
        <mxCell id="8JxRkpfhtIo6l6xBUs-Y-73" value="获取支付Token" style="edgeStyle=none;rounded=0;orthogonalLoop=1;jettySize=auto;html=1;entryX=0;entryY=0.5;entryDx=0;entryDy=0;fontSize=14;" parent="1" source="8JxRkpfhtIo6l6xBUs-Y-51" target="8JxRkpfhtIo6l6xBUs-Y-72" edge="1">
          <mxGeometry relative="1" as="geometry" />
        </mxCell>
        <mxCell id="8JxRkpfhtIo6l6xBUs-Y-51" value="获取支付参数" style="rounded=0;whiteSpace=wrap;html=1;fontSize=14;" parent="1" vertex="1">
          <mxGeometry x="350" y="3870" width="176" height="60" as="geometry" />
        </mxCell>
        <mxCell id="8JxRkpfhtIo6l6xBUs-Y-52" value="构建下单返回结果" style="rounded=0;whiteSpace=wrap;html=1;fontSize=14;" parent="1" vertex="1">
          <mxGeometry x="348.5" y="4020" width="176" height="60" as="geometry" />
        </mxCell>
        <mxCell id="8JxRkpfhtIo6l6xBUs-Y-53" value="订单服务" style="rounded=0;whiteSpace=wrap;html=1;fontSize=14;" parent="1" vertex="1">
          <mxGeometry x="-110" y="3620" width="176" height="60" as="geometry" />
        </mxCell>
        <mxCell id="8JxRkpfhtIo6l6xBUs-Y-54" value="订单打标服务" style="rounded=0;whiteSpace=wrap;html=1;fontSize=14;" parent="1" vertex="1">
          <mxGeometry x="-110" y="3720" width="176" height="60" as="geometry" />
        </mxCell>
        <mxCell id="8JxRkpfhtIo6l6xBUs-Y-55" value="订单快照服务" style="rounded=0;whiteSpace=wrap;html=1;fontSize=14;" parent="1" vertex="1">
          <mxGeometry x="-110" y="3820" width="176" height="60" as="geometry" />
        </mxCell>
        <mxCell id="8JxRkpfhtIo6l6xBUs-Y-68" style="edgeStyle=none;rounded=0;orthogonalLoop=1;jettySize=auto;html=1;entryX=0;entryY=0.5;entryDx=0;entryDy=0;fontSize=14;exitX=1;exitY=0.5;exitDx=0;exitDy=0;" parent="1" source="8JxRkpfhtIo6l6xBUs-Y-64" target="8JxRkpfhtIo6l6xBUs-Y-66" edge="1">
          <mxGeometry relative="1" as="geometry" />
        </mxCell>
        <mxCell id="8JxRkpfhtIo6l6xBUs-Y-70" value="订单列表授权" style="edgeLabel;html=1;align=center;verticalAlign=middle;resizable=0;points=[];fontSize=14;" parent="8JxRkpfhtIo6l6xBUs-Y-68" vertex="1" connectable="0">
          <mxGeometry x="0.0051" y="1" relative="1" as="geometry">
            <mxPoint as="offset" />
          </mxGeometry>
        </mxCell>
        <mxCell id="8JxRkpfhtIo6l6xBUs-Y-69" style="edgeStyle=none;rounded=0;orthogonalLoop=1;jettySize=auto;html=1;entryX=0;entryY=0.5;entryDx=0;entryDy=0;fontSize=14;" parent="1" target="8JxRkpfhtIo6l6xBUs-Y-67" edge="1">
          <mxGeometry relative="1" as="geometry">
            <mxPoint x="800" y="3820" as="sourcePoint" />
          </mxGeometry>
        </mxCell>
        <mxCell id="8JxRkpfhtIo6l6xBUs-Y-71" value="删除购物车" style="edgeLabel;html=1;align=center;verticalAlign=middle;resizable=0;points=[];fontSize=14;" parent="8JxRkpfhtIo6l6xBUs-Y-69" vertex="1" connectable="0">
          <mxGeometry x="-0.0295" relative="1" as="geometry">
            <mxPoint as="offset" />
          </mxGeometry>
        </mxCell>
        <mxCell id="8JxRkpfhtIo6l6xBUs-Y-64" value="下单后置处理" style="rounded=0;whiteSpace=wrap;html=1;fontSize=14;" parent="1" vertex="1">
          <mxGeometry x="620" y="3790" width="176" height="60" as="geometry" />
        </mxCell>
        <mxCell id="8JxRkpfhtIo6l6xBUs-Y-66" value="订单权限服务" style="rounded=0;whiteSpace=wrap;html=1;fontSize=14;" parent="1" vertex="1">
          <mxGeometry x="970" y="3700" width="176" height="60" as="geometry" />
        </mxCell>
        <mxCell id="8JxRkpfhtIo6l6xBUs-Y-67" value="购物车服务" style="rounded=0;whiteSpace=wrap;html=1;fontSize=14;" parent="1" vertex="1">
          <mxGeometry x="976" y="3840" width="176" height="60" as="geometry" />
        </mxCell>
        <mxCell id="8JxRkpfhtIo6l6xBUs-Y-72" value="支付服务" style="rounded=0;whiteSpace=wrap;html=1;fontSize=14;" parent="1" vertex="1">
          <mxGeometry x="976" y="3990" width="176" height="60" as="geometry" />
        </mxCell>
        <mxCell id="8JxRkpfhtIo6l6xBUs-Y-77" value="运费服务" style="rounded=0;whiteSpace=wrap;html=1;fontSize=14;" parent="1" vertex="1">
          <mxGeometry x="950" y="3370" width="176" height="60" as="geometry" />
        </mxCell>
        <mxCell id="8JxRkpfhtIo6l6xBUs-Y-83" value="" style="edgeStyle=none;rounded=0;orthogonalLoop=1;jettySize=auto;html=1;fontSize=14;" parent="1" source="8JxRkpfhtIo6l6xBUs-Y-79" target="8JxRkpfhtIo6l6xBUs-Y-46" edge="1">
          <mxGeometry relative="1" as="geometry" />
        </mxCell>
        <mxCell id="8JxRkpfhtIo6l6xBUs-Y-79" value="" style="shape=orEllipse;perimeter=ellipsePerimeter;whiteSpace=wrap;html=1;backgroundOutline=1;fontSize=14;" parent="1" vertex="1">
          <mxGeometry x="400" y="3070" width="80" height="80" as="geometry" />
        </mxCell>
        <mxCell id="8JxRkpfhtIo6l6xBUs-Y-87" value="红包服务" style="rounded=0;whiteSpace=wrap;html=1;fontSize=14;" parent="1" vertex="1">
          <mxGeometry x="950" y="2940" width="176" height="60" as="geometry" />
        </mxCell>
        <mxCell id="8JxRkpfhtIo6l6xBUs-Y-88" value="优惠券服务" style="rounded=0;whiteSpace=wrap;html=1;fontSize=14;" parent="1" vertex="1">
          <mxGeometry x="950" y="2850" width="176" height="60" as="geometry" />
        </mxCell>
        <mxCell id="8JxRkpfhtIo6l6xBUs-Y-89" value="抽奖资格服务" style="rounded=0;whiteSpace=wrap;html=1;fontSize=14;" parent="1" vertex="1">
          <mxGeometry x="950" y="3020" width="176" height="60" as="geometry" />
        </mxCell>
        <mxCell id="8JxRkpfhtIo6l6xBUs-Y-116" style="edgeStyle=none;rounded=0;orthogonalLoop=1;jettySize=auto;html=1;entryX=0.5;entryY=0;entryDx=0;entryDy=0;fontSize=14;" parent="1" source="8JxRkpfhtIo6l6xBUs-Y-112" target="8JxRkpfhtIo6l6xBUs-Y-28" edge="1">
          <mxGeometry relative="1" as="geometry" />
        </mxCell>
        <mxCell id="8JxRkpfhtIo6l6xBUs-Y-112" value="" style="shape=orEllipse;perimeter=ellipsePerimeter;whiteSpace=wrap;html=1;backgroundOutline=1;fontSize=14;" parent="1" vertex="1">
          <mxGeometry x="400" y="1890" width="80" height="80" as="geometry" />
        </mxCell>
        <mxCell id="8JxRkpfhtIo6l6xBUs-Y-121" value="时效服务" style="rounded=0;whiteSpace=wrap;html=1;fontSize=14;fillColor=#cdeb8b;strokeColor=#36393d;" parent="1" vertex="1">
          <mxGeometry x="-143" y="1890" width="176" height="60" as="geometry" />
        </mxCell>
        <mxCell id="8JxRkpfhtIo6l6xBUs-Y-128" value="" style="edgeStyle=none;rounded=0;orthogonalLoop=1;jettySize=auto;html=1;fontSize=14;" parent="1" source="8JxRkpfhtIo6l6xBUs-Y-125" target="8JxRkpfhtIo6l6xBUs-Y-22" edge="1">
          <mxGeometry relative="1" as="geometry" />
        </mxCell>
        <mxCell id="8JxRkpfhtIo6l6xBUs-Y-125" value="" style="shape=orEllipse;perimeter=ellipsePerimeter;whiteSpace=wrap;html=1;backgroundOutline=1;fontSize=14;" parent="1" vertex="1">
          <mxGeometry x="400" y="1500" width="80" height="80" as="geometry" />
        </mxCell>
        <mxCell id="8JxRkpfhtIo6l6xBUs-Y-151" value="&lt;b&gt;下单API服务&lt;/b&gt;" style="text;html=1;strokeColor=none;fillColor=none;align=center;verticalAlign=middle;whiteSpace=wrap;rounded=0;fontSize=14;" parent="1" vertex="1">
          <mxGeometry x="250" y="40" width="90" height="30" as="geometry" />
        </mxCell>
        <mxCell id="8JxRkpfhtIo6l6xBUs-Y-154" value="&lt;b&gt;下单流程服务&lt;br&gt;（负责处理下单业务主流程）&lt;/b&gt;" style="text;html=1;strokeColor=none;fillColor=none;align=center;verticalAlign=middle;whiteSpace=wrap;rounded=0;fontSize=14;" parent="1" vertex="1">
          <mxGeometry x="566" y="950" width="194" height="30" as="geometry" />
        </mxCell>
        <mxCell id="8JxRkpfhtIo6l6xBUs-Y-157" value="营销服务" style="rounded=0;whiteSpace=wrap;html=1;fontSize=14;" parent="1" vertex="1">
          <mxGeometry x="-143" y="1490" width="176" height="60" as="geometry" />
        </mxCell>
        <mxCell id="8JxRkpfhtIo6l6xBUs-Y-166" value="价格服务" style="rounded=0;whiteSpace=wrap;html=1;fontSize=14;" parent="1" vertex="1">
          <mxGeometry x="950" y="2760" width="176" height="60" as="geometry" />
        </mxCell>
        <mxCell id="8JxRkpfhtIo6l6xBUs-Y-169" value="限购服务" style="rounded=0;whiteSpace=wrap;html=1;fontSize=14;" parent="1" vertex="1">
          <mxGeometry x="-143" y="3060" width="176" height="60" as="geometry" />
        </mxCell>
      </root>
    </mxGraphModel>
  </diagram>
  <diagram id="OWjZUSfGs9xP5q6ZdYwm" name="第 11 页">
    <mxGraphModel dx="1123" dy="663" grid="1" gridSize="10" guides="1" tooltips="1" connect="1" arrows="1" fold="1" page="1" pageScale="1" pageWidth="827" pageHeight="1169" math="0" shadow="0">
      <root>
        <mxCell id="0" />
        <mxCell id="1" parent="0" />
        <mxCell id="SC5L_qLRwxwaQC4BOLta-10" style="edgeStyle=none;rounded=0;orthogonalLoop=1;jettySize=auto;html=1;entryX=0.5;entryY=0;entryDx=0;entryDy=0;fontSize=14;" edge="1" parent="1" source="SC5L_qLRwxwaQC4BOLta-1" target="SC5L_qLRwxwaQC4BOLta-2">
          <mxGeometry relative="1" as="geometry" />
        </mxCell>
        <mxCell id="SC5L_qLRwxwaQC4BOLta-11" style="edgeStyle=none;rounded=0;orthogonalLoop=1;jettySize=auto;html=1;entryX=0.5;entryY=0;entryDx=0;entryDy=0;fontSize=14;" edge="1" parent="1" source="SC5L_qLRwxwaQC4BOLta-1" target="SC5L_qLRwxwaQC4BOLta-3">
          <mxGeometry relative="1" as="geometry" />
        </mxCell>
        <mxCell id="SC5L_qLRwxwaQC4BOLta-25" value="&lt;div style=&quot;text-align: left;&quot;&gt;业务身份：xiaodian&lt;/div&gt;&lt;div style=&quot;text-align: left;&quot;&gt;玩法：拼团&lt;/div&gt;" style="edgeLabel;html=1;align=center;verticalAlign=middle;resizable=0;points=[];fontSize=14;" vertex="1" connectable="0" parent="SC5L_qLRwxwaQC4BOLta-11">
          <mxGeometry x="0.2644" y="-1" relative="1" as="geometry">
            <mxPoint x="1" as="offset" />
          </mxGeometry>
        </mxCell>
        <mxCell id="SC5L_qLRwxwaQC4BOLta-12" style="edgeStyle=none;rounded=0;orthogonalLoop=1;jettySize=auto;html=1;entryX=0.5;entryY=0;entryDx=0;entryDy=0;fontSize=14;" edge="1" parent="1" source="SC5L_qLRwxwaQC4BOLta-1" target="SC5L_qLRwxwaQC4BOLta-4">
          <mxGeometry relative="1" as="geometry" />
        </mxCell>
        <mxCell id="SC5L_qLRwxwaQC4BOLta-26" value="&lt;div style=&quot;text-align: left;&quot;&gt;&lt;div&gt;业务身份：xiaodian&lt;/div&gt;&lt;div&gt;玩法：定金预售&lt;/div&gt;&lt;/div&gt;" style="edgeLabel;html=1;align=center;verticalAlign=middle;resizable=0;points=[];fontSize=14;" vertex="1" connectable="0" parent="SC5L_qLRwxwaQC4BOLta-12">
          <mxGeometry x="0.5537" y="1" relative="1" as="geometry">
            <mxPoint as="offset" />
          </mxGeometry>
        </mxCell>
        <mxCell id="SC5L_qLRwxwaQC4BOLta-13" style="edgeStyle=none;rounded=0;orthogonalLoop=1;jettySize=auto;html=1;entryX=0.5;entryY=0;entryDx=0;entryDy=0;fontSize=14;" edge="1" parent="1" source="SC5L_qLRwxwaQC4BOLta-1" target="SC5L_qLRwxwaQC4BOLta-5">
          <mxGeometry relative="1" as="geometry" />
        </mxCell>
        <mxCell id="SC5L_qLRwxwaQC4BOLta-27" value="&lt;div style=&quot;text-align: left;&quot;&gt;业务身份：xiaodian&lt;/div&gt;&lt;div style=&quot;text-align: left;&quot;&gt;玩法：定金找货&lt;/div&gt;" style="edgeLabel;html=1;align=center;verticalAlign=middle;resizable=0;points=[];fontSize=14;" vertex="1" connectable="0" parent="SC5L_qLRwxwaQC4BOLta-13">
          <mxGeometry x="0.1724" y="1" relative="1" as="geometry">
            <mxPoint as="offset" />
          </mxGeometry>
        </mxCell>
        <mxCell id="SC5L_qLRwxwaQC4BOLta-14" style="edgeStyle=none;rounded=0;orthogonalLoop=1;jettySize=auto;html=1;fontSize=14;" edge="1" parent="1" source="SC5L_qLRwxwaQC4BOLta-1" target="SC5L_qLRwxwaQC4BOLta-6">
          <mxGeometry relative="1" as="geometry" />
        </mxCell>
        <mxCell id="SC5L_qLRwxwaQC4BOLta-28" value="&lt;div style=&quot;text-align: left;&quot;&gt;业务身份：xiaodian、xiaodian.crab&lt;/div&gt;&lt;div style=&quot;text-align: left;&quot;&gt;玩法：0元抽奖/寄样/0元兑换&lt;/div&gt;" style="edgeLabel;html=1;align=center;verticalAlign=middle;resizable=0;points=[];fontSize=14;" vertex="1" connectable="0" parent="SC5L_qLRwxwaQC4BOLta-14">
          <mxGeometry x="0.5671" relative="1" as="geometry">
            <mxPoint as="offset" />
          </mxGeometry>
        </mxCell>
        <mxCell id="SC5L_qLRwxwaQC4BOLta-15" style="edgeStyle=none;rounded=0;orthogonalLoop=1;jettySize=auto;html=1;entryX=0.5;entryY=0;entryDx=0;entryDy=0;fontSize=14;" edge="1" parent="1" source="SC5L_qLRwxwaQC4BOLta-1" target="SC5L_qLRwxwaQC4BOLta-7">
          <mxGeometry relative="1" as="geometry" />
        </mxCell>
        <mxCell id="SC5L_qLRwxwaQC4BOLta-29" value="&lt;div style=&quot;text-align: left;&quot;&gt;业务身份：xiaodian、secondhand&lt;/div&gt;&lt;div style=&quot;text-align: left;&quot;&gt;玩法：回收&lt;/div&gt;" style="edgeLabel;html=1;align=center;verticalAlign=middle;resizable=0;points=[];fontSize=14;" vertex="1" connectable="0" parent="SC5L_qLRwxwaQC4BOLta-15">
          <mxGeometry x="0.58" y="-2" relative="1" as="geometry">
            <mxPoint as="offset" />
          </mxGeometry>
        </mxCell>
        <mxCell id="SC5L_qLRwxwaQC4BOLta-16" style="edgeStyle=none;rounded=0;orthogonalLoop=1;jettySize=auto;html=1;entryX=0.5;entryY=0;entryDx=0;entryDy=0;fontSize=14;" edge="1" parent="1" source="SC5L_qLRwxwaQC4BOLta-1" target="SC5L_qLRwxwaQC4BOLta-8">
          <mxGeometry relative="1" as="geometry" />
        </mxCell>
        <mxCell id="SC5L_qLRwxwaQC4BOLta-30" value="&lt;div style=&quot;text-align: left;&quot;&gt;业务身份：xiaodian&lt;/div&gt;&lt;div style=&quot;text-align: left;&quot;&gt;玩法：赠品&lt;/div&gt;" style="edgeLabel;html=1;align=center;verticalAlign=middle;resizable=0;points=[];fontSize=14;" vertex="1" connectable="0" parent="SC5L_qLRwxwaQC4BOLta-16">
          <mxGeometry x="0.7172" relative="1" as="geometry">
            <mxPoint as="offset" />
          </mxGeometry>
        </mxCell>
        <mxCell id="SC5L_qLRwxwaQC4BOLta-1" value="" style="ellipse;html=1;shape=endState;fillColor=#000000;strokeColor=#ff0000;fontSize=14;" vertex="1" parent="1">
          <mxGeometry x="710" y="90" width="60" height="60" as="geometry" />
        </mxCell>
        <mxCell id="SC5L_qLRwxwaQC4BOLta-17" style="edgeStyle=none;rounded=0;orthogonalLoop=1;jettySize=auto;html=1;entryX=0;entryY=0.5;entryDx=0;entryDy=0;fontSize=14;" edge="1" parent="1" source="SC5L_qLRwxwaQC4BOLta-2" target="SC5L_qLRwxwaQC4BOLta-9">
          <mxGeometry relative="1" as="geometry" />
        </mxCell>
        <mxCell id="SC5L_qLRwxwaQC4BOLta-2" value="标准下单流程" style="rounded=0;whiteSpace=wrap;html=1;fontSize=14;" vertex="1" parent="1">
          <mxGeometry x="100" y="400" width="140" height="50" as="geometry" />
        </mxCell>
        <mxCell id="SC5L_qLRwxwaQC4BOLta-18" style="edgeStyle=none;rounded=0;orthogonalLoop=1;jettySize=auto;html=1;entryX=0;entryY=0;entryDx=0;entryDy=0;fontSize=14;" edge="1" parent="1" source="SC5L_qLRwxwaQC4BOLta-3" target="SC5L_qLRwxwaQC4BOLta-9">
          <mxGeometry relative="1" as="geometry" />
        </mxCell>
        <mxCell id="SC5L_qLRwxwaQC4BOLta-3" value="拼团下单流程" style="rounded=0;whiteSpace=wrap;html=1;fontSize=14;" vertex="1" parent="1">
          <mxGeometry x="330" y="400" width="140" height="50" as="geometry" />
        </mxCell>
        <mxCell id="SC5L_qLRwxwaQC4BOLta-19" style="edgeStyle=none;rounded=0;orthogonalLoop=1;jettySize=auto;html=1;entryX=0.319;entryY=0.1;entryDx=0;entryDy=0;fontSize=14;entryPerimeter=0;" edge="1" parent="1" source="SC5L_qLRwxwaQC4BOLta-4" target="SC5L_qLRwxwaQC4BOLta-9">
          <mxGeometry relative="1" as="geometry" />
        </mxCell>
        <mxCell id="SC5L_qLRwxwaQC4BOLta-4" value="定金预售下单流程" style="rounded=0;whiteSpace=wrap;html=1;fontSize=14;" vertex="1" parent="1">
          <mxGeometry x="500" y="400" width="140" height="50" as="geometry" />
        </mxCell>
        <mxCell id="SC5L_qLRwxwaQC4BOLta-20" style="edgeStyle=none;rounded=0;orthogonalLoop=1;jettySize=auto;html=1;entryX=0.5;entryY=0;entryDx=0;entryDy=0;fontSize=14;" edge="1" parent="1" source="SC5L_qLRwxwaQC4BOLta-5" target="SC5L_qLRwxwaQC4BOLta-9">
          <mxGeometry relative="1" as="geometry" />
        </mxCell>
        <mxCell id="SC5L_qLRwxwaQC4BOLta-5" value="定金找货下单流程" style="rounded=0;whiteSpace=wrap;html=1;fontSize=14;" vertex="1" parent="1">
          <mxGeometry x="670" y="400" width="140" height="50" as="geometry" />
        </mxCell>
        <mxCell id="SC5L_qLRwxwaQC4BOLta-21" style="edgeStyle=none;rounded=0;orthogonalLoop=1;jettySize=auto;html=1;entryX=1;entryY=0;entryDx=0;entryDy=0;fontSize=14;" edge="1" parent="1" source="SC5L_qLRwxwaQC4BOLta-6" target="SC5L_qLRwxwaQC4BOLta-9">
          <mxGeometry relative="1" as="geometry" />
        </mxCell>
        <mxCell id="SC5L_qLRwxwaQC4BOLta-6" value="0元单下单流程" style="rounded=0;whiteSpace=wrap;html=1;fontSize=14;" vertex="1" parent="1">
          <mxGeometry x="840" y="400" width="140" height="50" as="geometry" />
        </mxCell>
        <mxCell id="SC5L_qLRwxwaQC4BOLta-22" style="edgeStyle=none;rounded=0;orthogonalLoop=1;jettySize=auto;html=1;entryX=1.01;entryY=0.362;entryDx=0;entryDy=0;entryPerimeter=0;fontSize=14;" edge="1" parent="1" source="SC5L_qLRwxwaQC4BOLta-7" target="SC5L_qLRwxwaQC4BOLta-9">
          <mxGeometry relative="1" as="geometry" />
        </mxCell>
        <mxCell id="SC5L_qLRwxwaQC4BOLta-7" value="回收/济麦下单流程" style="rounded=0;whiteSpace=wrap;html=1;fontSize=14;" vertex="1" parent="1">
          <mxGeometry x="1100" y="400" width="140" height="50" as="geometry" />
        </mxCell>
        <mxCell id="SC5L_qLRwxwaQC4BOLta-23" style="edgeStyle=none;rounded=0;orthogonalLoop=1;jettySize=auto;html=1;entryX=1;entryY=0.5;entryDx=0;entryDy=0;fontSize=14;" edge="1" parent="1" source="SC5L_qLRwxwaQC4BOLta-8" target="SC5L_qLRwxwaQC4BOLta-9">
          <mxGeometry relative="1" as="geometry" />
        </mxCell>
        <mxCell id="SC5L_qLRwxwaQC4BOLta-8" value="赠品下单流程" style="rounded=0;whiteSpace=wrap;html=1;fontSize=14;" vertex="1" parent="1">
          <mxGeometry x="1300" y="400" width="140" height="50" as="geometry" />
        </mxCell>
        <mxCell id="SC5L_qLRwxwaQC4BOLta-9" value="" style="ellipse;html=1;shape=endState;fillColor=#000000;strokeColor=#ff0000;fontSize=14;" vertex="1" parent="1">
          <mxGeometry x="710" y="680" width="60" height="60" as="geometry" />
        </mxCell>
        <mxCell id="SC5L_qLRwxwaQC4BOLta-31" value="业务身份：&lt;br&gt;xiaodian&lt;br&gt;xiaodian.ev&lt;br&gt;xiaodian.hainan&lt;br&gt;xiaodian.dcar&lt;br&gt;xiaodian.insuance&lt;br&gt;xiaodian.douplus&lt;br&gt;xiaodian.crossborder" style="text;html=1;strokeColor=none;fillColor=none;align=left;verticalAlign=middle;whiteSpace=wrap;rounded=0;fontSize=14;" vertex="1" parent="1">
          <mxGeometry x="170" y="200" width="170" height="160" as="geometry" />
        </mxCell>
      </root>
    </mxGraphModel>
  </diagram>
  <diagram id="kMZPhaU0_jqNDo6_d3Hd" name="第 12 页">
    <mxGraphModel dx="2792" dy="1160" grid="1" gridSize="10" guides="1" tooltips="1" connect="1" arrows="1" fold="1" page="1" pageScale="1" pageWidth="827" pageHeight="1169" math="0" shadow="0">
      <root>
        <mxCell id="0" />
        <mxCell id="1" parent="0" />
        <mxCell id="PLFR-2SXMFGkghmjhbYo-1" value="拍下单" style="swimlane;childLayout=stackLayout;horizontal=1;startSize=30;horizontalStack=0;rounded=1;fontSize=14;fontStyle=0;strokeWidth=2;resizeParent=0;resizeLast=1;shadow=0;dashed=0;align=center;fillColor=#b0e3e6;strokeColor=#0e8088;" vertex="1" parent="1">
          <mxGeometry x="330" y="100" width="160" height="120" as="geometry" />
        </mxCell>
        <mxCell id="PLFR-2SXMFGkghmjhbYo-2" value="拍下单号&#xa;订单信息" style="align=left;strokeColor=none;fillColor=none;spacingLeft=4;fontSize=12;verticalAlign=top;resizable=0;rotatable=0;part=1;" vertex="1" parent="PLFR-2SXMFGkghmjhbYo-1">
          <mxGeometry y="30" width="160" height="90" as="geometry" />
        </mxCell>
        <mxCell id="PLFR-2SXMFGkghmjhbYo-4" value="支付主单" style="swimlane;childLayout=stackLayout;horizontal=1;startSize=30;horizontalStack=0;rounded=1;fontSize=14;fontStyle=0;strokeWidth=2;resizeParent=0;resizeLast=1;shadow=0;dashed=0;align=center;fillColor=#d5e8d4;strokeColor=#82b366;" vertex="1" parent="1">
          <mxGeometry x="690" y="100" width="160" height="120" as="geometry" />
        </mxCell>
        <mxCell id="PLFR-2SXMFGkghmjhbYo-5" value="支付单号&#xa;支付信息" style="align=left;strokeColor=none;fillColor=none;spacingLeft=4;fontSize=12;verticalAlign=top;resizable=0;rotatable=0;part=1;" vertex="1" parent="PLFR-2SXMFGkghmjhbYo-4">
          <mxGeometry y="30" width="160" height="90" as="geometry" />
        </mxCell>
        <mxCell id="PLFR-2SXMFGkghmjhbYo-6" value="（外部）支付请求单" style="swimlane;childLayout=stackLayout;horizontal=1;startSize=30;horizontalStack=0;rounded=1;fontSize=14;fontStyle=0;strokeWidth=2;resizeParent=0;resizeLast=1;shadow=0;dashed=0;align=center;fillColor=#d80073;strokeColor=#A50040;fontColor=#ffffff;" vertex="1" parent="1">
          <mxGeometry x="1040" y="100" width="160" height="120" as="geometry" />
        </mxCell>
        <mxCell id="PLFR-2SXMFGkghmjhbYo-7" value="支付单号&#xa;支付信息" style="align=left;strokeColor=none;fillColor=none;spacingLeft=4;fontSize=12;verticalAlign=top;resizable=0;rotatable=0;part=1;" vertex="1" parent="PLFR-2SXMFGkghmjhbYo-6">
          <mxGeometry y="30" width="160" height="90" as="geometry" />
        </mxCell>
        <mxCell id="PLFR-2SXMFGkghmjhbYo-8" value="店铺单" style="swimlane;childLayout=stackLayout;horizontal=1;startSize=30;horizontalStack=0;rounded=1;fontSize=14;fontStyle=0;strokeWidth=2;resizeParent=0;resizeLast=1;shadow=0;dashed=0;align=center;fillColor=#b0e3e6;strokeColor=#0e8088;" vertex="1" parent="1">
          <mxGeometry x="334" y="330" width="160" height="120" as="geometry" />
        </mxCell>
        <mxCell id="PLFR-2SXMFGkghmjhbYo-9" value="店铺单号&#xa;订单信息" style="align=left;strokeColor=none;fillColor=none;spacingLeft=4;fontSize=12;verticalAlign=top;resizable=0;rotatable=0;part=1;" vertex="1" parent="PLFR-2SXMFGkghmjhbYo-8">
          <mxGeometry y="30" width="160" height="90" as="geometry" />
        </mxCell>
        <mxCell id="PLFR-2SXMFGkghmjhbYo-10" value="支付子单" style="swimlane;childLayout=stackLayout;horizontal=1;startSize=30;horizontalStack=0;rounded=1;fontSize=14;fontStyle=0;strokeWidth=2;resizeParent=0;resizeLast=1;shadow=0;dashed=0;align=center;fillColor=#d5e8d4;strokeColor=#82b366;" vertex="1" parent="1">
          <mxGeometry x="690" y="330" width="160" height="120" as="geometry" />
        </mxCell>
        <mxCell id="PLFR-2SXMFGkghmjhbYo-11" value="店铺单号&#xa;订单信息" style="align=left;strokeColor=none;fillColor=none;spacingLeft=4;fontSize=12;verticalAlign=top;resizable=0;rotatable=0;part=1;" vertex="1" parent="PLFR-2SXMFGkghmjhbYo-10">
          <mxGeometry y="30" width="160" height="90" as="geometry" />
        </mxCell>
        <mxCell id="PLFR-2SXMFGkghmjhbYo-12" value="履约主单" style="swimlane;childLayout=stackLayout;horizontal=1;startSize=30;horizontalStack=0;rounded=1;fontSize=14;fontStyle=0;strokeWidth=2;resizeParent=0;resizeLast=1;shadow=0;dashed=0;align=center;fillColor=#ffff88;strokeColor=#36393d;" vertex="1" parent="1">
          <mxGeometry x="30" y="330" width="160" height="120" as="geometry" />
        </mxCell>
        <mxCell id="PLFR-2SXMFGkghmjhbYo-13" value="****&#xa;****" style="align=left;strokeColor=none;fillColor=none;spacingLeft=4;fontSize=12;verticalAlign=top;resizable=0;rotatable=0;part=1;" vertex="1" parent="PLFR-2SXMFGkghmjhbYo-12">
          <mxGeometry y="30" width="160" height="90" as="geometry" />
        </mxCell>
        <mxCell id="PLFR-2SXMFGkghmjhbYo-14" value="店铺单" style="swimlane;childLayout=stackLayout;horizontal=1;startSize=30;horizontalStack=0;rounded=1;fontSize=14;fontStyle=0;strokeWidth=2;resizeParent=0;resizeLast=1;shadow=0;dashed=0;align=center;fillColor=#b0e3e6;strokeColor=#0e8088;" vertex="1" parent="1">
          <mxGeometry x="334" y="580" width="160" height="120" as="geometry" />
        </mxCell>
        <mxCell id="PLFR-2SXMFGkghmjhbYo-15" value="商品单号&#xa;订单信息" style="align=left;strokeColor=none;fillColor=none;spacingLeft=4;fontSize=12;verticalAlign=top;resizable=0;rotatable=0;part=1;" vertex="1" parent="PLFR-2SXMFGkghmjhbYo-14">
          <mxGeometry y="30" width="160" height="90" as="geometry" />
        </mxCell>
        <mxCell id="PLFR-2SXMFGkghmjhbYo-17" value="item单" style="swimlane;childLayout=stackLayout;horizontal=1;startSize=30;horizontalStack=0;rounded=1;fontSize=14;fontStyle=0;strokeWidth=2;resizeParent=0;resizeLast=1;shadow=0;dashed=0;align=center;fillColor=#b0e3e6;strokeColor=#0e8088;" vertex="1" parent="1">
          <mxGeometry x="333" y="810" width="160" height="120" as="geometry" />
        </mxCell>
        <mxCell id="PLFR-2SXMFGkghmjhbYo-18" value="item单号&#xa;订单信息" style="align=left;strokeColor=none;fillColor=none;spacingLeft=4;fontSize=12;verticalAlign=top;resizable=0;rotatable=0;part=1;" vertex="1" parent="PLFR-2SXMFGkghmjhbYo-17">
          <mxGeometry y="30" width="160" height="90" as="geometry" />
        </mxCell>
        <mxCell id="PLFR-2SXMFGkghmjhbYo-19" value="售后主单" style="swimlane;childLayout=stackLayout;horizontal=1;startSize=30;horizontalStack=0;rounded=1;fontSize=14;fontStyle=0;strokeWidth=2;resizeParent=0;resizeLast=1;shadow=0;dashed=0;align=center;fillColor=#fad9d5;strokeColor=#ae4132;" vertex="1" parent="1">
          <mxGeometry x="690" y="580" width="160" height="120" as="geometry" />
        </mxCell>
        <mxCell id="PLFR-2SXMFGkghmjhbYo-20" value="****&#xa;****" style="align=left;strokeColor=none;fillColor=none;spacingLeft=4;fontSize=12;verticalAlign=top;resizable=0;rotatable=0;part=1;" vertex="1" parent="PLFR-2SXMFGkghmjhbYo-19">
          <mxGeometry y="30" width="160" height="90" as="geometry" />
        </mxCell>
        <mxCell id="PLFR-2SXMFGkghmjhbYo-22" value="售后子单" style="swimlane;childLayout=stackLayout;horizontal=1;startSize=30;horizontalStack=0;rounded=1;fontSize=14;fontStyle=0;strokeWidth=2;resizeParent=0;resizeLast=1;shadow=0;dashed=0;align=center;fillColor=#fad9d5;strokeColor=#ae4132;" vertex="1" parent="1">
          <mxGeometry x="690" y="810" width="160" height="120" as="geometry" />
        </mxCell>
        <mxCell id="PLFR-2SXMFGkghmjhbYo-23" value="****&#xa;****" style="align=left;strokeColor=none;fillColor=none;spacingLeft=4;fontSize=12;verticalAlign=top;resizable=0;rotatable=0;part=1;" vertex="1" parent="PLFR-2SXMFGkghmjhbYo-22">
          <mxGeometry y="30" width="160" height="90" as="geometry" />
        </mxCell>
        <mxCell id="PLFR-2SXMFGkghmjhbYo-24" value="退款单" style="swimlane;childLayout=stackLayout;horizontal=1;startSize=30;horizontalStack=0;rounded=1;fontSize=14;fontStyle=0;strokeWidth=2;resizeParent=0;resizeLast=1;shadow=0;dashed=0;align=center;fillColor=#f8cecc;strokeColor=#b85450;" vertex="1" parent="1">
          <mxGeometry x="1040" y="580" width="160" height="120" as="geometry" />
        </mxCell>
        <mxCell id="PLFR-2SXMFGkghmjhbYo-25" value="****&#xa;****" style="align=left;strokeColor=none;fillColor=none;spacingLeft=4;fontSize=12;verticalAlign=top;resizable=0;rotatable=0;part=1;" vertex="1" parent="PLFR-2SXMFGkghmjhbYo-24">
          <mxGeometry y="30" width="160" height="90" as="geometry" />
        </mxCell>
        <mxCell id="PLFR-2SXMFGkghmjhbYo-26" value="履约子单" style="swimlane;childLayout=stackLayout;horizontal=1;startSize=30;horizontalStack=0;rounded=1;fontSize=14;fontStyle=0;strokeWidth=2;resizeParent=0;resizeLast=1;shadow=0;dashed=0;align=center;fillColor=#ffff88;strokeColor=#36393d;" vertex="1" parent="1">
          <mxGeometry x="30" y="580" width="160" height="120" as="geometry" />
        </mxCell>
        <mxCell id="PLFR-2SXMFGkghmjhbYo-27" value="****&#xa;****" style="align=left;strokeColor=none;fillColor=none;spacingLeft=4;fontSize=12;verticalAlign=top;resizable=0;rotatable=0;part=1;" vertex="1" parent="PLFR-2SXMFGkghmjhbYo-26">
          <mxGeometry y="30" width="160" height="90" as="geometry" />
        </mxCell>
        <mxCell id="PLFR-2SXMFGkghmjhbYo-28" value="包裹运单" style="swimlane;childLayout=stackLayout;horizontal=1;startSize=30;horizontalStack=0;rounded=1;fontSize=14;fontStyle=0;strokeWidth=2;resizeParent=0;resizeLast=1;shadow=0;dashed=0;align=center;fillColor=#ffff88;strokeColor=#36393d;" vertex="1" parent="1">
          <mxGeometry x="-260" y="580" width="160" height="120" as="geometry" />
        </mxCell>
        <mxCell id="PLFR-2SXMFGkghmjhbYo-29" value="****&#xa;****" style="align=left;strokeColor=none;fillColor=none;spacingLeft=4;fontSize=12;verticalAlign=top;resizable=0;rotatable=0;part=1;" vertex="1" parent="PLFR-2SXMFGkghmjhbYo-28">
          <mxGeometry y="30" width="160" height="90" as="geometry" />
        </mxCell>
        <mxCell id="PLFR-2SXMFGkghmjhbYo-30" value="物流订单" style="swimlane;childLayout=stackLayout;horizontal=1;startSize=30;horizontalStack=0;rounded=1;fontSize=14;fontStyle=0;strokeWidth=2;resizeParent=0;resizeLast=1;shadow=0;dashed=0;align=center;fillColor=#eeeeee;strokeColor=#36393d;" vertex="1" parent="1">
          <mxGeometry x="-260" y="810" width="160" height="120" as="geometry" />
        </mxCell>
        <mxCell id="PLFR-2SXMFGkghmjhbYo-31" value="****&#xa;****" style="align=left;strokeColor=none;fillColor=none;spacingLeft=4;fontSize=12;verticalAlign=top;resizable=0;rotatable=0;part=1;" vertex="1" parent="PLFR-2SXMFGkghmjhbYo-30">
          <mxGeometry y="30" width="160" height="90" as="geometry" />
        </mxCell>
        <mxCell id="PLFR-2SXMFGkghmjhbYo-32" value="物流履行单" style="swimlane;childLayout=stackLayout;horizontal=1;startSize=30;horizontalStack=0;rounded=1;fontSize=14;fontStyle=0;strokeWidth=2;resizeParent=0;resizeLast=1;shadow=0;dashed=0;align=center;fillColor=#eeeeee;strokeColor=#36393d;" vertex="1" parent="1">
          <mxGeometry x="-260" y="1049" width="160" height="120" as="geometry" />
        </mxCell>
        <mxCell id="PLFR-2SXMFGkghmjhbYo-33" value="****&#xa;****" style="align=left;strokeColor=none;fillColor=none;spacingLeft=4;fontSize=12;verticalAlign=top;resizable=0;rotatable=0;part=1;" vertex="1" parent="PLFR-2SXMFGkghmjhbYo-32">
          <mxGeometry y="30" width="160" height="90" as="geometry" />
        </mxCell>
        <mxCell id="PLFR-2SXMFGkghmjhbYo-34" value="订单快照" style="swimlane;childLayout=stackLayout;horizontal=1;startSize=30;horizontalStack=0;rounded=1;fontSize=14;fontStyle=0;strokeWidth=2;resizeParent=0;resizeLast=1;shadow=0;dashed=0;align=center;fillColor=#b0e3e6;strokeColor=#0e8088;" vertex="1" parent="1">
          <mxGeometry x="20" y="810" width="160" height="120" as="geometry" />
        </mxCell>
        <mxCell id="PLFR-2SXMFGkghmjhbYo-35" value="****&#xa;****" style="align=left;strokeColor=none;fillColor=none;spacingLeft=4;fontSize=12;verticalAlign=top;resizable=0;rotatable=0;part=1;" vertex="1" parent="PLFR-2SXMFGkghmjhbYo-34">
          <mxGeometry y="30" width="160" height="90" as="geometry" />
        </mxCell>
        <mxCell id="PLFR-2SXMFGkghmjhbYo-36" style="edgeStyle=none;rounded=0;orthogonalLoop=1;jettySize=auto;html=1;entryX=0.5;entryY=0;entryDx=0;entryDy=0;fontSize=14;" edge="1" parent="1" source="PLFR-2SXMFGkghmjhbYo-2" target="PLFR-2SXMFGkghmjhbYo-8">
          <mxGeometry relative="1" as="geometry" />
        </mxCell>
        <mxCell id="PLFR-2SXMFGkghmjhbYo-37" value="1" style="edgeLabel;html=1;align=center;verticalAlign=middle;resizable=0;points=[];fontSize=14;" vertex="1" connectable="0" parent="PLFR-2SXMFGkghmjhbYo-36">
          <mxGeometry x="-0.6353" y="1" relative="1" as="geometry">
            <mxPoint as="offset" />
          </mxGeometry>
        </mxCell>
        <mxCell id="PLFR-2SXMFGkghmjhbYo-38" value="n" style="edgeLabel;html=1;align=center;verticalAlign=middle;resizable=0;points=[];fontSize=14;" vertex="1" connectable="0" parent="PLFR-2SXMFGkghmjhbYo-36">
          <mxGeometry x="0.4167" y="-1" relative="1" as="geometry">
            <mxPoint as="offset" />
          </mxGeometry>
        </mxCell>
        <mxCell id="PLFR-2SXMFGkghmjhbYo-39" style="edgeStyle=none;rounded=0;orthogonalLoop=1;jettySize=auto;html=1;entryX=0;entryY=0.5;entryDx=0;entryDy=0;fontSize=14;" edge="1" parent="1" source="PLFR-2SXMFGkghmjhbYo-2" target="PLFR-2SXMFGkghmjhbYo-5">
          <mxGeometry relative="1" as="geometry" />
        </mxCell>
        <mxCell id="PLFR-2SXMFGkghmjhbYo-40" value="1" style="edgeLabel;html=1;align=center;verticalAlign=middle;resizable=0;points=[];fontSize=14;" vertex="1" connectable="0" parent="PLFR-2SXMFGkghmjhbYo-39">
          <mxGeometry x="-0.4973" y="-1" relative="1" as="geometry">
            <mxPoint as="offset" />
          </mxGeometry>
        </mxCell>
        <mxCell id="PLFR-2SXMFGkghmjhbYo-41" value="1" style="edgeLabel;html=1;align=center;verticalAlign=middle;resizable=0;points=[];fontSize=14;" vertex="1" connectable="0" parent="PLFR-2SXMFGkghmjhbYo-39">
          <mxGeometry x="0.5573" y="1" relative="1" as="geometry">
            <mxPoint as="offset" />
          </mxGeometry>
        </mxCell>
        <mxCell id="PLFR-2SXMFGkghmjhbYo-42" style="edgeStyle=none;rounded=0;orthogonalLoop=1;jettySize=auto;html=1;entryX=1;entryY=0.5;entryDx=0;entryDy=0;fontSize=14;" edge="1" parent="1" source="PLFR-2SXMFGkghmjhbYo-9" target="PLFR-2SXMFGkghmjhbYo-13">
          <mxGeometry relative="1" as="geometry" />
        </mxCell>
        <mxCell id="PLFR-2SXMFGkghmjhbYo-43" style="edgeStyle=none;rounded=0;orthogonalLoop=1;jettySize=auto;html=1;entryX=0;entryY=0.5;entryDx=0;entryDy=0;fontSize=14;" edge="1" parent="1" source="PLFR-2SXMFGkghmjhbYo-9" target="PLFR-2SXMFGkghmjhbYo-11">
          <mxGeometry relative="1" as="geometry" />
        </mxCell>
        <mxCell id="PLFR-2SXMFGkghmjhbYo-44" value="1" style="edgeLabel;html=1;align=center;verticalAlign=middle;resizable=0;points=[];fontSize=14;" vertex="1" connectable="0" parent="PLFR-2SXMFGkghmjhbYo-43">
          <mxGeometry x="-0.5476" y="1" relative="1" as="geometry">
            <mxPoint as="offset" />
          </mxGeometry>
        </mxCell>
        <mxCell id="PLFR-2SXMFGkghmjhbYo-45" value="1" style="edgeLabel;html=1;align=center;verticalAlign=middle;resizable=0;points=[];fontSize=14;" vertex="1" connectable="0" parent="PLFR-2SXMFGkghmjhbYo-43">
          <mxGeometry x="0.5544" y="1" relative="1" as="geometry">
            <mxPoint as="offset" />
          </mxGeometry>
        </mxCell>
        <mxCell id="PLFR-2SXMFGkghmjhbYo-46" style="edgeStyle=none;rounded=0;orthogonalLoop=1;jettySize=auto;html=1;entryX=0.5;entryY=0;entryDx=0;entryDy=0;fontSize=14;" edge="1" parent="1" source="PLFR-2SXMFGkghmjhbYo-5" target="PLFR-2SXMFGkghmjhbYo-10">
          <mxGeometry relative="1" as="geometry" />
        </mxCell>
        <mxCell id="PLFR-2SXMFGkghmjhbYo-47" value="1" style="edgeLabel;html=1;align=center;verticalAlign=middle;resizable=0;points=[];fontSize=14;" vertex="1" connectable="0" parent="PLFR-2SXMFGkghmjhbYo-46">
          <mxGeometry x="-0.4727" y="3" relative="1" as="geometry">
            <mxPoint as="offset" />
          </mxGeometry>
        </mxCell>
        <mxCell id="PLFR-2SXMFGkghmjhbYo-48" value="n" style="edgeLabel;html=1;align=center;verticalAlign=middle;resizable=0;points=[];fontSize=14;" vertex="1" connectable="0" parent="PLFR-2SXMFGkghmjhbYo-46">
          <mxGeometry x="0.4727" y="3" relative="1" as="geometry">
            <mxPoint as="offset" />
          </mxGeometry>
        </mxCell>
        <mxCell id="PLFR-2SXMFGkghmjhbYo-49" style="edgeStyle=none;rounded=0;orthogonalLoop=1;jettySize=auto;html=1;entryX=0;entryY=0.5;entryDx=0;entryDy=0;fontSize=14;" edge="1" parent="1" source="PLFR-2SXMFGkghmjhbYo-5" target="PLFR-2SXMFGkghmjhbYo-7">
          <mxGeometry relative="1" as="geometry" />
        </mxCell>
        <mxCell id="PLFR-2SXMFGkghmjhbYo-50" value="1" style="edgeLabel;html=1;align=center;verticalAlign=middle;resizable=0;points=[];fontSize=14;" vertex="1" connectable="0" parent="PLFR-2SXMFGkghmjhbYo-49">
          <mxGeometry x="-0.6035" y="-2" relative="1" as="geometry">
            <mxPoint as="offset" />
          </mxGeometry>
        </mxCell>
        <mxCell id="PLFR-2SXMFGkghmjhbYo-51" value="1" style="edgeLabel;html=1;align=center;verticalAlign=middle;resizable=0;points=[];fontSize=14;" vertex="1" connectable="0" parent="PLFR-2SXMFGkghmjhbYo-49">
          <mxGeometry x="0.5193" y="-2" relative="1" as="geometry">
            <mxPoint as="offset" />
          </mxGeometry>
        </mxCell>
        <mxCell id="PLFR-2SXMFGkghmjhbYo-52" style="edgeStyle=none;rounded=0;orthogonalLoop=1;jettySize=auto;html=1;entryX=0.5;entryY=0;entryDx=0;entryDy=0;fontSize=14;" edge="1" parent="1" source="PLFR-2SXMFGkghmjhbYo-9" target="PLFR-2SXMFGkghmjhbYo-14">
          <mxGeometry relative="1" as="geometry" />
        </mxCell>
        <mxCell id="PLFR-2SXMFGkghmjhbYo-53" value="1" style="edgeLabel;html=1;align=center;verticalAlign=middle;resizable=0;points=[];fontSize=14;" vertex="1" connectable="0" parent="PLFR-2SXMFGkghmjhbYo-52">
          <mxGeometry x="-0.6256" y="3" relative="1" as="geometry">
            <mxPoint as="offset" />
          </mxGeometry>
        </mxCell>
        <mxCell id="PLFR-2SXMFGkghmjhbYo-54" value="n" style="edgeLabel;html=1;align=center;verticalAlign=middle;resizable=0;points=[];fontSize=14;" vertex="1" connectable="0" parent="PLFR-2SXMFGkghmjhbYo-52">
          <mxGeometry x="0.4205" y="6" relative="1" as="geometry">
            <mxPoint as="offset" />
          </mxGeometry>
        </mxCell>
        <mxCell id="PLFR-2SXMFGkghmjhbYo-55" style="edgeStyle=none;rounded=0;orthogonalLoop=1;jettySize=auto;html=1;entryX=0.5;entryY=0;entryDx=0;entryDy=0;fontSize=14;" edge="1" parent="1" source="PLFR-2SXMFGkghmjhbYo-13" target="PLFR-2SXMFGkghmjhbYo-26">
          <mxGeometry relative="1" as="geometry" />
        </mxCell>
        <mxCell id="PLFR-2SXMFGkghmjhbYo-56" value="1" style="edgeLabel;html=1;align=center;verticalAlign=middle;resizable=0;points=[];fontSize=14;" vertex="1" connectable="0" parent="PLFR-2SXMFGkghmjhbYo-55">
          <mxGeometry x="-0.705" y="2" relative="1" as="geometry">
            <mxPoint as="offset" />
          </mxGeometry>
        </mxCell>
        <mxCell id="PLFR-2SXMFGkghmjhbYo-57" value="n" style="edgeLabel;html=1;align=center;verticalAlign=middle;resizable=0;points=[];fontSize=14;" vertex="1" connectable="0" parent="PLFR-2SXMFGkghmjhbYo-55">
          <mxGeometry x="0.5659" y="1" relative="1" as="geometry">
            <mxPoint as="offset" />
          </mxGeometry>
        </mxCell>
        <mxCell id="PLFR-2SXMFGkghmjhbYo-58" style="edgeStyle=none;rounded=0;orthogonalLoop=1;jettySize=auto;html=1;entryX=1;entryY=0.5;entryDx=0;entryDy=0;fontSize=14;" edge="1" parent="1" source="PLFR-2SXMFGkghmjhbYo-15" target="PLFR-2SXMFGkghmjhbYo-27">
          <mxGeometry relative="1" as="geometry" />
        </mxCell>
        <mxCell id="PLFR-2SXMFGkghmjhbYo-59" style="edgeStyle=none;rounded=0;orthogonalLoop=1;jettySize=auto;html=1;entryX=1;entryY=0.5;entryDx=0;entryDy=0;fontSize=14;" edge="1" parent="1" source="PLFR-2SXMFGkghmjhbYo-27" target="PLFR-2SXMFGkghmjhbYo-29">
          <mxGeometry relative="1" as="geometry" />
        </mxCell>
        <mxCell id="PLFR-2SXMFGkghmjhbYo-60" style="edgeStyle=none;rounded=0;orthogonalLoop=1;jettySize=auto;html=1;entryX=0.5;entryY=0;entryDx=0;entryDy=0;fontSize=14;" edge="1" parent="1" source="PLFR-2SXMFGkghmjhbYo-29" target="PLFR-2SXMFGkghmjhbYo-30">
          <mxGeometry relative="1" as="geometry" />
        </mxCell>
        <mxCell id="PLFR-2SXMFGkghmjhbYo-61" value="1" style="edgeLabel;html=1;align=center;verticalAlign=middle;resizable=0;points=[];fontSize=14;" vertex="1" connectable="0" parent="PLFR-2SXMFGkghmjhbYo-60">
          <mxGeometry x="-0.574" y="2" relative="1" as="geometry">
            <mxPoint y="1" as="offset" />
          </mxGeometry>
        </mxCell>
        <mxCell id="PLFR-2SXMFGkghmjhbYo-66" value="n" style="edgeLabel;html=1;align=center;verticalAlign=middle;resizable=0;points=[];fontSize=14;" vertex="1" connectable="0" parent="PLFR-2SXMFGkghmjhbYo-60">
          <mxGeometry x="0.4848" y="-1" relative="1" as="geometry">
            <mxPoint as="offset" />
          </mxGeometry>
        </mxCell>
        <mxCell id="PLFR-2SXMFGkghmjhbYo-63" style="edgeStyle=none;rounded=0;orthogonalLoop=1;jettySize=auto;html=1;entryX=0.5;entryY=0;entryDx=0;entryDy=0;fontSize=14;" edge="1" parent="1" source="PLFR-2SXMFGkghmjhbYo-31" target="PLFR-2SXMFGkghmjhbYo-32">
          <mxGeometry relative="1" as="geometry" />
        </mxCell>
        <mxCell id="PLFR-2SXMFGkghmjhbYo-64" value="1" style="edgeLabel;html=1;align=center;verticalAlign=middle;resizable=0;points=[];fontSize=14;" vertex="1" connectable="0" parent="PLFR-2SXMFGkghmjhbYo-63">
          <mxGeometry x="-0.6807" relative="1" as="geometry">
            <mxPoint as="offset" />
          </mxGeometry>
        </mxCell>
        <mxCell id="PLFR-2SXMFGkghmjhbYo-65" value="n" style="edgeLabel;html=1;align=center;verticalAlign=middle;resizable=0;points=[];fontSize=14;" vertex="1" connectable="0" parent="PLFR-2SXMFGkghmjhbYo-63">
          <mxGeometry x="0.4622" relative="1" as="geometry">
            <mxPoint as="offset" />
          </mxGeometry>
        </mxCell>
        <mxCell id="PLFR-2SXMFGkghmjhbYo-67" style="edgeStyle=none;rounded=0;orthogonalLoop=1;jettySize=auto;html=1;entryX=0.5;entryY=0;entryDx=0;entryDy=0;fontSize=14;" edge="1" parent="1" source="PLFR-2SXMFGkghmjhbYo-15" target="PLFR-2SXMFGkghmjhbYo-17">
          <mxGeometry relative="1" as="geometry" />
        </mxCell>
        <mxCell id="PLFR-2SXMFGkghmjhbYo-68" value="1" style="edgeLabel;html=1;align=center;verticalAlign=middle;resizable=0;points=[];fontSize=14;" vertex="1" connectable="0" parent="PLFR-2SXMFGkghmjhbYo-67">
          <mxGeometry x="-0.6896" y="3" relative="1" as="geometry">
            <mxPoint as="offset" />
          </mxGeometry>
        </mxCell>
        <mxCell id="PLFR-2SXMFGkghmjhbYo-69" value="n" style="edgeLabel;html=1;align=center;verticalAlign=middle;resizable=0;points=[];fontSize=14;" vertex="1" connectable="0" parent="PLFR-2SXMFGkghmjhbYo-67">
          <mxGeometry x="0.451" y="2" relative="1" as="geometry">
            <mxPoint as="offset" />
          </mxGeometry>
        </mxCell>
        <mxCell id="PLFR-2SXMFGkghmjhbYo-70" style="edgeStyle=orthogonalEdgeStyle;rounded=0;orthogonalLoop=1;jettySize=auto;html=1;entryX=0.999;entryY=0.372;entryDx=0;entryDy=0;entryPerimeter=0;fontSize=14;" edge="1" parent="1" source="PLFR-2SXMFGkghmjhbYo-15" target="PLFR-2SXMFGkghmjhbYo-35">
          <mxGeometry relative="1" as="geometry">
            <Array as="points">
              <mxPoint x="257" y="680" />
              <mxPoint x="257" y="874" />
            </Array>
          </mxGeometry>
        </mxCell>
        <mxCell id="PLFR-2SXMFGkghmjhbYo-71" value="1" style="edgeLabel;html=1;align=center;verticalAlign=middle;resizable=0;points=[];fontSize=14;" vertex="1" connectable="0" parent="PLFR-2SXMFGkghmjhbYo-70">
          <mxGeometry x="-0.8077" relative="1" as="geometry">
            <mxPoint as="offset" />
          </mxGeometry>
        </mxCell>
        <mxCell id="PLFR-2SXMFGkghmjhbYo-72" value="1" style="edgeLabel;html=1;align=center;verticalAlign=middle;resizable=0;points=[];fontSize=14;" vertex="1" connectable="0" parent="PLFR-2SXMFGkghmjhbYo-70">
          <mxGeometry x="0.7798" relative="1" as="geometry">
            <mxPoint as="offset" />
          </mxGeometry>
        </mxCell>
        <mxCell id="PLFR-2SXMFGkghmjhbYo-73" style="edgeStyle=orthogonalEdgeStyle;rounded=0;orthogonalLoop=1;jettySize=auto;html=1;entryX=0;entryY=0.5;entryDx=0;entryDy=0;fontSize=14;" edge="1" parent="1" source="PLFR-2SXMFGkghmjhbYo-15" target="PLFR-2SXMFGkghmjhbYo-20">
          <mxGeometry relative="1" as="geometry" />
        </mxCell>
        <mxCell id="PLFR-2SXMFGkghmjhbYo-74" style="edgeStyle=orthogonalEdgeStyle;rounded=0;orthogonalLoop=1;jettySize=auto;html=1;entryX=0.5;entryY=0;entryDx=0;entryDy=0;fontSize=14;" edge="1" parent="1" source="PLFR-2SXMFGkghmjhbYo-20" target="PLFR-2SXMFGkghmjhbYo-22">
          <mxGeometry relative="1" as="geometry" />
        </mxCell>
        <mxCell id="PLFR-2SXMFGkghmjhbYo-75" value="1" style="edgeLabel;html=1;align=center;verticalAlign=middle;resizable=0;points=[];fontSize=14;" vertex="1" connectable="0" parent="PLFR-2SXMFGkghmjhbYo-74">
          <mxGeometry x="-0.6727" relative="1" as="geometry">
            <mxPoint as="offset" />
          </mxGeometry>
        </mxCell>
        <mxCell id="PLFR-2SXMFGkghmjhbYo-76" value="n" style="edgeLabel;html=1;align=center;verticalAlign=middle;resizable=0;points=[];fontSize=14;" vertex="1" connectable="0" parent="PLFR-2SXMFGkghmjhbYo-74">
          <mxGeometry x="0.4333" y="-1" relative="1" as="geometry">
            <mxPoint as="offset" />
          </mxGeometry>
        </mxCell>
        <mxCell id="PLFR-2SXMFGkghmjhbYo-77" style="edgeStyle=orthogonalEdgeStyle;rounded=0;orthogonalLoop=1;jettySize=auto;html=1;fontSize=14;" edge="1" parent="1" source="PLFR-2SXMFGkghmjhbYo-18" target="PLFR-2SXMFGkghmjhbYo-23">
          <mxGeometry relative="1" as="geometry" />
        </mxCell>
        <mxCell id="PLFR-2SXMFGkghmjhbYo-78" value="支付请求子单" style="swimlane;childLayout=stackLayout;horizontal=1;startSize=30;horizontalStack=0;rounded=1;fontSize=14;fontStyle=0;strokeWidth=2;resizeParent=0;resizeLast=1;shadow=0;dashed=0;align=center;fillColor=#d80073;strokeColor=#A50040;fontColor=#ffffff;" vertex="1" parent="1">
          <mxGeometry x="1040" y="330" width="160" height="120" as="geometry" />
        </mxCell>
        <mxCell id="PLFR-2SXMFGkghmjhbYo-79" value="预付子单号&#xa;支付信息" style="align=left;strokeColor=none;fillColor=none;spacingLeft=4;fontSize=12;verticalAlign=top;resizable=0;rotatable=0;part=1;" vertex="1" parent="PLFR-2SXMFGkghmjhbYo-78">
          <mxGeometry y="30" width="160" height="90" as="geometry" />
        </mxCell>
        <mxCell id="PLFR-2SXMFGkghmjhbYo-80" style="edgeStyle=orthogonalEdgeStyle;rounded=0;orthogonalLoop=1;jettySize=auto;html=1;fontSize=14;entryX=0;entryY=0.5;entryDx=0;entryDy=0;" edge="1" parent="1" source="PLFR-2SXMFGkghmjhbYo-20" target="PLFR-2SXMFGkghmjhbYo-25">
          <mxGeometry relative="1" as="geometry">
            <mxPoint x="960" y="650" as="targetPoint" />
          </mxGeometry>
        </mxCell>
        <mxCell id="PLFR-2SXMFGkghmjhbYo-81" style="edgeStyle=orthogonalEdgeStyle;rounded=0;orthogonalLoop=1;jettySize=auto;html=1;entryX=0;entryY=0.5;entryDx=0;entryDy=0;fontSize=14;" edge="1" parent="1" source="PLFR-2SXMFGkghmjhbYo-11" target="PLFR-2SXMFGkghmjhbYo-79">
          <mxGeometry relative="1" as="geometry" />
        </mxCell>
        <mxCell id="PLFR-2SXMFGkghmjhbYo-82" value="1" style="edgeLabel;html=1;align=center;verticalAlign=middle;resizable=0;points=[];fontSize=14;" vertex="1" connectable="0" parent="PLFR-2SXMFGkghmjhbYo-81">
          <mxGeometry x="-0.6331" y="-2" relative="1" as="geometry">
            <mxPoint as="offset" />
          </mxGeometry>
        </mxCell>
        <mxCell id="PLFR-2SXMFGkghmjhbYo-83" value="1" style="edgeLabel;html=1;align=center;verticalAlign=middle;resizable=0;points=[];fontSize=14;" vertex="1" connectable="0" parent="PLFR-2SXMFGkghmjhbYo-81">
          <mxGeometry x="0.5173" y="-1" relative="1" as="geometry">
            <mxPoint y="1" as="offset" />
          </mxGeometry>
        </mxCell>
        <mxCell id="PLFR-2SXMFGkghmjhbYo-84" style="edgeStyle=orthogonalEdgeStyle;rounded=0;orthogonalLoop=1;jettySize=auto;html=1;entryX=0.5;entryY=0;entryDx=0;entryDy=0;fontSize=14;" edge="1" parent="1" source="PLFR-2SXMFGkghmjhbYo-7" target="PLFR-2SXMFGkghmjhbYo-78">
          <mxGeometry relative="1" as="geometry" />
        </mxCell>
        <mxCell id="PLFR-2SXMFGkghmjhbYo-85" value="1" style="edgeLabel;html=1;align=center;verticalAlign=middle;resizable=0;points=[];fontSize=14;" vertex="1" connectable="0" parent="PLFR-2SXMFGkghmjhbYo-84">
          <mxGeometry x="-0.7159" relative="1" as="geometry">
            <mxPoint as="offset" />
          </mxGeometry>
        </mxCell>
        <mxCell id="PLFR-2SXMFGkghmjhbYo-86" value="n" style="edgeLabel;html=1;align=center;verticalAlign=middle;resizable=0;points=[];fontSize=14;" vertex="1" connectable="0" parent="PLFR-2SXMFGkghmjhbYo-84">
          <mxGeometry x="0.4545" y="1" relative="1" as="geometry">
            <mxPoint as="offset" />
          </mxGeometry>
        </mxCell>
      </root>
    </mxGraphModel>
  </diagram>
  <diagram id="uVolk4joZ6H7FbD8stSp" name="第 13 页">
    <mxGraphModel dx="1572" dy="1042" grid="1" gridSize="10" guides="1" tooltips="1" connect="1" arrows="1" fold="1" page="1" pageScale="1" pageWidth="827" pageHeight="1169" math="0" shadow="0">
      <root>
        <mxCell id="0" />
        <mxCell id="1" parent="0" />
        <mxCell id="VQIMG7oEQDmjkKdE1lRd-58" value="" style="rounded=0;whiteSpace=wrap;html=1;fontSize=14;" vertex="1" parent="1">
          <mxGeometry x="120" y="662.5" width="640" height="145" as="geometry" />
        </mxCell>
        <mxCell id="VQIMG7oEQDmjkKdE1lRd-54" value="" style="rounded=0;whiteSpace=wrap;html=1;fontSize=14;" vertex="1" parent="1">
          <mxGeometry x="1790" y="485" width="490" height="220" as="geometry" />
        </mxCell>
        <mxCell id="VQIMG7oEQDmjkKdE1lRd-39" value="" style="rounded=0;whiteSpace=wrap;html=1;fontSize=14;" vertex="1" parent="1">
          <mxGeometry x="780" y="660" width="630" height="320" as="geometry" />
        </mxCell>
        <mxCell id="VQIMG7oEQDmjkKdE1lRd-3" style="edgeStyle=orthogonalEdgeStyle;rounded=0;orthogonalLoop=1;jettySize=auto;html=1;entryX=0.5;entryY=0;entryDx=0;entryDy=0;fontSize=14;" edge="1" parent="1" source="VQIMG7oEQDmjkKdE1lRd-1" target="VQIMG7oEQDmjkKdE1lRd-2">
          <mxGeometry relative="1" as="geometry" />
        </mxCell>
        <mxCell id="VQIMG7oEQDmjkKdE1lRd-1" value="抖音/头条&lt;br&gt;其他三方业务线订单服务" style="rounded=0;whiteSpace=wrap;html=1;fontSize=14;" vertex="1" parent="1">
          <mxGeometry x="130" y="60" width="190" height="80" as="geometry" />
        </mxCell>
        <mxCell id="VQIMG7oEQDmjkKdE1lRd-8" style="edgeStyle=orthogonalEdgeStyle;rounded=0;orthogonalLoop=1;jettySize=auto;html=1;entryX=0.5;entryY=0;entryDx=0;entryDy=0;fontSize=14;" edge="1" parent="1" source="VQIMG7oEQDmjkKdE1lRd-2" target="VQIMG7oEQDmjkKdE1lRd-5">
          <mxGeometry relative="1" as="geometry" />
        </mxCell>
        <mxCell id="VQIMG7oEQDmjkKdE1lRd-25" value="回写订单标记" style="edgeLabel;html=1;align=center;verticalAlign=middle;resizable=0;points=[];fontSize=14;" vertex="1" connectable="0" parent="VQIMG7oEQDmjkKdE1lRd-8">
          <mxGeometry x="0.1369" relative="1" as="geometry">
            <mxPoint as="offset" />
          </mxGeometry>
        </mxCell>
        <mxCell id="VQIMG7oEQDmjkKdE1lRd-9" style="rounded=0;orthogonalLoop=1;jettySize=auto;html=1;entryX=0.5;entryY=0;entryDx=0;entryDy=0;fontSize=14;" edge="1" parent="1" source="VQIMG7oEQDmjkKdE1lRd-2" target="VQIMG7oEQDmjkKdE1lRd-6">
          <mxGeometry relative="1" as="geometry" />
        </mxCell>
        <mxCell id="VQIMG7oEQDmjkKdE1lRd-26" value="回写订单数据" style="edgeLabel;html=1;align=center;verticalAlign=middle;resizable=0;points=[];fontSize=14;" vertex="1" connectable="0" parent="VQIMG7oEQDmjkKdE1lRd-9">
          <mxGeometry x="0.1266" y="-1" relative="1" as="geometry">
            <mxPoint as="offset" />
          </mxGeometry>
        </mxCell>
        <mxCell id="VQIMG7oEQDmjkKdE1lRd-2" value="订单回写&lt;br&gt;order_writeback" style="rounded=0;whiteSpace=wrap;html=1;fontSize=14;" vertex="1" parent="1">
          <mxGeometry x="145" y="290" width="160" height="60" as="geometry" />
        </mxCell>
        <mxCell id="VQIMG7oEQDmjkKdE1lRd-4" value="订单回写请求" style="text;html=1;strokeColor=none;fillColor=none;align=center;verticalAlign=middle;whiteSpace=wrap;rounded=0;fontSize=14;" vertex="1" parent="1">
          <mxGeometry x="120" y="190" width="90" height="30" as="geometry" />
        </mxCell>
        <mxCell id="VQIMG7oEQDmjkKdE1lRd-5" value="订单打标&lt;br&gt;order_tag" style="rounded=0;whiteSpace=wrap;html=1;fontSize=14;" vertex="1" parent="1">
          <mxGeometry x="145" y="705" width="160" height="60" as="geometry" />
        </mxCell>
        <mxCell id="VQIMG7oEQDmjkKdE1lRd-6" value="订单模型&lt;br&gt;order_model" style="rounded=0;whiteSpace=wrap;html=1;fontSize=14;" vertex="1" parent="1">
          <mxGeometry x="350" y="705" width="160" height="60" as="geometry" />
        </mxCell>
        <mxCell id="VQIMG7oEQDmjkKdE1lRd-7" value="订单查询&lt;br&gt;order_query" style="rounded=0;whiteSpace=wrap;html=1;fontSize=14;" vertex="1" parent="1">
          <mxGeometry x="560" y="705" width="160" height="60" as="geometry" />
        </mxCell>
        <mxCell id="VQIMG7oEQDmjkKdE1lRd-15" style="edgeStyle=none;rounded=0;orthogonalLoop=1;jettySize=auto;html=1;entryX=0.45;entryY=0.006;entryDx=0;entryDy=0;entryPerimeter=0;fontSize=14;" edge="1" parent="1" source="VQIMG7oEQDmjkKdE1lRd-12" target="VQIMG7oEQDmjkKdE1lRd-14">
          <mxGeometry relative="1" as="geometry" />
        </mxCell>
        <mxCell id="VQIMG7oEQDmjkKdE1lRd-17" value="Lynx" style="edgeLabel;html=1;align=center;verticalAlign=middle;resizable=0;points=[];fontSize=14;" vertex="1" connectable="0" parent="VQIMG7oEQDmjkKdE1lRd-15">
          <mxGeometry x="-0.0627" y="1" relative="1" as="geometry">
            <mxPoint as="offset" />
          </mxGeometry>
        </mxCell>
        <mxCell id="VQIMG7oEQDmjkKdE1lRd-12" value="客户端&lt;br&gt;抖火（抖音！火山！抖lite）" style="rounded=0;whiteSpace=wrap;html=1;fontSize=14;" vertex="1" parent="1">
          <mxGeometry x="490" y="70" width="180" height="60" as="geometry" />
        </mxCell>
        <mxCell id="VQIMG7oEQDmjkKdE1lRd-16" style="edgeStyle=none;rounded=0;orthogonalLoop=1;jettySize=auto;html=1;entryX=0.5;entryY=0;entryDx=0;entryDy=0;fontSize=14;" edge="1" parent="1" source="VQIMG7oEQDmjkKdE1lRd-13" target="VQIMG7oEQDmjkKdE1lRd-14">
          <mxGeometry relative="1" as="geometry" />
        </mxCell>
        <mxCell id="VQIMG7oEQDmjkKdE1lRd-18" value="Lynx" style="edgeLabel;html=1;align=center;verticalAlign=middle;resizable=0;points=[];fontSize=14;" vertex="1" connectable="0" parent="VQIMG7oEQDmjkKdE1lRd-16">
          <mxGeometry x="-0.0039" y="1" relative="1" as="geometry">
            <mxPoint as="offset" />
          </mxGeometry>
        </mxCell>
        <mxCell id="VQIMG7oEQDmjkKdE1lRd-13" value="客户端&lt;br&gt;头条（头条lite）" style="rounded=0;whiteSpace=wrap;html=1;fontSize=14;" vertex="1" parent="1">
          <mxGeometry x="800" y="70" width="180" height="60" as="geometry" />
        </mxCell>
        <mxCell id="VQIMG7oEQDmjkKdE1lRd-20" style="edgeStyle=none;rounded=0;orthogonalLoop=1;jettySize=auto;html=1;entryX=0.5;entryY=0;entryDx=0;entryDy=0;fontSize=14;" edge="1" parent="1" source="VQIMG7oEQDmjkKdE1lRd-14" target="VQIMG7oEQDmjkKdE1lRd-19">
          <mxGeometry relative="1" as="geometry" />
        </mxCell>
        <mxCell id="VQIMG7oEQDmjkKdE1lRd-14" value="AGW" style="rounded=0;whiteSpace=wrap;html=1;fontSize=14;" vertex="1" parent="1">
          <mxGeometry x="647" y="220" width="180" height="60" as="geometry" />
        </mxCell>
        <mxCell id="VQIMG7oEQDmjkKdE1lRd-23" value="业务权限查询" style="edgeStyle=none;rounded=0;orthogonalLoop=1;jettySize=auto;html=1;entryX=0.5;entryY=0;entryDx=0;entryDy=0;fontSize=14;" edge="1" parent="1" source="VQIMG7oEQDmjkKdE1lRd-19" target="VQIMG7oEQDmjkKdE1lRd-21">
          <mxGeometry relative="1" as="geometry" />
        </mxCell>
        <mxCell id="VQIMG7oEQDmjkKdE1lRd-24" value="查询/管理订单" style="edgeStyle=none;rounded=0;orthogonalLoop=1;jettySize=auto;html=1;entryX=0.5;entryY=0;entryDx=0;entryDy=0;fontSize=14;" edge="1" parent="1" source="VQIMG7oEQDmjkKdE1lRd-19" target="VQIMG7oEQDmjkKdE1lRd-22">
          <mxGeometry relative="1" as="geometry" />
        </mxCell>
        <mxCell id="VQIMG7oEQDmjkKdE1lRd-19" value="订单中心&lt;br&gt;订单列表|订单详情|订单按钮&lt;br&gt;order_api" style="rounded=0;whiteSpace=wrap;html=1;fontSize=14;" vertex="1" parent="1">
          <mxGeometry x="647" y="340" width="180" height="60" as="geometry" />
        </mxCell>
        <mxCell id="VQIMG7oEQDmjkKdE1lRd-21" value="业务线权限&lt;br&gt;（commerce.order）" style="rounded=0;whiteSpace=wrap;html=1;fontSize=14;" vertex="1" parent="1">
          <mxGeometry x="490" y="500" width="180" height="60" as="geometry" />
        </mxCell>
        <mxCell id="VQIMG7oEQDmjkKdE1lRd-27" style="edgeStyle=none;rounded=0;orthogonalLoop=1;jettySize=auto;html=1;entryX=0.5;entryY=0;entryDx=0;entryDy=0;fontSize=14;" edge="1" parent="1" source="VQIMG7oEQDmjkKdE1lRd-22" target="VQIMG7oEQDmjkKdE1lRd-6">
          <mxGeometry relative="1" as="geometry" />
        </mxCell>
        <mxCell id="VQIMG7oEQDmjkKdE1lRd-28" value="更新订单信息" style="edgeLabel;html=1;align=center;verticalAlign=middle;resizable=0;points=[];fontSize=14;" vertex="1" connectable="0" parent="VQIMG7oEQDmjkKdE1lRd-27">
          <mxGeometry x="-0.0662" relative="1" as="geometry">
            <mxPoint as="offset" />
          </mxGeometry>
        </mxCell>
        <mxCell id="VQIMG7oEQDmjkKdE1lRd-29" value="查询订单信息" style="edgeStyle=none;rounded=0;orthogonalLoop=1;jettySize=auto;html=1;entryX=0.5;entryY=0;entryDx=0;entryDy=0;fontSize=14;" edge="1" parent="1" source="VQIMG7oEQDmjkKdE1lRd-22" target="VQIMG7oEQDmjkKdE1lRd-7">
          <mxGeometry relative="1" as="geometry" />
        </mxCell>
        <mxCell id="VQIMG7oEQDmjkKdE1lRd-41" value="查询" style="edgeStyle=none;rounded=0;orthogonalLoop=1;jettySize=auto;html=1;entryX=0.5;entryY=0;entryDx=0;entryDy=0;fontSize=14;" edge="1" parent="1" source="VQIMG7oEQDmjkKdE1lRd-22" target="VQIMG7oEQDmjkKdE1lRd-39">
          <mxGeometry relative="1" as="geometry" />
        </mxCell>
        <mxCell id="VQIMG7oEQDmjkKdE1lRd-22" value="用户订单管理&lt;br&gt;（trade_order_manage）" style="rounded=0;whiteSpace=wrap;html=1;fontSize=14;" vertex="1" parent="1">
          <mxGeometry x="850" y="500" width="180" height="60" as="geometry" />
        </mxCell>
        <mxCell id="VQIMG7oEQDmjkKdE1lRd-30" value="售后" style="rounded=0;whiteSpace=wrap;html=1;fontSize=14;" vertex="1" parent="1">
          <mxGeometry x="810" y="715" width="160" height="60" as="geometry" />
        </mxCell>
        <mxCell id="VQIMG7oEQDmjkKdE1lRd-31" value="履约" style="rounded=0;whiteSpace=wrap;html=1;fontSize=14;" vertex="1" parent="1">
          <mxGeometry x="1010" y="715" width="160" height="60" as="geometry" />
        </mxCell>
        <mxCell id="VQIMG7oEQDmjkKdE1lRd-32" value="卡券" style="rounded=0;whiteSpace=wrap;html=1;fontSize=14;" vertex="1" parent="1">
          <mxGeometry x="1210" y="715" width="160" height="60" as="geometry" />
        </mxCell>
        <mxCell id="VQIMG7oEQDmjkKdE1lRd-33" value="运费险" style="rounded=0;whiteSpace=wrap;html=1;fontSize=14;" vertex="1" parent="1">
          <mxGeometry x="810" y="805" width="160" height="60" as="geometry" />
        </mxCell>
        <mxCell id="VQIMG7oEQDmjkKdE1lRd-34" value="跨境" style="rounded=0;whiteSpace=wrap;html=1;fontSize=14;" vertex="1" parent="1">
          <mxGeometry x="1010" y="805" width="160" height="60" as="geometry" />
        </mxCell>
        <mxCell id="VQIMG7oEQDmjkKdE1lRd-35" value="抖音用户" style="rounded=0;whiteSpace=wrap;html=1;fontSize=14;" vertex="1" parent="1">
          <mxGeometry x="1210" y="805" width="160" height="60" as="geometry" />
        </mxCell>
        <mxCell id="VQIMG7oEQDmjkKdE1lRd-36" value="奖励金" style="rounded=0;whiteSpace=wrap;html=1;fontSize=14;" vertex="1" parent="1">
          <mxGeometry x="810" y="895" width="160" height="60" as="geometry" />
        </mxCell>
        <mxCell id="VQIMG7oEQDmjkKdE1lRd-37" value="券码" style="rounded=0;whiteSpace=wrap;html=1;fontSize=14;" vertex="1" parent="1">
          <mxGeometry x="1010" y="895" width="160" height="60" as="geometry" />
        </mxCell>
        <mxCell id="VQIMG7oEQDmjkKdE1lRd-38" value="店铺" style="rounded=0;whiteSpace=wrap;html=1;fontSize=14;" vertex="1" parent="1">
          <mxGeometry x="1210" y="895" width="160" height="60" as="geometry" />
        </mxCell>
        <mxCell id="VQIMG7oEQDmjkKdE1lRd-40" value="其他领域服务" style="text;html=1;strokeColor=none;fillColor=none;align=center;verticalAlign=middle;whiteSpace=wrap;rounded=0;fontSize=14;" vertex="1" parent="1">
          <mxGeometry x="1010" y="675" width="150" height="30" as="geometry" />
        </mxCell>
        <mxCell id="VQIMG7oEQDmjkKdE1lRd-50" style="edgeStyle=none;rounded=0;orthogonalLoop=1;jettySize=auto;html=1;entryX=0.5;entryY=0;entryDx=0;entryDy=0;fontSize=14;" edge="1" parent="1" source="VQIMG7oEQDmjkKdE1lRd-42" target="VQIMG7oEQDmjkKdE1lRd-43">
          <mxGeometry relative="1" as="geometry" />
        </mxCell>
        <mxCell id="VQIMG7oEQDmjkKdE1lRd-42" value="客户端&lt;br&gt;西瓜|皮皮虾|番茄小说" style="rounded=0;whiteSpace=wrap;html=1;fontSize=14;fillColor=#cdeb8b;strokeColor=#36393d;" vertex="1" parent="1">
          <mxGeometry x="1620" y="70" width="180" height="60" as="geometry" />
        </mxCell>
        <mxCell id="VQIMG7oEQDmjkKdE1lRd-51" style="edgeStyle=none;rounded=0;orthogonalLoop=1;jettySize=auto;html=1;entryX=0.5;entryY=0;entryDx=0;entryDy=0;fontSize=14;" edge="1" parent="1" source="VQIMG7oEQDmjkKdE1lRd-43" target="VQIMG7oEQDmjkKdE1lRd-44">
          <mxGeometry relative="1" as="geometry" />
        </mxCell>
        <mxCell id="VQIMG7oEQDmjkKdE1lRd-43" value="AGW" style="rounded=0;whiteSpace=wrap;html=1;fontSize=14;fillColor=#cdeb8b;strokeColor=#36393d;" vertex="1" parent="1">
          <mxGeometry x="1620" y="210" width="180" height="60" as="geometry" />
        </mxCell>
        <mxCell id="VQIMG7oEQDmjkKdE1lRd-52" style="edgeStyle=orthogonalEdgeStyle;rounded=0;orthogonalLoop=1;jettySize=auto;html=1;entryX=0.5;entryY=0;entryDx=0;entryDy=0;fontSize=14;" edge="1" parent="1" source="VQIMG7oEQDmjkKdE1lRd-44" target="VQIMG7oEQDmjkKdE1lRd-45">
          <mxGeometry relative="1" as="geometry" />
        </mxCell>
        <mxCell id="VQIMG7oEQDmjkKdE1lRd-55" style="edgeStyle=orthogonalEdgeStyle;rounded=0;orthogonalLoop=1;jettySize=auto;html=1;fontSize=14;" edge="1" parent="1" source="VQIMG7oEQDmjkKdE1lRd-44" target="VQIMG7oEQDmjkKdE1lRd-54">
          <mxGeometry relative="1" as="geometry" />
        </mxCell>
        <mxCell id="VQIMG7oEQDmjkKdE1lRd-44" value="交易网关&lt;br&gt;smart-go" style="rounded=0;whiteSpace=wrap;html=1;fontSize=14;fillColor=#cdeb8b;strokeColor=#36393d;" vertex="1" parent="1">
          <mxGeometry x="1620" y="340" width="180" height="60" as="geometry" />
        </mxCell>
        <mxCell id="VQIMG7oEQDmjkKdE1lRd-53" style="edgeStyle=orthogonalEdgeStyle;rounded=0;orthogonalLoop=1;jettySize=auto;html=1;entryX=0.5;entryY=0;entryDx=0;entryDy=0;fontSize=14;" edge="1" parent="1" source="VQIMG7oEQDmjkKdE1lRd-45" target="VQIMG7oEQDmjkKdE1lRd-46">
          <mxGeometry relative="1" as="geometry" />
        </mxCell>
        <mxCell id="VQIMG7oEQDmjkKdE1lRd-45" value="老交易系统&lt;br&gt;tradeapi" style="rounded=0;whiteSpace=wrap;html=1;fontSize=14;fillColor=#cdeb8b;strokeColor=#36393d;" vertex="1" parent="1">
          <mxGeometry x="1500" y="480" width="180" height="60" as="geometry" />
        </mxCell>
        <mxCell id="VQIMG7oEQDmjkKdE1lRd-46" value="老订单系统&lt;br&gt;trade_order" style="rounded=0;whiteSpace=wrap;html=1;fontSize=14;fillColor=#cdeb8b;strokeColor=#36393d;" vertex="1" parent="1">
          <mxGeometry x="1500" y="600" width="180" height="60" as="geometry" />
        </mxCell>
        <mxCell id="VQIMG7oEQDmjkKdE1lRd-47" value="售后" style="rounded=0;whiteSpace=wrap;html=1;fontSize=14;fillColor=#cdeb8b;strokeColor=#36393d;" vertex="1" parent="1">
          <mxGeometry x="1830" y="505" width="180" height="60" as="geometry" />
        </mxCell>
        <mxCell id="VQIMG7oEQDmjkKdE1lRd-48" value="履约" style="rounded=0;whiteSpace=wrap;html=1;fontSize=14;fillColor=#cdeb8b;strokeColor=#36393d;" vertex="1" parent="1">
          <mxGeometry x="2080" y="505" width="180" height="60" as="geometry" />
        </mxCell>
        <mxCell id="VQIMG7oEQDmjkKdE1lRd-49" value="运费险" style="rounded=0;whiteSpace=wrap;html=1;fontSize=14;fillColor=#cdeb8b;strokeColor=#36393d;" vertex="1" parent="1">
          <mxGeometry x="1830" y="625" width="180" height="60" as="geometry" />
        </mxCell>
        <mxCell id="VQIMG7oEQDmjkKdE1lRd-56" value="" style="shape=flexArrow;endArrow=classic;html=1;rounded=0;fontSize=14;" edge="1" parent="1">
          <mxGeometry width="50" height="50" relative="1" as="geometry">
            <mxPoint x="1380" y="210" as="sourcePoint" />
            <mxPoint x="1151" y="210" as="targetPoint" />
          </mxGeometry>
        </mxCell>
        <mxCell id="VQIMG7oEQDmjkKdE1lRd-57" value="西瓜/皮皮虾/番茄待迁移" style="edgeLabel;html=1;align=center;verticalAlign=middle;resizable=0;points=[];fontSize=14;" vertex="1" connectable="0" parent="VQIMG7oEQDmjkKdE1lRd-56">
          <mxGeometry x="-0.1214" y="-1" relative="1" as="geometry">
            <mxPoint as="offset" />
          </mxGeometry>
        </mxCell>
        <mxCell id="VQIMG7oEQDmjkKdE1lRd-59" value="订单服务" style="text;html=1;strokeColor=none;fillColor=none;align=center;verticalAlign=middle;whiteSpace=wrap;rounded=0;fontSize=14;" vertex="1" parent="1">
          <mxGeometry x="130" y="670" width="60" height="26" as="geometry" />
        </mxCell>
      </root>
    </mxGraphModel>
  </diagram>
  <diagram id="HvlYdgfy7557YiTkA9Ze" name="第 14 页">
    <mxGraphModel dx="2137" dy="868" grid="1" gridSize="10" guides="1" tooltips="1" connect="1" arrows="1" fold="1" page="1" pageScale="1" pageWidth="827" pageHeight="1169" math="0" shadow="0">
      <root>
        <mxCell id="0" />
        <mxCell id="1" parent="0" />
        <mxCell id="235oadr-gdwDqs96qypl-19" value="" style="rounded=0;whiteSpace=wrap;html=1;fontSize=14;dashed=1;" vertex="1" parent="1">
          <mxGeometry x="1010" y="410" width="140" height="160" as="geometry" />
        </mxCell>
        <mxCell id="235oadr-gdwDqs96qypl-10" value="" style="rounded=0;whiteSpace=wrap;html=1;fontSize=14;dashed=1;" vertex="1" parent="1">
          <mxGeometry x="150" y="100" width="540" height="145" as="geometry" />
        </mxCell>
        <mxCell id="235oadr-gdwDqs96qypl-1" value="交易下单" style="rounded=0;whiteSpace=wrap;html=1;fontSize=14;" vertex="1" parent="1">
          <mxGeometry x="180" y="130" width="90" height="30" as="geometry" />
        </mxCell>
        <mxCell id="235oadr-gdwDqs96qypl-2" value="商详页" style="rounded=0;whiteSpace=wrap;html=1;fontSize=14;" vertex="1" parent="1">
          <mxGeometry x="320" y="130" width="90" height="30" as="geometry" />
        </mxCell>
        <mxCell id="235oadr-gdwDqs96qypl-3" value="视频锚点" style="rounded=0;whiteSpace=wrap;html=1;fontSize=14;" vertex="1" parent="1">
          <mxGeometry x="450" y="130" width="90" height="30" as="geometry" />
        </mxCell>
        <mxCell id="235oadr-gdwDqs96qypl-4" value="推荐" style="rounded=0;whiteSpace=wrap;html=1;fontSize=14;" vertex="1" parent="1">
          <mxGeometry x="580" y="130" width="90" height="30" as="geometry" />
        </mxCell>
        <mxCell id="235oadr-gdwDqs96qypl-5" value="直播间" style="rounded=0;whiteSpace=wrap;html=1;fontSize=14;" vertex="1" parent="1">
          <mxGeometry x="180" y="190" width="90" height="30" as="geometry" />
        </mxCell>
        <mxCell id="235oadr-gdwDqs96qypl-6" value="治理" style="rounded=0;whiteSpace=wrap;html=1;fontSize=14;" vertex="1" parent="1">
          <mxGeometry x="320" y="190" width="90" height="30" as="geometry" />
        </mxCell>
        <mxCell id="235oadr-gdwDqs96qypl-7" value="搜索" style="rounded=0;whiteSpace=wrap;html=1;fontSize=14;" vertex="1" parent="1">
          <mxGeometry x="450" y="190" width="90" height="30" as="geometry" />
        </mxCell>
        <mxCell id="235oadr-gdwDqs96qypl-8" value="..." style="rounded=0;whiteSpace=wrap;html=1;fontSize=14;" vertex="1" parent="1">
          <mxGeometry x="580" y="190" width="90" height="30" as="geometry" />
        </mxCell>
        <mxCell id="235oadr-gdwDqs96qypl-11" value="查询" style="edgeStyle=orthogonalEdgeStyle;rounded=0;orthogonalLoop=1;jettySize=auto;html=1;entryX=0.5;entryY=1;entryDx=0;entryDy=0;fontSize=14;" edge="1" parent="1" source="235oadr-gdwDqs96qypl-9" target="235oadr-gdwDqs96qypl-10">
          <mxGeometry relative="1" as="geometry" />
        </mxCell>
        <mxCell id="235oadr-gdwDqs96qypl-9" value="商品模型查询" style="rounded=0;whiteSpace=wrap;html=1;fontSize=14;" vertex="1" parent="1">
          <mxGeometry x="325" y="340" width="190" height="40" as="geometry" />
        </mxCell>
        <mxCell id="235oadr-gdwDqs96qypl-13" value="" style="edgeStyle=orthogonalEdgeStyle;rounded=0;orthogonalLoop=1;jettySize=auto;html=1;fontSize=14;" edge="1" parent="1" source="235oadr-gdwDqs96qypl-12" target="235oadr-gdwDqs96qypl-9">
          <mxGeometry relative="1" as="geometry" />
        </mxCell>
        <mxCell id="235oadr-gdwDqs96qypl-15" value="T+1同步" style="edgeStyle=orthogonalEdgeStyle;rounded=0;orthogonalLoop=1;jettySize=auto;html=1;entryX=0;entryY=0.5;entryDx=0;entryDy=0;entryPerimeter=0;fontSize=14;" edge="1" parent="1" source="235oadr-gdwDqs96qypl-12" target="235oadr-gdwDqs96qypl-14">
          <mxGeometry relative="1" as="geometry" />
        </mxCell>
        <mxCell id="235oadr-gdwDqs96qypl-12" value="标签DB" style="shape=cylinder3;whiteSpace=wrap;html=1;boundedLbl=1;backgroundOutline=1;size=15;fontSize=14;" vertex="1" parent="1">
          <mxGeometry x="327" y="450" width="186" height="80" as="geometry" />
        </mxCell>
        <mxCell id="235oadr-gdwDqs96qypl-21" style="edgeStyle=orthogonalEdgeStyle;rounded=0;orthogonalLoop=1;jettySize=auto;html=1;entryX=0;entryY=0.5;entryDx=0;entryDy=0;fontSize=14;" edge="1" parent="1" source="235oadr-gdwDqs96qypl-14" target="235oadr-gdwDqs96qypl-19">
          <mxGeometry relative="1" as="geometry" />
        </mxCell>
        <mxCell id="235oadr-gdwDqs96qypl-14" value="标签HIVE" style="shape=cylinder3;whiteSpace=wrap;html=1;boundedLbl=1;backgroundOutline=1;size=15;fontSize=14;" vertex="1" parent="1">
          <mxGeometry x="680" y="450" width="186" height="80" as="geometry" />
        </mxCell>
        <mxCell id="235oadr-gdwDqs96qypl-16" value="交易下单" style="rounded=0;whiteSpace=wrap;html=1;fontSize=14;" vertex="1" parent="1">
          <mxGeometry x="1035" y="450" width="90" height="30" as="geometry" />
        </mxCell>
        <mxCell id="235oadr-gdwDqs96qypl-17" value="特征构建" style="rounded=0;whiteSpace=wrap;html=1;fontSize=14;" vertex="1" parent="1">
          <mxGeometry x="1035" y="490" width="90" height="30" as="geometry" />
        </mxCell>
        <mxCell id="235oadr-gdwDqs96qypl-18" value="离线分析" style="rounded=0;whiteSpace=wrap;html=1;fontSize=14;" vertex="1" parent="1">
          <mxGeometry x="1035" y="530" width="90" height="30" as="geometry" />
        </mxCell>
        <mxCell id="235oadr-gdwDqs96qypl-20" value="离线使用场景" style="text;html=1;strokeColor=none;fillColor=none;align=center;verticalAlign=middle;whiteSpace=wrap;rounded=0;dashed=1;fontSize=14;" vertex="1" parent="1">
          <mxGeometry x="1030" y="417.5" width="100" height="25" as="geometry" />
        </mxCell>
        <mxCell id="235oadr-gdwDqs96qypl-27" style="edgeStyle=orthogonalEdgeStyle;rounded=0;orthogonalLoop=1;jettySize=auto;html=1;entryX=0;entryY=0.5;entryDx=0;entryDy=0;entryPerimeter=0;fontSize=14;" edge="1" parent="1" source="235oadr-gdwDqs96qypl-22" target="235oadr-gdwDqs96qypl-12">
          <mxGeometry relative="1" as="geometry" />
        </mxCell>
        <mxCell id="235oadr-gdwDqs96qypl-39" style="edgeStyle=orthogonalEdgeStyle;rounded=0;orthogonalLoop=1;jettySize=auto;html=1;entryX=0.5;entryY=1;entryDx=0;entryDy=0;fontSize=14;exitX=0.75;exitY=1;exitDx=0;exitDy=0;" edge="1" parent="1" source="235oadr-gdwDqs96qypl-22" target="235oadr-gdwDqs96qypl-19">
          <mxGeometry relative="1" as="geometry">
            <Array as="points">
              <mxPoint x="175" y="610" />
              <mxPoint x="1080" y="610" />
            </Array>
          </mxGeometry>
        </mxCell>
        <mxCell id="235oadr-gdwDqs96qypl-22" value="" style="rounded=0;whiteSpace=wrap;html=1;fontSize=14;dashed=1;" vertex="1" parent="1">
          <mxGeometry x="70" y="420" width="140" height="140" as="geometry" />
        </mxCell>
        <mxCell id="235oadr-gdwDqs96qypl-23" value="打标" style="rounded=0;whiteSpace=wrap;html=1;fontSize=14;" vertex="1" parent="1">
          <mxGeometry x="95" y="460" width="90" height="30" as="geometry" />
        </mxCell>
        <mxCell id="235oadr-gdwDqs96qypl-24" value="去标" style="rounded=0;whiteSpace=wrap;html=1;fontSize=14;" vertex="1" parent="1">
          <mxGeometry x="95" y="510" width="90" height="30" as="geometry" />
        </mxCell>
        <mxCell id="235oadr-gdwDqs96qypl-26" value="标签管理" style="text;html=1;strokeColor=none;fillColor=none;align=center;verticalAlign=middle;whiteSpace=wrap;rounded=0;dashed=1;fontSize=14;" vertex="1" parent="1">
          <mxGeometry x="90" y="427.5" width="100" height="25" as="geometry" />
        </mxCell>
        <mxCell id="235oadr-gdwDqs96qypl-35" style="rounded=0;orthogonalLoop=1;jettySize=auto;html=1;entryX=-0.016;entryY=0.559;entryDx=0;entryDy=0;entryPerimeter=0;fontSize=14;" edge="1" parent="1" source="235oadr-gdwDqs96qypl-28" target="235oadr-gdwDqs96qypl-22">
          <mxGeometry relative="1" as="geometry" />
        </mxCell>
        <mxCell id="235oadr-gdwDqs96qypl-36" value="RPC" style="edgeLabel;html=1;align=center;verticalAlign=middle;resizable=0;points=[];fontSize=14;" vertex="1" connectable="0" parent="235oadr-gdwDqs96qypl-35">
          <mxGeometry x="-0.0002" y="1" relative="1" as="geometry">
            <mxPoint as="offset" />
          </mxGeometry>
        </mxCell>
        <mxCell id="235oadr-gdwDqs96qypl-37" style="edgeStyle=orthogonalEdgeStyle;rounded=0;orthogonalLoop=1;jettySize=auto;html=1;fontSize=14;" edge="1" parent="1" source="235oadr-gdwDqs96qypl-28">
          <mxGeometry relative="1" as="geometry">
            <mxPoint x="140" y="560.0000000000002" as="targetPoint" />
            <Array as="points">
              <mxPoint x="-120" y="640" />
              <mxPoint x="140" y="640" />
            </Array>
          </mxGeometry>
        </mxCell>
        <mxCell id="235oadr-gdwDqs96qypl-38" value="MQ" style="edgeLabel;html=1;align=center;verticalAlign=middle;resizable=0;points=[];fontSize=14;" vertex="1" connectable="0" parent="235oadr-gdwDqs96qypl-37">
          <mxGeometry x="-0.1368" y="2" relative="1" as="geometry">
            <mxPoint as="offset" />
          </mxGeometry>
        </mxCell>
        <mxCell id="235oadr-gdwDqs96qypl-28" value="" style="rounded=0;whiteSpace=wrap;html=1;fontSize=14;dashed=1;" vertex="1" parent="1">
          <mxGeometry x="-190" y="377.5" width="140" height="235" as="geometry" />
        </mxCell>
        <mxCell id="235oadr-gdwDqs96qypl-29" value="卖点挖掘" style="rounded=0;whiteSpace=wrap;html=1;fontSize=14;" vertex="1" parent="1">
          <mxGeometry x="-165" y="417.5" width="90" height="30" as="geometry" />
        </mxCell>
        <mxCell id="235oadr-gdwDqs96qypl-30" value="运营配置" style="rounded=0;whiteSpace=wrap;html=1;fontSize=14;" vertex="1" parent="1">
          <mxGeometry x="-165" y="457.5" width="90" height="30" as="geometry" />
        </mxCell>
        <mxCell id="235oadr-gdwDqs96qypl-31" value="商品发布" style="rounded=0;whiteSpace=wrap;html=1;fontSize=14;" vertex="1" parent="1">
          <mxGeometry x="-165" y="497.5" width="90" height="30" as="geometry" />
        </mxCell>
        <mxCell id="235oadr-gdwDqs96qypl-32" value="标签生产" style="text;html=1;strokeColor=none;fillColor=none;align=center;verticalAlign=middle;whiteSpace=wrap;rounded=0;dashed=1;fontSize=14;" vertex="1" parent="1">
          <mxGeometry x="-170" y="385" width="100" height="25" as="geometry" />
        </mxCell>
        <mxCell id="235oadr-gdwDqs96qypl-33" value="活动营销" style="rounded=0;whiteSpace=wrap;html=1;fontSize=14;" vertex="1" parent="1">
          <mxGeometry x="-165" y="537.5" width="90" height="30" as="geometry" />
        </mxCell>
        <mxCell id="235oadr-gdwDqs96qypl-34" value="权益信息" style="rounded=0;whiteSpace=wrap;html=1;fontSize=14;" vertex="1" parent="1">
          <mxGeometry x="-165" y="572.5" width="90" height="30" as="geometry" />
        </mxCell>
      </root>
    </mxGraphModel>
  </diagram>
</mxfile>
